<?xml version="1.0" encoding="UTF-8" standalone="no"?>
<!-- Created with Inkscape (http://www.inkscape.org/) -->

<svg
   width="792"
   height="576"
   viewBox="0 0 209.54999 152.40001"
   version="1.1"
   id="svg5"
   inkscape:version="1.1.2 (0a00cf5339, 2022-02-04)"
   sodipodi:docname="fieldchart-1.375:1-crtsafe.svg"
   xmlns:inkscape="http://www.inkscape.org/namespaces/inkscape"
   xmlns:sodipodi="http://sodipodi.sourceforge.net/DTD/sodipodi-0.dtd"
   xmlns="http://www.w3.org/2000/svg"
   xmlns:svg="http://www.w3.org/2000/svg">
  <sodipodi:namedview
     id="namedview7"
     pagecolor="#ffffff"
     bordercolor="#666666"
     borderopacity="1.0"
     inkscape:pageshadow="2"
     inkscape:pageopacity="0.0"
     inkscape:pagecheckerboard="0"
     inkscape:document-units="mm"
     showgrid="false"
     units="px"
     width="1600px"
     inkscape:zoom="0.62362889"
     inkscape:cx="361.59325"
     inkscape:cy="303.06486"
     inkscape:window-width="1366"
     inkscape:window-height="707"
     inkscape:window-x="1680"
     inkscape:window-y="282"
     inkscape:window-maximized="1"
     inkscape:current-layer="layer1"
     inkscape:snap-grids="false"
     inkscape:snap-page="true">
    <inkscape:grid
       type="xygrid"
       id="grid824"
       spacingx="8.4666667"
       spacingy="8.4666667"
       empspacing="2" />
  </sodipodi:namedview>
  <defs
     id="defs2" />
  <g
     inkscape:label="Layer 1"
     inkscape:groupmode="layer"
     id="layer1">
    <rect
       style="fill:none;stroke:#000000;stroke-width:0.529167;stroke-linecap:round;stroke-linejoin:miter;stroke-miterlimit:4;stroke-dasharray:none;paint-order:stroke fill markers"
       id="rect848"
       width="209.55"
       height="152.39999"
       x="0"
       y="0" />
    <path
       id="path868-3-7-3"
       style="fill:none;stroke:#000000;stroke-width:0.529167;stroke-linecap:butt;stroke-linejoin:miter;stroke-miterlimit:4;stroke-dasharray:none;stroke-opacity:1"
       d="m 36.193813,129.55859 c -5.05757,-0.76393 -9.747315,-6.04531 -10.513883,-11.03873 -2.011581,-13.10343 -1.930454,-42.319861 -1.930454,-42.319861 0,0 -0.08113,-29.21643 1.930451,-42.31986 0.766568,-4.993421 5.456313,-10.274798 10.513883,-11.038735 21.449427,-3.239902 68.58119,-3.176872 68.58119,-3.176872 0,0 47.13176,-0.06303 68.58118,3.176872 5.05758,0.763937 9.74732,6.045314 10.51389,11.038735 2.01158,13.10343 1.93044,42.31986 1.93044,42.31986 0,0 0.0812,29.216431 -1.93044,42.319861 -0.76657,4.99342 -5.45632,10.2748 -10.51389,11.03873 -21.44943,3.2399 -68.58118,3.17688 -68.58118,3.17688 0,0 -47.13176,0.063 -68.581187,-3.17688 z"
       sodipodi:nodetypes="cscsscsscsscc" />
    <path
       id="path868-3-7-3-3"
       style="fill:none;stroke:#000000;stroke-width:0.529167;stroke-linecap:butt;stroke-linejoin:miter;stroke-miterlimit:4;stroke-dasharray:none;stroke-opacity:1"
       d="M 26.051551,139.71647 C 20.246038,138.8071 14.862737,132.5203 13.982812,126.57629 11.67374,110.97836 11.766865,76.199999 11.766865,76.199999 c 0,0 -0.09315,-34.77836 2.215936,-50.37629 C 14.862737,19.87969 20.246038,13.592897 26.051551,12.68353 50.673071,8.8268481 104.775,8.9018768 104.775,8.9018768 c 0,0 54.10193,-0.075028 78.72344,3.7816532 5.80553,0.909367 11.18881,7.19616 12.06875,13.140179 2.30907,15.59793 2.21594,50.37629 2.21594,50.37629 0,0 0.0931,34.778361 -2.21594,50.376291 -0.87994,5.94401 -6.26323,12.23081 -12.06875,13.14018 -24.62152,3.85667 -78.72344,3.78165 -78.72344,3.78165 0,0 -54.101929,0.075 -78.723449,-3.78165 z"
       sodipodi:nodetypes="cscsscsscsscc" />
  </g>
</svg>
