<?xml version="1.0" encoding="UTF-8" standalone="no"?>
<!-- Created with Inkscape (http://www.inkscape.org/) -->

<svg
   width="576"
   height="576"
   viewBox="0 0 152.4 152.4"
   version="1.1"
   id="svg1"
   inkscape:version="1.1.2 (0a00cf5339, 2022-02-04)"
   sodipodi:docname="stopwatch-dial-outer-24fps-60s-1.svg"
   xmlns:inkscape="http://www.inkscape.org/namespaces/inkscape"
   xmlns:sodipodi="http://sodipodi.sourceforge.net/DTD/sodipodi-0.dtd"
   xmlns="http://www.w3.org/2000/svg"
   xmlns:svg="http://www.w3.org/2000/svg">
  <sodipodi:namedview
     id="namedview1"
     pagecolor="#ffffff"
     bordercolor="#666666"
     borderopacity="1.0"
     inkscape:showpageshadow="2"
     inkscape:pageopacity="0.0"
     inkscape:pagecheckerboard="0"
     inkscape:deskcolor="#d1d1d1"
     inkscape:document-units="mm"
     showgrid="true"
     inkscape:zoom="0.70710677"
     inkscape:cx="309.71277"
     inkscape:cy="343.6539"
     inkscape:window-width="1680"
     inkscape:window-height="1021"
     inkscape:window-x="0"
     inkscape:window-y="0"
     inkscape:window-maximized="1"
     inkscape:current-layer="layer1"
     inkscape:pageshadow="2"
     inkscape:snap-page="true"
     inkscape:snap-object-midpoints="true">
    <inkscape:grid
       id="grid1"
       units="px"
       originx="0"
       originy="0"
       spacingx="2.38125"
       spacingy="2.38125"
       empcolor="#3f3fff"
       empopacity="0.25098039"
       color="#3f3fff"
       opacity="0.1254902"
       empspacing="4"
       dotted="false"
       gridanglex="30"
       gridanglez="30"
       visible="true" />
  </sodipodi:namedview>
  <defs
     id="defs1">
    <inkscape:path-effect
       effect="copy_rotate"
       starting_point="88.106246,76.199997"
       origin="76.199997,76.199997"
       id="path-effect35"
       is_visible="true"
       lpeversion="1.2"
       lpesatellites="#path36 | #path37 | #path38 | #path39 | #path40"
       method="normal"
       num_copies="6"
       starting_angle="0"
       rotation_angle="60"
       gap="-0.01"
       copies_to_360="true"
       mirror_copies="false"
       split_items="true"
       link_styles="false" />
    <inkscape:path-effect
       effect="copy_rotate"
       starting_point="79.771872,75.009374"
       origin="76.199997,75.009374"
       id="path-effect12"
       is_visible="true"
       lpeversion="1.2"
       lpesatellites="#path13 | #path14 | #path15 | #path16 | #path17 | #path18 | #path19 | #path20 | #path21 | #path22 | #path23 | #path24 | #path25 | #path26 | #path27 | #path28 | #path29 | #path30 | #path31 | #path32 | #path33 | #path34 | #path35"
       method="normal"
       num_copies="12"
       starting_angle="0"
       rotation_angle="30"
       gap="-0.01"
       copies_to_360="true"
       mirror_copies="false"
       split_items="true"
       link_styles="false" />
    <inkscape:path-effect
       effect="copy_rotate"
       starting_point="81.093271,76.199997"
       origin="76.199997,76.199997"
       id="path-effect11"
       is_visible="true"
       lpeversion="1.2"
       lpesatellites=""
       method="normal"
       num_copies="24"
       starting_angle="0"
       rotation_angle="15"
       gap="-0.01"
       copies_to_360="true"
       mirror_copies="false"
       split_items="false"
       link_styles="false" />
    <inkscape:path-effect
       effect="copy_rotate"
       starting_point="77.993946,76.199997"
       origin="76.199997,76.199997"
       id="path-effect10"
       is_visible="true"
       lpeversion="1.2"
       lpesatellites=""
       method="normal"
       num_copies="72"
       starting_angle="0"
       rotation_angle="5"
       gap="-0.01"
       copies_to_360="true"
       mirror_copies="false"
       split_items="false"
       link_styles="false" />
    <inkscape:path-effect
       effect="copy_rotate"
       starting_point="80.862229,76.199997"
       origin="76.199997,76.199997"
       id="path-effect8"
       is_visible="true"
       lpeversion="1.2"
       lpesatellites=""
       method="normal"
       num_copies="24"
       starting_angle="0"
       rotation_angle="15"
       gap="-0.01"
       copies_to_360="true"
       mirror_copies="false"
       split_items="false"
       link_styles="false" />
    <inkscape:path-effect
       effect="copy_rotate"
       starting_point="95.249996,76.199997"
       origin="76.199997,76.199997"
       id="path-effect7"
       is_visible="true"
       lpeversion="1.2"
       lpesatellites=""
       method="normal"
       num_copies="72"
       starting_angle="0"
       rotation_angle="5"
       gap="-0.01"
       copies_to_360="true"
       mirror_copies="false"
       split_items="false"
       link_styles="false" />
    <inkscape:path-effect
       effect="copy_rotate"
       starting_point="77.199997,76.199997"
       origin="76.199997,76.199997"
       id="path-effect4"
       is_visible="true"
       lpeversion="1.2"
       lpesatellites=""
       method="normal"
       num_copies="6"
       starting_angle="0"
       rotation_angle="60"
       gap="-0.01"
       copies_to_360="true"
       mirror_copies="false"
       split_items="false"
       link_styles="false" />
    <inkscape:path-effect
       effect="copy_rotate"
       starting_point="77.199997,76.199997"
       origin="76.199997,76.199997"
       id="path-effect4-7"
       is_visible="true"
       lpeversion="1.2"
       lpesatellites=""
       method="normal"
       num_copies="6"
       starting_angle="0"
       rotation_angle="20"
       gap="-0.01"
       copies_to_360="true"
       mirror_copies="false"
       split_items="false"
       link_styles="false" />
    <inkscape:path-effect
       effect="copy_rotate"
       starting_point="77.199997,76.199997"
       origin="76.199997,76.199997"
       id="path-effect4-7-2"
       is_visible="true"
       lpeversion="1.2"
       lpesatellites=""
       method="normal"
       num_copies="12"
       starting_angle="0"
       rotation_angle="10"
       gap="-0.01"
       copies_to_360="true"
       mirror_copies="false"
       split_items="false"
       link_styles="false" />
    <inkscape:path-effect
       effect="copy_rotate"
       starting_point="77.199997,76.199997"
       origin="76.199997,76.199997"
       id="path-effect4-7-2-0"
       is_visible="true"
       lpeversion="1.2"
       lpesatellites=""
       method="normal"
       num_copies="60"
       starting_angle="0"
       rotation_angle="2.5"
       gap="-0.01"
       copies_to_360="true"
       mirror_copies="false"
       split_items="false"
       link_styles="false" />
  </defs>
  <g
     inkscape:groupmode="layer"
     id="layer2"
     inkscape:label="Alignment Circles"
     style="display:none"
     sodipodi:insensitive="true">
    <path
       style="fill:#ffffff;stroke:#e6e6e6;stroke-width:0.79375;stroke-linecap:square;stroke-dasharray:none;paint-order:markers fill stroke"
       id="path12"
       inkscape:path-effect="#path-effect12"
       sodipodi:type="arc"
       sodipodi:cx="76.199997"
       sodipodi:cy="13.096874"
       sodipodi:rx="4.7624998"
       sodipodi:ry="4.7624998"
       d="m 80.962497,13.096874 c 0,2.630256 -2.132244,4.7625 -4.7625,4.7625 -2.630256,0 -4.7625,-2.132244 -4.7625,-4.7625 0,-2.630256 2.132244,-4.7624996 4.7625,-4.7624996 2.630256,0 4.7625,2.1322436 4.7625,4.7624996 z"
       transform="translate(3.0517578e-6,1.1906258)" />
    <path
       style="fill:none;stroke:#e6e6e6;stroke-width:1.05833;stroke-linecap:square;stroke-dasharray:none;paint-order:markers fill stroke"
       id="path5"
       inkscape:transform-center-y="-54.768747"
       inkscape:path-effect="#path-effect35"
       sodipodi:type="arc"
       sodipodi:cx="76.199997"
       sodipodi:cy="21.43125"
       sodipodi:rx="9.5249996"
       sodipodi:ry="9.5249996"
       d="m 85.724997,21.43125 c 0,5.260512 -4.264488,9.524999 -9.525,9.524999 -5.260512,0 -9.525,-4.264487 -9.525,-9.524999 0,-5.260512 4.264488,-9.525 9.525,-9.525 5.260512,0 9.525,4.264488 9.525,9.525 z" />
    <path
       style="fill:none;stroke:#e6e6e6;stroke-width:1.05833;stroke-linecap:square;stroke-dasharray:none;paint-order:markers fill stroke"
       id="path36"
       d="m 85.724997,21.43125 c 0,5.260512 -4.264488,9.524999 -9.525,9.524999 -5.260512,0 -9.525,-4.264487 -9.525,-9.524999 0,-5.260512 4.264488,-9.525 9.525,-9.525 5.260512,0 9.525,4.264488 9.525,9.525 z"
       transform="rotate(-60,76.199997,76.199997)" />
    <path
       style="fill:none;stroke:#e6e6e6;stroke-width:1.05833;stroke-linecap:square;stroke-dasharray:none;paint-order:markers fill stroke"
       id="path37"
       d="m 85.724997,21.43125 c 0,5.260512 -4.264488,9.524999 -9.525,9.524999 -5.260512,0 -9.525,-4.264487 -9.525,-9.524999 0,-5.260512 4.264488,-9.525 9.525,-9.525 5.260512,0 9.525,4.264488 9.525,9.525 z"
       transform="rotate(-120,76.199997,76.199997)" />
    <path
       style="fill:none;stroke:#e6e6e6;stroke-width:1.05833;stroke-linecap:square;stroke-dasharray:none;paint-order:markers fill stroke"
       id="path38"
       d="m 85.724997,21.43125 c 0,5.260512 -4.264488,9.524999 -9.525,9.524999 -5.260512,0 -9.525,-4.264487 -9.525,-9.524999 0,-5.260512 4.264488,-9.525 9.525,-9.525 5.260512,0 9.525,4.264488 9.525,9.525 z"
       transform="rotate(180,76.199997,76.199997)" />
    <path
       style="fill:none;stroke:#e6e6e6;stroke-width:1.05833;stroke-linecap:square;stroke-dasharray:none;paint-order:markers fill stroke"
       id="path39"
       d="m 85.724997,21.43125 c 0,5.260512 -4.264488,9.524999 -9.525,9.524999 -5.260512,0 -9.525,-4.264487 -9.525,-9.524999 0,-5.260512 4.264488,-9.525 9.525,-9.525 5.260512,0 9.525,4.264488 9.525,9.525 z"
       transform="rotate(120,76.199997,76.199997)" />
    <path
       style="fill:none;stroke:#e6e6e6;stroke-width:1.05833;stroke-linecap:square;stroke-dasharray:none;paint-order:markers fill stroke"
       id="path40"
       d="m 85.724997,21.43125 c 0,5.260512 -4.264488,9.524999 -9.525,9.524999 -5.260512,0 -9.525,-4.264487 -9.525,-9.524999 0,-5.260512 4.264488,-9.525 9.525,-9.525 5.260512,0 9.525,4.264488 9.525,9.525 z"
       transform="rotate(60,76.199997,76.199997)" />
    <path
       style="display:inline;fill:none;stroke:#e6e6e6;stroke-width:1.05833;stroke-linecap:square;stroke-dasharray:none;paint-order:markers fill stroke"
       id="rotated-0-path-effect35"
       d="m 85.724997,21.43125 c 0,5.260512 -4.264488,9.524999 -9.525,9.524999 -5.260512,0 -9.525,-4.264487 -9.525,-9.524999 0,-5.260512 4.264488,-9.525 9.525,-9.525 5.260512,0 9.525,4.264488 9.525,9.525 z"
       transform="rotate(-60,76.199997,76.199997)" />
    <path
       style="display:inline;fill:none;stroke:#e6e6e6;stroke-width:1.05833;stroke-linecap:square;stroke-dasharray:none;paint-order:markers fill stroke"
       id="rotated-1-path-effect35"
       d="m 85.724997,21.43125 c 0,5.260512 -4.264488,9.524999 -9.525,9.524999 -5.260512,0 -9.525,-4.264487 -9.525,-9.524999 0,-5.260512 4.264488,-9.525 9.525,-9.525 5.260512,0 9.525,4.264488 9.525,9.525 z"
       transform="rotate(-120,76.199997,76.199997)" />
    <path
       style="display:inline;fill:none;stroke:#e6e6e6;stroke-width:1.05833;stroke-linecap:square;stroke-dasharray:none;paint-order:markers fill stroke"
       id="rotated-2-path-effect35"
       d="m 85.724997,21.43125 c 0,5.260512 -4.264488,9.524999 -9.525,9.524999 -5.260512,0 -9.525,-4.264487 -9.525,-9.524999 0,-5.260512 4.264488,-9.525 9.525,-9.525 5.260512,0 9.525,4.264488 9.525,9.525 z"
       transform="rotate(180,76.199997,76.199997)" />
    <path
       style="display:inline;fill:none;stroke:#e6e6e6;stroke-width:1.05833;stroke-linecap:square;stroke-dasharray:none;paint-order:markers fill stroke"
       id="rotated-3-path-effect35"
       d="m 85.724997,21.43125 c 0,5.260512 -4.264488,9.524999 -9.525,9.524999 -5.260512,0 -9.525,-4.264487 -9.525,-9.524999 0,-5.260512 4.264488,-9.525 9.525,-9.525 5.260512,0 9.525,4.264488 9.525,9.525 z"
       transform="rotate(120,76.199997,76.199997)" />
    <path
       style="display:inline;fill:none;stroke:#e6e6e6;stroke-width:1.05833;stroke-linecap:square;stroke-dasharray:none;paint-order:markers fill stroke"
       id="rotated-4-path-effect35"
       d="m 85.724997,21.43125 c 0,5.260512 -4.264488,9.524999 -9.525,9.524999 -5.260512,0 -9.525,-4.264487 -9.525,-9.524999 0,-5.260512 4.264488,-9.525 9.525,-9.525 5.260512,0 9.525,4.264488 9.525,9.525 z"
       transform="rotate(60,76.199997,76.199997)" />
    <path
       transform="rotate(-30,78.421737,75.604681)"
       style="display:inline;fill:#ffffff;stroke:#e6e6e6;stroke-width:0.79375;stroke-linecap:square;stroke-dasharray:none;paint-order:markers fill stroke"
       id="rotated-0-path-effect12"
       d="m 80.962497,13.096874 c 0,2.630256 -2.132244,4.7625 -4.7625,4.7625 -2.630256,0 -4.7625,-2.132244 -4.7625,-4.7625 0,-2.630256 2.132244,-4.7624996 4.7625,-4.7624996 2.630256,0 4.7625,2.1322436 4.7625,4.7624996 z" />
    <path
       transform="rotate(-60,77.231111,75.604684)"
       style="display:inline;fill:#ffffff;stroke:#e6e6e6;stroke-width:0.79375;stroke-linecap:square;stroke-dasharray:none;paint-order:markers fill stroke"
       id="rotated-1-path-effect12"
       d="m 80.962497,13.096874 c 0,2.630256 -2.132244,4.7625 -4.7625,4.7625 -2.630256,0 -4.7625,-2.132244 -4.7625,-4.7625 0,-2.630256 2.132244,-4.7624996 4.7625,-4.7624996 2.630256,0 4.7625,2.1322436 4.7625,4.7624996 z" />
    <path
       transform="rotate(-90,76.795311,75.604685)"
       style="display:inline;fill:#ffffff;stroke:#e6e6e6;stroke-width:0.79375;stroke-linecap:square;stroke-dasharray:none;paint-order:markers fill stroke"
       id="rotated-2-path-effect12"
       d="m 80.962497,13.096874 c 0,2.630256 -2.132244,4.7625 -4.7625,4.7625 -2.630256,0 -4.7625,-2.132244 -4.7625,-4.7625 0,-2.630256 2.132244,-4.7624996 4.7625,-4.7624996 2.630256,0 4.7625,2.1322436 4.7625,4.7624996 z" />
    <path
       transform="rotate(-120,76.543703,75.604686)"
       style="display:inline;fill:#ffffff;stroke:#e6e6e6;stroke-width:0.79375;stroke-linecap:square;stroke-dasharray:none;paint-order:markers fill stroke"
       id="rotated-3-path-effect12"
       d="m 80.962497,13.096874 c 0,2.630256 -2.132244,4.7625 -4.7625,4.7625 -2.630256,0 -4.7625,-2.132244 -4.7625,-4.7625 0,-2.630256 2.132244,-4.7624996 4.7625,-4.7624996 2.630256,0 4.7625,2.1322436 4.7625,4.7624996 z" />
    <path
       transform="rotate(-150,76.359512,75.604686)"
       style="display:inline;fill:#ffffff;stroke:#e6e6e6;stroke-width:0.79375;stroke-linecap:square;stroke-dasharray:none;paint-order:markers fill stroke"
       id="rotated-4-path-effect12"
       d="m 80.962497,13.096874 c 0,2.630256 -2.132244,4.7625 -4.7625,4.7625 -2.630256,0 -4.7625,-2.132244 -4.7625,-4.7625 0,-2.630256 2.132244,-4.7624996 4.7625,-4.7624996 2.630256,0 4.7625,2.1322436 4.7625,4.7624996 z" />
    <path
       transform="rotate(180,76.199999,75.604687)"
       style="display:inline;fill:#ffffff;stroke:#e6e6e6;stroke-width:0.79375;stroke-linecap:square;stroke-dasharray:none;paint-order:markers fill stroke"
       id="rotated-5-path-effect12"
       d="m 80.962497,13.096874 c 0,2.630256 -2.132244,4.7625 -4.7625,4.7625 -2.630256,0 -4.7625,-2.132244 -4.7625,-4.7625 0,-2.630256 2.132244,-4.7624996 4.7625,-4.7624996 2.630256,0 4.7625,2.1322436 4.7625,4.7624996 z" />
    <path
       transform="rotate(150,76.040485,75.604687)"
       style="display:inline;fill:#ffffff;stroke:#e6e6e6;stroke-width:0.79375;stroke-linecap:square;stroke-dasharray:none;paint-order:markers fill stroke"
       id="rotated-6-path-effect12"
       d="m 80.962497,13.096874 c 0,2.630256 -2.132244,4.7625 -4.7625,4.7625 -2.630256,0 -4.7625,-2.132244 -4.7625,-4.7625 0,-2.630256 2.132244,-4.7624996 4.7625,-4.7624996 2.630256,0 4.7625,2.1322436 4.7625,4.7624996 z" />
    <path
       transform="rotate(120,75.856294,75.604688)"
       style="display:inline;fill:#ffffff;stroke:#e6e6e6;stroke-width:0.79375;stroke-linecap:square;stroke-dasharray:none;paint-order:markers fill stroke"
       id="rotated-7-path-effect12"
       d="m 80.962497,13.096874 c 0,2.630256 -2.132244,4.7625 -4.7625,4.7625 -2.630256,0 -4.7625,-2.132244 -4.7625,-4.7625 0,-2.630256 2.132244,-4.7624996 4.7625,-4.7624996 2.630256,0 4.7625,2.1322436 4.7625,4.7624996 z" />
    <path
       transform="rotate(90,75.604686,75.604688)"
       style="display:inline;fill:#ffffff;stroke:#e6e6e6;stroke-width:0.79375;stroke-linecap:square;stroke-dasharray:none;paint-order:markers fill stroke"
       id="rotated-8-path-effect12"
       d="m 80.962497,13.096874 c 0,2.630256 -2.132244,4.7625 -4.7625,4.7625 -2.630256,0 -4.7625,-2.132244 -4.7625,-4.7625 0,-2.630256 2.132244,-4.7624996 4.7625,-4.7624996 2.630256,0 4.7625,2.1322436 4.7625,4.7624996 z" />
    <path
       transform="rotate(60,75.168886,75.60469)"
       style="display:inline;fill:#ffffff;stroke:#e6e6e6;stroke-width:0.79375;stroke-linecap:square;stroke-dasharray:none;paint-order:markers fill stroke"
       id="rotated-9-path-effect12"
       d="m 80.962497,13.096874 c 0,2.630256 -2.132244,4.7625 -4.7625,4.7625 -2.630256,0 -4.7625,-2.132244 -4.7625,-4.7625 0,-2.630256 2.132244,-4.7624996 4.7625,-4.7624996 2.630256,0 4.7625,2.1322436 4.7625,4.7624996 z" />
    <path
       transform="rotate(30,73.978261,75.604693)"
       style="display:inline;fill:#ffffff;stroke:#e6e6e6;stroke-width:0.79375;stroke-linecap:square;stroke-dasharray:none;paint-order:markers fill stroke"
       id="rotated-10-path-effect12"
       d="m 80.962497,13.096874 c 0,2.630256 -2.132244,4.7625 -4.7625,4.7625 -2.630256,0 -4.7625,-2.132244 -4.7625,-4.7625 0,-2.630256 2.132244,-4.7624996 4.7625,-4.7624996 2.630256,0 4.7625,2.1322436 4.7625,4.7624996 z" />
  </g>
  <g
     inkscape:label="Layer 1"
     inkscape:groupmode="layer"
     id="layer1">
    <circle
       style="fill:none;stroke:#000000;stroke-width:1.05833;stroke-linecap:square;stroke-dasharray:none;paint-order:markers fill stroke"
       id="path1"
       cx="76.199997"
       cy="76.199997"
       r="76.199997" />
    <circle
       style="fill:none;stroke:#000000;stroke-width:0.529167;stroke-linecap:square;stroke-dasharray:none;paint-order:markers fill stroke"
       id="path2"
       cx="76.199997"
       cy="76.199997"
       r="71.4375" />
    <circle
       style="fill:none;stroke:#000000;stroke-width:1.05833;stroke-linecap:square;stroke-dasharray:none;paint-order:markers fill stroke"
       id="path3"
       cx="76.199997"
       cy="76.199997"
       r="69.056252" />
    <path
       style="fill:none;stroke:#000000;stroke-width:1.05833;stroke-linecap:butt;stroke-linejoin:miter;stroke-dasharray:none;stroke-opacity:1"
       d="m 76.199996,0 10e-7,11.90625 M 10.208863,38.099999 20.519979,44.053123 M 10.208864,114.3 20.519979,108.34687 m 55.680019,44.05312 -10e-7,-11.90625 m 65.991133,-26.19375 -10.31111,-5.95312 m 10.31111,-70.246872 -10.31111,5.953125"
       id="path4"
       inkscape:path-effect="#path-effect4"
       inkscape:original-d="m 76.199996,0 10e-7,11.90625"
       sodipodi:nodetypes="cc" />
    <path
       style="fill:none;stroke:#000000;stroke-width:0.529167;stroke-linecap:butt;stroke-linejoin:miter;stroke-dasharray:none;stroke-opacity:1"
       d="m 76.199996,0 v 9.5249996 m -65.991133,28.5749994 8.248892,4.7625 M 10.208864,114.3 l 8.248892,-4.7625 m 57.742242,42.86249 v -9.525 m 65.991132,-28.575 -8.24889,-4.7625 m 8.24889,-71.437492 -8.24889,4.762499"
       id="path4-3"
       inkscape:path-effect="#path-effect4-7"
       inkscape:original-d="M 76.199996,0 V 9.5249996"
       sodipodi:nodetypes="cc" />
    <path
       style="fill:none;stroke:#000000;stroke-width:1.05833;stroke-linecap:butt;stroke-linejoin:miter;stroke-miterlimit:4;stroke-dasharray:none;stroke-opacity:1"
       d="m 76.199996,0 4e-6,9.525 m -38.100002,0.683864 4.762503,8.24889 m -32.653638,19.642245 8.248894,4.762497 M 0,76.199998 l 9.525,-4e-6 M 10.208864,114.3 l 8.24889,-4.76251 m 19.642245,32.65364 4.762497,-8.24889 m 33.337502,18.45775 -4e-6,-9.525 M 114.3,142.19113 l -4.76251,-8.24889 m 32.65364,-19.64225 -8.24889,-4.76249 m 18.45775,-33.337504 -9.525,4e-6 m -0.68386,-38.100002 -8.24889,4.762503 m -19.64225,-32.653638 -4.76249,8.248894"
       id="path4-3-1"
       sodipodi:nodetypes="cc"
       inkscape:original-d="M 76.199996,0 76.2,9.525"
       inkscape:path-effect="#path-effect4-7-2" />
    <path
       style="fill:none;stroke:#000000;stroke-width:0.529167;stroke-linecap:butt;stroke-linejoin:miter;stroke-dasharray:none;stroke-opacity:1"
       d="M 76.199996,0 V 4.7625001 M 68.234927,0.41743166 68.732744,5.1538423 M 60.357126,1.665153 61.347305,6.323581 m -8.694403,-2.5940874 1.471693,4.5294068 m -8.91793,-1.6710641 1.937083,4.3507607 m -9.04375,-0.729733 2.38125,4.124446 m -9.070486,0.219595 2.799327,3.852944 m -8.997843,1.166515 3.186735,3.539228 m -8.826618,2.100656 3.539227,3.186734 m -8.558686,3.011781 3.852943,2.799328 m -8.196984,3.889908 4.124446,2.38125 m -7.7454735,4.725418 4.3507605,1.937083 m -7.209103,5.509154 4.5294068,1.471693 m -6.5937472,6.232531 4.658428,0.990179 M 0.41743145,68.234929 5.1538421,68.732746 M 0,76.199998 H 4.7625001 M 0.41743166,84.165067 5.1538423,83.66725 M 1.665153,92.042868 6.323581,91.052689 m -2.5940874,8.694403 4.5294068,-1.471693 m -1.6710641,8.917931 4.3507607,-1.93708 M 10.208864,114.3 14.33331,111.91875 m 0.219595,9.07048 3.852944,-2.79933 m 1.166515,8.99785 3.539228,-3.18674 m 2.100656,8.82662 3.186734,-3.53923 m 3.011781,8.55869 2.799328,-3.85294 m 3.889908,8.19698 2.38125,-4.12445 m 4.725418,7.74548 1.937083,-4.35076 m 5.509154,7.2091 1.471693,-4.52941 m 6.232531,6.59375 0.990179,-4.65843 m 6.887622,5.90615 0.497817,-4.73641 m 7.467252,5.15384 v -4.7625 m 7.965069,4.34507 -0.497817,-4.73641 m 8.375618,3.48869 -0.990179,-4.65843 m 8.694403,2.59409 -1.471693,-4.52941 m 8.917931,1.67107 -1.93708,-4.35076 m 9.04375,0.72973 -2.38125,-4.12445 m 9.07048,-0.21959 -2.79933,-3.85294 m 8.99785,-1.16652 -3.18674,-3.53923 m 8.82662,-2.10065 -3.53923,-3.18674 m 8.55869,-3.01178 -3.85294,-2.79933 m 8.19698,-3.88991 -4.12445,-2.38125 m 7.74548,-4.72541 -4.35076,-1.93709 m 7.2091,-5.50915 -4.52941,-1.471693 m 6.59375,-6.232531 -4.65843,-0.990179 m 5.90615,-6.887622 -4.73641,-0.497817 m 5.15384,-7.467252 h -4.7625 m 4.34507,-7.965069 -4.73641,0.497817 m 3.48869,-8.375618 -4.65843,0.990179 m 2.59409,-8.694403 -4.52941,1.471693 m 1.67107,-8.91793 -4.35076,1.937083 m 0.72973,-9.04375 -4.12445,2.38125 m -0.21959,-9.070486 -3.85294,2.799327 m -1.16652,-8.997843 -3.53923,3.186735 m -2.10065,-8.826618 -3.18674,3.539227 m -3.01178,-8.558686 -2.79933,3.852943 m -3.88991,-8.196984 -2.38125,4.124446 m -4.72541,-7.7454735 -1.93709,4.3507605 M 99.74709,3.729493 98.275397,8.2588998 M 92.042866,1.6651526 91.052687,6.3235806 M 84.165065,0.41743145 83.667248,5.1538421"
       id="path4-3-1-3"
       sodipodi:nodetypes="cc"
       inkscape:original-d="M 76.199996,0 V 4.7625001"
       inkscape:path-effect="#path-effect4-7-2-0" />
    <text
       xml:space="preserve"
       style="font-style:normal;font-variant:normal;font-weight:bold;font-stretch:normal;font-size:14.8167px;line-height:1.25;font-family:'Noto Sans';-inkscape-font-specification:'Noto Sans, Bold';font-variant-ligatures:normal;font-variant-caps:normal;font-variant-numeric:normal;font-variant-east-asian:normal;text-align:center;letter-spacing:0px;word-spacing:0px;writing-mode:lr-tb;text-anchor:middle;stroke-width:0.264583"
       x="76.214806"
       y="26.72822"
       id="dial_label_0"
       inkscape:transform-center-x="-0.067748057"
       inkscape:transform-center-y="-56.271569"><tspan
         sodipodi:role="line"
         id="tspan4"
         style="font-style:normal;font-variant:normal;font-weight:bold;font-stretch:normal;font-size:14.8167px;font-family:'Noto Sans';-inkscape-font-specification:'Noto Sans, Bold';font-variant-ligatures:normal;font-variant-caps:normal;font-variant-numeric:normal;font-variant-east-asian:normal;stroke-width:0.264583"
         x="76.214806"
         y="26.72822">60</tspan></text>
    <text
       xml:space="preserve"
       style="font-style:normal;font-variant:normal;font-weight:bold;font-stretch:normal;font-size:14.8167px;line-height:1.25;font-family:'Noto Sans';-inkscape-font-specification:'Noto Sans, Bold';font-variant-ligatures:normal;font-variant-caps:normal;font-variant-numeric:normal;font-variant-east-asian:normal;text-align:end;letter-spacing:0px;word-spacing:0px;writing-mode:lr-tb;text-anchor:end;stroke-width:0.264583"
       x="131.94327"
       y="54.112595"
       id="dial_label_1"
       inkscape:transform-center-x="-0.067748057"
       inkscape:transform-center-y="-56.271569"><tspan
         sodipodi:role="line"
         id="tspan4-6"
         style="font-style:normal;font-variant:normal;font-weight:bold;font-stretch:normal;font-size:14.8167px;font-family:'Noto Sans';-inkscape-font-specification:'Noto Sans, Bold';font-variant-ligatures:normal;font-variant-caps:normal;font-variant-numeric:normal;font-variant-east-asian:normal;text-align:end;text-anchor:end;stroke-width:0.264583"
         x="131.94327"
         y="54.112595">10</tspan></text>
    <text
       xml:space="preserve"
       style="font-style:normal;font-variant:normal;font-weight:bold;font-stretch:normal;font-size:14.8167px;line-height:1.25;font-family:'Noto Sans';-inkscape-font-specification:'Noto Sans, Bold';font-variant-ligatures:normal;font-variant-caps:normal;font-variant-numeric:normal;font-variant-east-asian:normal;text-align:end;letter-spacing:0px;word-spacing:0px;writing-mode:lr-tb;text-anchor:end;stroke-width:0.264583"
       x="132.09883"
       y="108.88134"
       id="dial_label_2"
       inkscape:transform-center-x="-0.067748057"
       inkscape:transform-center-y="-56.271569"><tspan
         sodipodi:role="line"
         id="tspan4-6-1"
         style="font-style:normal;font-variant:normal;font-weight:bold;font-stretch:normal;font-size:14.8167px;font-family:'Noto Sans';-inkscape-font-specification:'Noto Sans, Bold';font-variant-ligatures:normal;font-variant-caps:normal;font-variant-numeric:normal;font-variant-east-asian:normal;text-align:end;text-anchor:end;stroke-width:0.264583"
         x="132.09883"
         y="108.88134">20</tspan></text>
    <text
       xml:space="preserve"
       style="font-style:normal;font-variant:normal;font-weight:bold;font-stretch:normal;font-size:14.8167px;line-height:1.25;font-family:'Noto Sans';-inkscape-font-specification:'Noto Sans, Bold';font-variant-ligatures:normal;font-variant-caps:normal;font-variant-numeric:normal;font-variant-east-asian:normal;text-align:start;letter-spacing:0px;word-spacing:0px;writing-mode:lr-tb;text-anchor:start;stroke-width:0.264583"
       x="20.204828"
       y="54.112595"
       id="dial_label_5"
       inkscape:transform-center-x="-0.067748057"
       inkscape:transform-center-y="-56.271569"><tspan
         sodipodi:role="line"
         id="tspan4-6-7"
         style="font-style:normal;font-variant:normal;font-weight:bold;font-stretch:normal;font-size:14.8167px;font-family:'Noto Sans';-inkscape-font-specification:'Noto Sans, Bold';font-variant-ligatures:normal;font-variant-caps:normal;font-variant-numeric:normal;font-variant-east-asian:normal;text-align:start;text-anchor:start;stroke-width:0.264583"
         x="20.204828"
         y="54.112595">50</tspan></text>
    <text
       xml:space="preserve"
       style="font-style:normal;font-variant:normal;font-weight:bold;font-stretch:normal;font-size:14.8167px;line-height:1.25;font-family:'Noto Sans';-inkscape-font-specification:'Noto Sans, Bold';font-variant-ligatures:normal;font-variant-caps:normal;font-variant-numeric:normal;font-variant-east-asian:normal;text-align:start;letter-spacing:0px;word-spacing:0px;writing-mode:lr-tb;text-anchor:start;stroke-width:0.264583"
       x="20.441895"
       y="108.88134"
       id="dial_label_4"
       inkscape:transform-center-x="-0.067748057"
       inkscape:transform-center-y="-56.271569"><tspan
         sodipodi:role="line"
         id="tspan4-6-1-5"
         style="font-style:normal;font-variant:normal;font-weight:bold;font-stretch:normal;font-size:14.8167px;font-family:'Noto Sans';-inkscape-font-specification:'Noto Sans, Bold';font-variant-ligatures:normal;font-variant-caps:normal;font-variant-numeric:normal;font-variant-east-asian:normal;text-align:start;text-anchor:start;stroke-width:0.264583"
         x="20.441895"
         y="108.88134">40</tspan></text>
    <text
       xml:space="preserve"
       style="font-style:normal;font-variant:normal;font-weight:bold;font-stretch:normal;font-size:14.8167px;line-height:1.25;font-family:'Noto Sans';-inkscape-font-specification:'Noto Sans, Bold';font-variant-ligatures:normal;font-variant-caps:normal;font-variant-numeric:normal;font-variant-east-asian:normal;text-align:center;letter-spacing:0px;word-spacing:0px;writing-mode:lr-tb;text-anchor:middle;stroke-width:0.264583"
       x="76.192581"
       y="136.26572"
       id="dial_label_3"
       inkscape:transform-center-x="-0.067748057"
       inkscape:transform-center-y="-56.271569"><tspan
         sodipodi:role="line"
         id="tspan4-6-1-6"
         style="font-style:normal;font-variant:normal;font-weight:bold;font-stretch:normal;font-size:14.8167px;font-family:'Noto Sans';-inkscape-font-specification:'Noto Sans, Bold';font-variant-ligatures:normal;font-variant-caps:normal;font-variant-numeric:normal;font-variant-east-asian:normal;stroke-width:0.264583"
         x="76.192581"
         y="136.26572">30</tspan></text>
    <text
       xml:space="preserve"
       style="font-style:normal;font-variant:normal;font-weight:bold;font-stretch:normal;font-size:9.525px;line-height:1.25;font-family:'Noto Sans';-inkscape-font-specification:'Noto Sans, Bold';font-variant-ligatures:normal;font-variant-caps:normal;font-variant-numeric:normal;font-variant-east-asian:normal;text-align:end;letter-spacing:0px;word-spacing:0px;writing-mode:lr-tb;text-anchor:end;stroke-width:0.264583"
       x="110.33283"
       y="25.982626"
       id="text4-04-2"
       inkscape:transform-center-x="-0.067748057"
       inkscape:transform-center-y="-56.271569"><tspan
         sodipodi:role="line"
         id="tspan4-8-7"
         style="font-style:normal;font-variant:normal;font-weight:bold;font-stretch:normal;font-size:9.525px;font-family:'Noto Sans';-inkscape-font-specification:'Noto Sans, Bold';font-variant-ligatures:normal;font-variant-caps:normal;font-variant-numeric:normal;font-variant-east-asian:normal;text-align:end;text-anchor:end;stroke-width:0.264583"
         x="110.33283"
         y="25.982626">5</tspan></text>
    <text
       xml:space="preserve"
       style="font-style:normal;font-variant:normal;font-weight:bold;font-stretch:normal;font-size:9.525px;line-height:1.25;font-family:'Noto Sans';-inkscape-font-specification:'Noto Sans, Bold';font-variant-ligatures:normal;font-variant-caps:normal;font-variant-numeric:normal;font-variant-east-asian:normal;text-align:end;letter-spacing:0px;word-spacing:0px;writing-mode:lr-tb;text-anchor:end;stroke-width:0.264583"
       x="141.28909"
       y="79.600426"
       id="text4-04-2-9"
       inkscape:transform-center-x="-0.067748057"
       inkscape:transform-center-y="-56.271569"><tspan
         sodipodi:role="line"
         id="tspan4-8-7-6"
         style="font-style:normal;font-variant:normal;font-weight:bold;font-stretch:normal;font-size:9.525px;font-family:'Noto Sans';-inkscape-font-specification:'Noto Sans, Bold';font-variant-ligatures:normal;font-variant-caps:normal;font-variant-numeric:normal;font-variant-east-asian:normal;text-align:end;text-anchor:end;stroke-width:0.264583"
         x="141.28909"
         y="79.600426">15</tspan></text>
    <text
       xml:space="preserve"
       style="font-style:normal;font-variant:normal;font-weight:bold;font-stretch:normal;font-size:9.525px;line-height:1.25;font-family:'Noto Sans';-inkscape-font-specification:'Noto Sans, Bold';font-variant-ligatures:normal;font-variant-caps:normal;font-variant-numeric:normal;font-variant-east-asian:normal;text-align:end;letter-spacing:0px;word-spacing:0px;writing-mode:lr-tb;text-anchor:end;stroke-width:0.264583"
       x="110.33283"
       y="133.21822"
       id="text4-04-2-8"
       inkscape:transform-center-x="-0.067748057"
       inkscape:transform-center-y="-56.271569"><tspan
         sodipodi:role="line"
         id="tspan4-8-7-5"
         style="font-style:normal;font-variant:normal;font-weight:bold;font-stretch:normal;font-size:9.525px;font-family:'Noto Sans';-inkscape-font-specification:'Noto Sans, Bold';font-variant-ligatures:normal;font-variant-caps:normal;font-variant-numeric:normal;font-variant-east-asian:normal;text-align:end;text-anchor:end;stroke-width:0.264583"
         x="110.33283"
         y="133.21822">25</tspan></text>
    <text
       xml:space="preserve"
       style="font-style:normal;font-variant:normal;font-weight:bold;font-stretch:normal;font-size:9.525px;line-height:1.25;font-family:'Noto Sans';-inkscape-font-specification:'Noto Sans, Bold';font-variant-ligatures:normal;font-variant-caps:normal;font-variant-numeric:normal;font-variant-east-asian:normal;text-align:start;letter-spacing:0px;word-spacing:0px;writing-mode:lr-tb;text-anchor:start;stroke-width:0.264583"
       x="42.067162"
       y="133.21822"
       id="text4-04-2-18"
       inkscape:transform-center-x="-0.067748057"
       inkscape:transform-center-y="-56.271569"><tspan
         sodipodi:role="line"
         id="tspan4-8-7-9"
         style="font-style:normal;font-variant:normal;font-weight:bold;font-stretch:normal;font-size:9.525px;font-family:'Noto Sans';-inkscape-font-specification:'Noto Sans, Bold';font-variant-ligatures:normal;font-variant-caps:normal;font-variant-numeric:normal;font-variant-east-asian:normal;text-align:start;text-anchor:start;stroke-width:0.264583"
         x="42.067162"
         y="133.21822">35</tspan></text>
    <text
       xml:space="preserve"
       style="font-style:normal;font-variant:normal;font-weight:bold;font-stretch:normal;font-size:9.525px;line-height:1.25;font-family:'Noto Sans';-inkscape-font-specification:'Noto Sans, Bold';font-variant-ligatures:normal;font-variant-caps:normal;font-variant-numeric:normal;font-variant-east-asian:normal;text-align:start;letter-spacing:0px;word-spacing:0px;writing-mode:lr-tb;text-anchor:start;stroke-width:0.264583"
       x="11.110913"
       y="79.600426"
       id="text4-04-2-4"
       inkscape:transform-center-x="-0.067748057"
       inkscape:transform-center-y="-56.271569"><tspan
         sodipodi:role="line"
         id="tspan4-8-7-8"
         style="font-style:normal;font-variant:normal;font-weight:bold;font-stretch:normal;font-size:9.525px;font-family:'Noto Sans';-inkscape-font-specification:'Noto Sans, Bold';font-variant-ligatures:normal;font-variant-caps:normal;font-variant-numeric:normal;font-variant-east-asian:normal;text-align:start;text-anchor:start;stroke-width:0.264583"
         x="11.110913"
         y="79.600426">45</tspan></text>
    <text
       xml:space="preserve"
       style="font-style:normal;font-variant:normal;font-weight:bold;font-stretch:normal;font-size:9.525px;line-height:1.25;font-family:'Noto Sans';-inkscape-font-specification:'Noto Sans, Bold';font-variant-ligatures:normal;font-variant-caps:normal;font-variant-numeric:normal;font-variant-east-asian:normal;text-align:start;letter-spacing:0px;word-spacing:0px;writing-mode:lr-tb;text-anchor:start;stroke-width:0.264583"
       x="42.067162"
       y="25.982628"
       id="text4-04-2-0"
       inkscape:transform-center-x="-0.067748057"
       inkscape:transform-center-y="-56.271569"><tspan
         sodipodi:role="line"
         id="tspan4-8-7-3"
         style="font-style:normal;font-variant:normal;font-weight:bold;font-stretch:normal;font-size:9.525px;font-family:'Noto Sans';-inkscape-font-specification:'Noto Sans, Bold';font-variant-ligatures:normal;font-variant-caps:normal;font-variant-numeric:normal;font-variant-east-asian:normal;text-align:start;text-anchor:start;stroke-width:0.264583"
         x="42.067162"
         y="25.982628">55</tspan></text>
    <path
       style="fill:none;stroke:#000000;stroke-width:0.79375;stroke-linecap:butt;stroke-linejoin:miter;stroke-dasharray:none;stroke-opacity:1"
       d="m 76.199996,73.818746 v 4.7625"
       id="path41" />
    <path
       style="fill:none;stroke:#000000;stroke-width:0.79375;stroke-linecap:butt;stroke-linejoin:miter;stroke-dasharray:none;stroke-opacity:1"
       d="m 78.581246,76.199996 h -4.7625"
       id="path42" />
  </g>
</svg>
