<?xml version="1.0" encoding="UTF-8" standalone="no"?>
<!-- Created with Inkscape (http://www.inkscape.org/) -->

<svg
   width="1376.64"
   height="576"
   viewBox="0 0 364.236 152.4"
   version="1.1"
   id="svg1"
   inkscape:version="1.3.2 (091e20e, 2023-11-25)"
   sodipodi:docname="field-square-02-2.39:1.svg"
   xmlns:inkscape="http://www.inkscape.org/namespaces/inkscape"
   xmlns:sodipodi="http://sodipodi.sourceforge.net/DTD/sodipodi-0.dtd"
   xmlns="http://www.w3.org/2000/svg"
   xmlns:svg="http://www.w3.org/2000/svg">
  <sodipodi:namedview
     id="namedview1"
     pagecolor="#ffffff"
     bordercolor="#666666"
     borderopacity="1.0"
     inkscape:showpageshadow="2"
     inkscape:pageopacity="0.0"
     inkscape:pagecheckerboard="0"
     inkscape:deskcolor="#d1d1d1"
     inkscape:document-units="mm"
     showgrid="true"
     inkscape:current-layer="layer1"
     showguides="true">
    <inkscape:grid
       id="grid1"
       units="px"
       originx="0"
       originy="0"
       spacingx="18.2118"
       spacingy="7.62"
       empcolor="#3f3fff"
       empopacity="0.25098039"
       color="#3f3fff"
       opacity="0.1254902"
       empspacing="5"
       dotted="false"
       gridanglex="30"
       gridanglez="30"
       visible="true" />
    <sodipodi:guide
       position="22.86,160.02"
       orientation="1,0"
       id="guide3"
       inkscape:locked="false" />
    <sodipodi:guide
       position="0,160.02"
       orientation="1,0"
       id="guide4"
       inkscape:locked="false" />
    <sodipodi:guide
       position="371.85599,22.86001"
       orientation="0,-1"
       id="guide5"
       inkscape:locked="false" />
    <sodipodi:guide
       position="371.85599,9.9999999e-06"
       orientation="0,-1"
       id="guide6"
       inkscape:locked="false" />
    <sodipodi:guide
       position="11.43,160.02"
       orientation="1,0"
       id="guide1"
       inkscape:locked="false" />
    <sodipodi:guide
       position="371.85599,11.43001"
       orientation="0,-1"
       id="guide7"
       inkscape:locked="false" />
  </sodipodi:namedview>
  <defs
     id="defs1">
    <inkscape:path-effect
       effect="ruler"
       id="path-effect1"
       is_visible="true"
       lpeversion="1"
       unit="px"
       mark_distance="13.7664"
       mark_length="28.8"
       minor_mark_length="14.4"
       major_mark_steps="10"
       shift="0"
       offset="0"
       mark_dir="left"
       border_marks="both" />
    <inkscape:path-effect
       effect="ruler"
       id="path-effect1-7"
       is_visible="true"
       lpeversion="1"
       unit="px"
       mark_distance="5.76"
       mark_length="28.8"
       minor_mark_length="14.4"
       major_mark_steps="10"
       shift="0"
       offset="0"
       mark_dir="left"
       border_marks="both" />
    <inkscape:path-effect
       effect="ruler"
       id="path-effect1-75"
       is_visible="true"
       lpeversion="1"
       unit="px"
       mark_distance="13.7664"
       mark_length="21.6"
       minor_mark_length="0"
       major_mark_steps="5"
       shift="0"
       offset="0"
       mark_dir="left"
       border_marks="both" />
    <inkscape:path-effect
       effect="ruler"
       id="path-effect1-7-9"
       is_visible="true"
       lpeversion="1"
       unit="px"
       mark_distance="5.76"
       mark_length="21.6"
       minor_mark_length="0"
       major_mark_steps="5"
       shift="0"
       offset="0"
       mark_dir="left"
       border_marks="both" />
  </defs>
  <g
     inkscape:label="Layer 1"
     inkscape:groupmode="layer"
     id="layer1">
    <path
       style="fill:none;fill-rule:evenodd;stroke:#000000;stroke-width:0.529167;stroke-dasharray:none"
       d="M 27.093335,152.4 H 354.90573 m -327.812395,0 v -7.62 m 3.64236,7.62 v -3.81 m 3.64236,3.81 v -3.81 m 3.64236,3.81 v -3.81 m 3.64236,3.81 v -3.81 m 3.64236,3.81 v -3.81 m 3.64236,3.81 v -3.81 m 3.64236,3.81 v -3.81 m 3.64236,3.81 v -3.81 m 3.64236,3.81 v -3.81 m 3.64236,3.81 v -7.62 m 3.64236,7.62 v -3.81 m 3.64236,3.81 v -3.81 m 3.64236,3.81 v -3.81 m 3.64236,3.81 v -3.81 m 3.64236,3.81 v -3.81 m 3.64236,3.81 v -3.81 m 3.64236,3.81 v -3.81 m 3.64236,3.81 v -3.81 m 3.64236,3.81 v -3.81 m 3.64236,3.81 v -7.62 m 3.642355,7.62 v -3.81 m 3.64236,3.81 v -3.81 m 3.64236,3.81 v -3.81 m 3.64236,3.81 v -3.81 m 3.64236,3.81 v -3.81 m 3.64236,3.81 v -3.81 m 3.64236,3.81 v -3.81 m 3.64236,3.81 v -3.81 m 3.64236,3.81 v -3.81 m 3.64236,3.81 v -7.62 m 3.64236,7.62 v -3.81 m 3.64236,3.81 v -3.81 m 3.64236,3.81 v -3.81 m 3.64236,3.81 v -3.81 m 3.64236,3.81 v -3.81 m 3.64236,3.81 v -3.81 m 3.64236,3.81 v -3.81 m 3.64236,3.81 v -3.81 m 3.64236,3.81 v -3.81 m 3.64236,3.81 v -7.62 m 3.64236,7.62 v -3.81 m 3.64236,3.81 v -3.81 m 3.64236,3.81 v -3.81 m 3.64236,3.81 v -3.81 m 3.64236,3.81 v -3.81 m 3.64236,3.81 v -3.81 m 3.64236,3.81 v -3.81 m 3.64236,3.81 v -3.81 m 3.64236,3.81 v -3.81 m 3.64236,3.81 v -7.62 m 3.64236,7.62 v -3.81 m 3.64236,3.81 v -3.81 m 3.64236,3.81 v -3.81 m 3.64236,3.81 v -3.81 m 3.64236,3.81 v -3.81 m 3.64236,3.81 v -3.81 m 3.64236,3.81 v -3.81 m 3.64236,3.81 v -3.81 m 3.64236,3.81 v -3.81 m 3.64236,3.81 v -7.62 m 3.64236,7.62 v -3.81 m 3.64236,3.81 v -3.81 m 3.64236,3.81 v -3.81 m 3.64236,3.81 v -3.81 m 3.64236,3.81 v -3.81 m 3.64236,3.81 v -3.81 m 3.64236,3.81 v -3.81 m 3.64236,3.81 v -3.81 m 3.64236,3.81 v -3.81 m 3.64236,3.81 v -7.62 m 3.64236,7.62 v -3.81 m 3.64236,3.81 v -3.81 m 3.64236,3.81 v -3.81 m 3.64236,3.81 v -3.81 m 3.64236,3.81 v -3.81 m 3.64236,3.81 v -3.81 m 3.64236,3.81 v -3.81 m 3.64236,3.81 v -3.81 m 3.64236,3.81 v -3.81 m 3.64236,3.81 v -7.62 m 3.64236,7.62 v -3.81 m 3.64236,3.81 v -3.81 m 3.64236,3.81 v -3.81 m 3.64236,3.81 v -3.81 m 3.64236,3.81 v -3.81 m 3.64236,3.81 v -3.81 m 3.64236,3.81 v -3.81 m 3.64236,3.81 v -3.81 m 3.64236,3.81 v -3.81 m 3.64236,3.81 v -7.62"
       id="path1"
       inkscape:path-effect="#path-effect1"
       inkscape:original-d="m 27.093335,152.4 327.812395,0"
       sodipodi:nodetypes="cc"
       transform="translate(9.3302646)" />
    <path
       style="fill:none;fill-rule:evenodd;stroke:#000000;stroke-width:0.529167;stroke-dasharray:none"
       d="M 27.093335,152.4 H 354.90574 m -327.812405,0 v -5.715 m 3.64236,5.715 z m 3.64236,0 z m 3.64236,0 z m 3.64236,0 z m 3.64236,0 v -5.715 m 3.64236,5.715 z m 3.64236,0 z m 3.64236,0 z m 3.64236,0 z m 3.64236,0 v -5.715 m 3.64236,5.715 z m 3.64236,0 z m 3.64236,0 z m 3.64236,0 z m 3.64236,0 v -5.715 m 3.64236,5.715 z m 3.64236,0 z m 3.64236,0 z m 3.64236,0 z m 3.64236,0 v -5.715 m 3.642355,5.715 z m 3.64236,0 z m 3.64236,0 z m 3.64236,0 z m 3.64236,0 v -5.715 m 3.64236,5.715 z m 3.64236,0 z m 3.64236,0 z m 3.64236,0 z m 3.64236,0 v -5.715 m 3.64236,5.715 z m 3.64236,0 z m 3.64236,0 z m 3.64236,0 z m 3.64236,0 v -5.715 m 3.64236,5.715 z m 3.64236,0 z m 3.64236,0 z m 3.64236,0 z m 3.64236,0 v -5.715 m 3.64236,5.715 z m 3.64236,0 z m 3.64236,0 z m 3.64236,0 z m 3.64236,0 v -5.715 m 3.64236,5.715 z m 3.64236,0 z m 3.64236,0 z m 3.64236,0 z m 3.64236,0 v -5.715 m 3.64236,5.715 z m 3.64236,0 z m 3.64236,0 z m 3.64236,0 z m 3.64236,0 v -5.715 m 3.64236,5.715 z m 3.64236,0 z m 3.64236,0 z m 3.64236,0 z m 3.64236,0 v -5.715 m 3.64236,5.715 z m 3.64236,0 z m 3.64236,0 z m 3.64236,0 z m 3.64236,0 v -5.715 m 3.64236,5.715 z m 3.64236,0 z m 3.64236,0 z m 3.64236,0 z m 3.64236,0 v -5.715 m 3.64236,5.715 z m 3.64236,0 z m 3.64236,0 z m 3.64236,0 z m 3.64236,0 v -5.715 m 3.64236,5.715 z m 3.64236,0 z m 3.64236,0 z m 3.64236,0 z m 3.64236,0 v -5.715 m 3.64236,5.715 z m 3.64236,0 z m 3.64236,0 z m 3.64236,0 z m 3.64236,0 v -5.715 m 3.64236,5.715 z m 3.64236,0 z m 3.64236,0 z m 3.64236,0 z m 3.64236,0 v -5.715 m 10e-6,5.715 v -5.715"
       id="path1-5"
       inkscape:path-effect="#path-effect1-75"
       inkscape:original-d="m 27.093335,152.4 327.812405,0"
       sodipodi:nodetypes="cc"
       transform="translate(9.3302646)" />
    <path
       style="fill:none;fill-rule:evenodd;stroke:#000000;stroke-width:0.529167;stroke-dasharray:none"
       d="m -43.349336,102.87 v 137.16 m 0,-137.16 h 7.62 m -7.62,1.524 h 3.81 m -3.81,1.524 h 3.81 m -3.81,1.524 h 3.81 m -3.81,1.524 h 3.81 m -3.81,1.524 h 3.81 m -3.81,1.524 h 3.81 m -3.81,1.524 h 3.81 m -3.81,1.524 h 3.81 m -3.81,1.524 h 3.81 m -3.81,1.524 h 7.62 m -7.62,1.524 h 3.81 m -3.81,1.524 h 3.81 m -3.81,1.524 h 3.81 m -3.81,1.524 h 3.81 m -3.81,1.524 h 3.81 m -3.81,1.524 h 3.81 m -3.81,1.524 h 3.81 m -3.81,1.524 h 3.81 m -3.81,1.524 h 3.81 m -3.81,1.524 h 7.62 m -7.62,1.524 h 3.81 m -3.81,1.524 h 3.81 m -3.81,1.524 h 3.81 m -3.81,1.524 h 3.81 m -3.81,1.524 h 3.81 m -3.81,1.524 h 3.81 m -3.81,1.524 h 3.81 m -3.81,1.524 h 3.81 m -3.81,1.524 h 3.81 m -3.81,1.524 h 7.62 m -7.62,1.524 h 3.81 m -3.81,1.524 h 3.81 m -3.81,1.524 h 3.81 m -3.81,1.524 h 3.81 m -3.81,1.524 h 3.81 m -3.81,1.524 h 3.81 m -3.81,1.524 h 3.81 m -3.81,1.524 h 3.81 m -3.81,1.524 h 3.81 m -3.81,1.524 h 7.62 m -7.62,1.524 h 3.81 m -3.81,1.524 h 3.81 m -3.81,1.524 h 3.81 m -3.81,1.524 h 3.81 m -3.81,1.524 h 3.81 m -3.81,1.524 h 3.81 m -3.81,1.524 h 3.81 m -3.81,1.524 h 3.81 m -3.81,1.524 h 3.81 m -3.81,1.524 h 7.62 m -7.62,1.524 h 3.81 m -3.81,1.524 h 3.81 m -3.81,1.524 h 3.81 m -3.81,1.524 h 3.81 m -3.81,1.524 h 3.81 m -3.81,1.524 h 3.81 m -3.81,1.524 h 3.81 m -3.81,1.524 h 3.81 m -3.81,1.524 h 3.81 m -3.81,1.524 h 7.62 m -7.62,1.524 h 3.81 m -3.81,1.524 h 3.81 m -3.81,1.524 h 3.81 m -3.81,1.524 h 3.81 m -3.81,1.524 h 3.81 m -3.81,1.524 h 3.81 m -3.81,1.524 h 3.81 m -3.81,1.524 h 3.81 m -3.81,1.524 h 3.81 m -3.81,1.524 h 7.62 m -7.62,1.524 h 3.81 m -3.81,1.524 h 3.81 m -3.81,1.524 h 3.81 m -3.81,1.524 h 3.81 m -3.81,1.524 h 3.81 m -3.81,1.524 h 3.81 m -3.81,1.524 h 3.81 m -3.81,1.524 h 3.81 m -3.81,1.524 h 3.81 m -3.81,1.524 h 7.62 m -7.62,1.524 h 3.81 m -3.81,1.524 h 3.81 m -3.81,1.524 h 3.81 m -3.81,1.524 h 3.81 m -3.81,1.524 h 3.81 m -3.81,1.524 h 3.81 m -3.81,1.524 h 3.81 m -3.81,1.524 h 3.81 m -3.81,1.524 h 3.81 m -3.81,1.524 h 7.62"
       id="path1-3"
       inkscape:path-effect="#path-effect1-7"
       inkscape:original-d="M -43.349336,102.87 V 240.03"
       transform="translate(43.349336,-102.87)"
       sodipodi:nodetypes="cc" />
    <path
       style="fill:none;fill-rule:evenodd;stroke:#000000;stroke-width:0.529167;stroke-dasharray:none"
       d="m -43.349336,102.87 v 137.16 m 0,-137.16 h 5.715 m -5.715,1.524 z m 0,1.524 z m 0,1.524 z m 0,1.524 z m 0,1.524 h 5.715 m -5.715,1.524 z m 0,1.524 z m 0,1.524 z m 0,1.524 z m 0,1.524 h 5.715 m -5.715,1.524 z m 0,1.524 z m 0,1.524 z m 0,1.524 z m 0,1.524 h 5.715 m -5.715,1.524 z m 0,1.524 z m 0,1.524 z m 0,1.524 z m 0,1.524 h 5.715 m -5.715,1.524 z m 0,1.524 z m 0,1.524 z m 0,1.524 z m 0,1.524 h 5.715 m -5.715,1.524 z m 0,1.524 z m 0,1.524 z m 0,1.524 z m 0,1.524 h 5.715 m -5.715,1.524 z m 0,1.524 z m 0,1.524 z m 0,1.524 z m 0,1.524 h 5.715 m -5.715,1.524 z m 0,1.524 z m 0,1.524 z m 0,1.524 z m 0,1.524 h 5.715 m -5.715,1.524 z m 0,1.524 z m 0,1.524 z m 0,1.524 z m 0,1.524 h 5.715 m -5.715,1.524 z m 0,1.524 z m 0,1.524 z m 0,1.524 z m 0,1.524 h 5.715 m -5.715,1.524 z m 0,1.524 z m 0,1.524 z m 0,1.524 z m 0,1.524 h 5.715 m -5.715,1.524 z m 0,1.524 z m 0,1.524 z m 0,1.524 z m 0,1.524 h 5.715 m -5.715,1.524 z m 0,1.524 z m 0,1.524 z m 0,1.524 z m 0,1.524 h 5.715 m -5.715,1.524 z m 0,1.524 z m 0,1.524 z m 0,1.524 z m 0,1.524 h 5.715 m -5.715,1.524 z m 0,1.524 z m 0,1.524 z m 0,1.524 z m 0,1.524 h 5.715 m -5.715,1.524 z m 0,1.524 z m 0,1.524 z m 0,1.524 z m 0,1.524 h 5.715 m -5.715,1.524 z m 0,1.524 z m 0,1.524 z m 0,1.524 z m 0,1.524 h 5.715 m -5.715,1.524 z m 0,1.524 z m 0,1.524 z m 0,1.524 z m 0,1.524 h 5.715"
       id="path1-3-2"
       inkscape:path-effect="#path-effect1-7-9"
       inkscape:original-d="M -43.349336,102.87 V 240.03"
       transform="translate(43.349336,-102.87)"
       sodipodi:nodetypes="cc" />
    <path
       style="fill:none;fill-rule:evenodd;stroke:#000000;stroke-width:0.529167;stroke-dasharray:none"
       d="m 371.85599,152.39999 0,-22.86 L 22.86,129.54 V -7.6199999 H 0 V 152.4 Z"
       id="path2"
       sodipodi:nodetypes="ccccccc" />
    <text
       xml:space="preserve"
       style="font-style:normal;font-variant:normal;font-weight:bold;font-stretch:normal;font-size:4.7625px;line-height:1;font-family:'Noto Sans';-inkscape-font-specification:'Noto Sans, Bold';font-variant-ligatures:none;font-variant-caps:normal;font-variant-numeric:normal;font-variant-east-asian:normal;text-align:center;letter-spacing:0px;word-spacing:0px;text-anchor:middle;stroke:none;stroke-width:0.79375;stroke-dasharray:none;paint-order:stroke fill markers"
       x="-0.021431969"
       y="-9.7274065"
       id="text1-5-0"
       transform="rotate(90)"><tspan
         sodipodi:role="line"
         id="tspan1-25-6"
         style="font-style:normal;font-variant:normal;font-weight:bold;font-stretch:normal;font-size:4.7625px;font-family:'Noto Sans';-inkscape-font-specification:'Noto Sans, Bold';font-variant-ligatures:none;font-variant-caps:normal;font-variant-numeric:normal;font-variant-east-asian:normal;text-align:center;text-anchor:middle;stroke:none;stroke-width:0.79375;stroke-dasharray:none;paint-order:stroke fill markers"
         x="-0.021432111"
         y="-9.7274065">100F</tspan></text>
    <text
       xml:space="preserve"
       style="font-style:normal;font-variant:normal;font-weight:bold;font-stretch:normal;font-size:4.7625px;line-height:1;font-family:'Noto Sans';-inkscape-font-specification:'Noto Sans, Bold';font-variant-ligatures:none;font-variant-caps:normal;font-variant-numeric:normal;font-variant-east-asian:normal;text-align:center;letter-spacing:0px;word-spacing:0px;text-anchor:middle;stroke:none;stroke-width:0.79375;stroke-dasharray:none;paint-order:stroke fill markers"
       x="15.282862"
       y="-9.7274065"
       id="text1-5"
       transform="rotate(90)"><tspan
         sodipodi:role="line"
         id="tspan1-25"
         style="font-style:normal;font-variant:normal;font-weight:bold;font-stretch:normal;font-size:4.7625px;font-family:'Noto Sans';-inkscape-font-specification:'Noto Sans, Bold';font-variant-ligatures:none;font-variant-caps:normal;font-variant-numeric:normal;font-variant-east-asian:normal;text-align:center;text-anchor:middle;stroke:none;stroke-width:0.79375;stroke-dasharray:none;paint-order:stroke fill markers"
         x="15.282862"
         y="-9.7274065">90F</tspan></text>
    <text
       xml:space="preserve"
       style="font-style:normal;font-variant:normal;font-weight:bold;font-stretch:normal;font-size:4.7625px;line-height:1;font-family:'Noto Sans';-inkscape-font-specification:'Noto Sans, Bold';font-variant-ligatures:none;font-variant-caps:normal;font-variant-numeric:normal;font-variant-east-asian:normal;text-align:center;letter-spacing:0px;word-spacing:0px;text-anchor:middle;stroke:none;stroke-width:0.79375;stroke-dasharray:none;paint-order:stroke fill markers"
       x="30.515718"
       y="-9.7274065"
       id="text1-1-47"
       transform="rotate(90)"><tspan
         sodipodi:role="line"
         id="tspan1-2-44"
         style="font-style:normal;font-variant:normal;font-weight:bold;font-stretch:normal;font-size:4.7625px;font-family:'Noto Sans';-inkscape-font-specification:'Noto Sans, Bold';font-variant-ligatures:none;font-variant-caps:normal;font-variant-numeric:normal;font-variant-east-asian:normal;text-align:center;text-anchor:middle;stroke:none;stroke-width:0.79375;stroke-dasharray:none;paint-order:stroke fill markers"
         x="30.515718"
         y="-9.7274065">80F</tspan></text>
    <text
       xml:space="preserve"
       style="font-style:normal;font-variant:normal;font-weight:bold;font-stretch:normal;font-size:4.7625px;line-height:1;font-family:'Noto Sans';-inkscape-font-specification:'Noto Sans, Bold';font-variant-ligatures:none;font-variant-caps:normal;font-variant-numeric:normal;font-variant-east-asian:normal;text-align:center;letter-spacing:0px;word-spacing:0px;text-anchor:middle;stroke:none;stroke-width:0.79375;stroke-dasharray:none;paint-order:stroke fill markers"
       x="45.774769"
       y="-9.7274065"
       id="text1-1-9-30"
       transform="rotate(90)"><tspan
         sodipodi:role="line"
         id="tspan1-2-4-7"
         style="font-style:normal;font-variant:normal;font-weight:bold;font-stretch:normal;font-size:4.7625px;font-family:'Noto Sans';-inkscape-font-specification:'Noto Sans, Bold';font-variant-ligatures:none;font-variant-caps:normal;font-variant-numeric:normal;font-variant-east-asian:normal;text-align:center;text-anchor:middle;stroke:none;stroke-width:0.79375;stroke-dasharray:none;paint-order:stroke fill markers"
         x="45.774769"
         y="-9.7274065">70F</tspan></text>
    <text
       xml:space="preserve"
       style="font-style:normal;font-variant:normal;font-weight:bold;font-stretch:normal;font-size:4.7625px;line-height:1;font-family:'Noto Sans';-inkscape-font-specification:'Noto Sans, Bold';font-variant-ligatures:none;font-variant-caps:normal;font-variant-numeric:normal;font-variant-east-asian:normal;text-align:center;letter-spacing:0px;word-spacing:0px;text-anchor:middle;stroke:none;stroke-width:0.79375;stroke-dasharray:none;paint-order:stroke fill markers"
       x="60.995716"
       y="-9.7274065"
       id="text1-1-9-5-8"
       transform="rotate(90)"><tspan
         sodipodi:role="line"
         id="tspan1-2-4-0-68"
         style="font-style:normal;font-variant:normal;font-weight:bold;font-stretch:normal;font-size:4.7625px;font-family:'Noto Sans';-inkscape-font-specification:'Noto Sans, Bold';font-variant-ligatures:none;font-variant-caps:normal;font-variant-numeric:normal;font-variant-east-asian:normal;text-align:center;text-anchor:middle;stroke:none;stroke-width:0.79375;stroke-dasharray:none;paint-order:stroke fill markers"
         x="60.995716"
         y="-9.7274065">60F</tspan></text>
    <text
       xml:space="preserve"
       style="font-style:normal;font-variant:normal;font-weight:bold;font-stretch:normal;font-size:4.7625px;line-height:1;font-family:'Noto Sans';-inkscape-font-specification:'Noto Sans, Bold';font-variant-ligatures:none;font-variant-caps:normal;font-variant-numeric:normal;font-variant-east-asian:normal;text-align:center;letter-spacing:0px;word-spacing:0px;text-anchor:middle;stroke:none;stroke-width:0.79375;stroke-dasharray:none;paint-order:stroke fill markers"
       x="76.202377"
       y="-9.7274065"
       id="text1-1-0-8"
       transform="rotate(90)"><tspan
         sodipodi:role="line"
         id="tspan1-2-6-4"
         style="font-style:normal;font-variant:normal;font-weight:bold;font-stretch:normal;font-size:4.7625px;font-family:'Noto Sans';-inkscape-font-specification:'Noto Sans, Bold';font-variant-ligatures:none;font-variant-caps:normal;font-variant-numeric:normal;font-variant-east-asian:normal;text-align:center;text-anchor:middle;stroke:none;stroke-width:0.79375;stroke-dasharray:none;paint-order:stroke fill markers"
         x="76.202377"
         y="-9.7274065">50F</tspan></text>
    <text
       xml:space="preserve"
       style="font-style:normal;font-variant:normal;font-weight:bold;font-stretch:normal;font-size:4.7625px;line-height:1;font-family:'Noto Sans';-inkscape-font-specification:'Noto Sans, Bold';font-variant-ligatures:none;font-variant-caps:normal;font-variant-numeric:normal;font-variant-east-asian:normal;text-align:center;letter-spacing:0px;word-spacing:0px;text-anchor:middle;stroke:none;stroke-width:0.79375;stroke-dasharray:none;paint-order:stroke fill markers"
       x="91.518578"
       y="-9.7274065"
       id="text1-1-9-3-3"
       transform="rotate(90)"><tspan
         sodipodi:role="line"
         id="tspan1-2-4-2-1"
         style="font-style:normal;font-variant:normal;font-weight:bold;font-stretch:normal;font-size:4.7625px;font-family:'Noto Sans';-inkscape-font-specification:'Noto Sans, Bold';font-variant-ligatures:none;font-variant-caps:normal;font-variant-numeric:normal;font-variant-east-asian:normal;text-align:center;text-anchor:middle;stroke:none;stroke-width:0.79375;stroke-dasharray:none;paint-order:stroke fill markers"
         x="91.518578"
         y="-9.7274065">40F</tspan></text>
    <text
       xml:space="preserve"
       style="font-style:normal;font-variant:normal;font-weight:bold;font-stretch:normal;font-size:4.7625px;line-height:1;font-family:'Noto Sans';-inkscape-font-specification:'Noto Sans, Bold';font-variant-ligatures:none;font-variant-caps:normal;font-variant-numeric:normal;font-variant-east-asian:normal;text-align:center;letter-spacing:0px;word-spacing:0px;text-anchor:middle;stroke:none;stroke-width:0.79375;stroke-dasharray:none;paint-order:stroke fill markers"
       x="106.70857"
       y="-9.7274065"
       id="text1-1-9-5-0-4"
       transform="rotate(90)"><tspan
         sodipodi:role="line"
         id="tspan1-2-4-0-6-9"
         style="font-style:normal;font-variant:normal;font-weight:bold;font-stretch:normal;font-size:4.7625px;font-family:'Noto Sans';-inkscape-font-specification:'Noto Sans, Bold';font-variant-ligatures:none;font-variant-caps:normal;font-variant-numeric:normal;font-variant-east-asian:normal;text-align:center;text-anchor:middle;stroke:none;stroke-width:0.79375;stroke-dasharray:none;paint-order:stroke fill markers"
         x="106.70857"
         y="-9.7274065">30F</tspan></text>
    <text
       xml:space="preserve"
       style="font-style:normal;font-variant:normal;font-weight:bold;font-stretch:normal;font-size:4.7625px;line-height:1;font-family:'Noto Sans';-inkscape-font-specification:'Noto Sans, Bold';font-variant-ligatures:none;font-variant-caps:normal;font-variant-numeric:normal;font-variant-east-asian:normal;text-align:center;letter-spacing:0px;word-spacing:0px;text-anchor:middle;stroke:none;stroke-width:0.79375;stroke-dasharray:none;paint-order:stroke fill markers"
       x="121.94857"
       y="-9.7274065"
       id="text1-1-4-2"
       transform="rotate(90)"><tspan
         sodipodi:role="line"
         id="tspan1-2-7-0"
         style="font-style:normal;font-variant:normal;font-weight:bold;font-stretch:normal;font-size:4.7625px;font-family:'Noto Sans';-inkscape-font-specification:'Noto Sans, Bold';font-variant-ligatures:none;font-variant-caps:normal;font-variant-numeric:normal;font-variant-east-asian:normal;text-align:center;text-anchor:middle;stroke:none;stroke-width:0.79375;stroke-dasharray:none;paint-order:stroke fill markers"
         x="121.94857"
         y="-9.7274065">20F</tspan></text>
    <text
       xml:space="preserve"
       style="font-style:normal;font-variant:normal;font-weight:bold;font-stretch:normal;font-size:4.7625px;line-height:1;font-family:'Noto Sans';-inkscape-font-specification:'Noto Sans, Bold';font-variant-ligatures:none;font-variant-caps:normal;font-variant-numeric:normal;font-variant-east-asian:normal;text-align:center;letter-spacing:0px;word-spacing:0px;text-anchor:middle;stroke:none;stroke-width:0.79375;stroke-dasharray:none;paint-order:stroke fill markers"
       x="137.13857"
       y="-9.7274065"
       id="text1-1-9-6-6"
       transform="rotate(90)"><tspan
         sodipodi:role="line"
         id="tspan1-2-4-5-8"
         style="font-style:normal;font-variant:normal;font-weight:bold;font-stretch:normal;font-size:4.7625px;font-family:'Noto Sans';-inkscape-font-specification:'Noto Sans, Bold';font-variant-ligatures:none;font-variant-caps:normal;font-variant-numeric:normal;font-variant-east-asian:normal;text-align:center;text-anchor:middle;stroke:none;stroke-width:0.79375;stroke-dasharray:none;paint-order:stroke fill markers"
         x="137.13857"
         y="-9.7274065">10F</tspan></text>
    <text
       xml:space="preserve"
       style="font-style:normal;font-variant:normal;font-weight:bold;font-stretch:normal;font-size:4.7625px;line-height:1;font-family:'Noto Sans';-inkscape-font-specification:'Noto Sans, Bold';font-variant-ligatures:none;font-variant-caps:normal;font-variant-numeric:normal;font-variant-east-asian:normal;text-align:center;letter-spacing:0px;word-spacing:0px;text-anchor:middle;stroke:none;stroke-width:0.79375;stroke-dasharray:none;paint-order:stroke fill markers"
       x="36.402168"
       y="142.67258"
       id="text1-1-9-6"><tspan
         sodipodi:role="line"
         id="tspan1-2-4-5"
         style="font-style:normal;font-variant:normal;font-weight:bold;font-stretch:normal;font-size:4.7625px;font-family:'Noto Sans';-inkscape-font-specification:'Noto Sans, Bold';font-variant-ligatures:none;font-variant-caps:normal;font-variant-numeric:normal;font-variant-east-asian:normal;text-align:center;text-anchor:middle;stroke:none;stroke-width:0.79375;stroke-dasharray:none;paint-order:stroke fill markers"
         x="36.402168"
         y="142.67258">10F</tspan></text>
    <text
       xml:space="preserve"
       style="font-style:normal;font-variant:normal;font-weight:bold;font-stretch:normal;font-size:4.7625px;line-height:1;font-family:'Noto Sans';-inkscape-font-specification:'Noto Sans, Bold';font-variant-ligatures:none;font-variant-caps:normal;font-variant-numeric:normal;font-variant-east-asian:normal;text-align:center;letter-spacing:0px;word-spacing:0px;text-anchor:middle;stroke:none;stroke-width:0.79375;stroke-dasharray:none;paint-order:stroke fill markers"
       x="72.875771"
       y="142.67258"
       id="text1-1-4"><tspan
         sodipodi:role="line"
         id="tspan1-2-7"
         style="font-style:normal;font-variant:normal;font-weight:bold;font-stretch:normal;font-size:4.7625px;font-family:'Noto Sans';-inkscape-font-specification:'Noto Sans, Bold';font-variant-ligatures:none;font-variant-caps:normal;font-variant-numeric:normal;font-variant-east-asian:normal;text-align:center;text-anchor:middle;stroke:none;stroke-width:0.79375;stroke-dasharray:none;paint-order:stroke fill markers"
         x="72.875771"
         y="142.67258">20F</tspan></text>
    <text
       xml:space="preserve"
       style="font-style:normal;font-variant:normal;font-weight:bold;font-stretch:normal;font-size:4.7625px;line-height:1;font-family:'Noto Sans';-inkscape-font-specification:'Noto Sans, Bold';font-variant-ligatures:none;font-variant-caps:normal;font-variant-numeric:normal;font-variant-east-asian:normal;text-align:center;letter-spacing:0px;word-spacing:0px;text-anchor:middle;stroke:none;stroke-width:0.79375;stroke-dasharray:none;paint-order:stroke fill markers"
       x="109.29937"
       y="142.67258"
       id="text1-1-9-5-0"><tspan
         sodipodi:role="line"
         id="tspan1-2-4-0-6"
         style="font-style:normal;font-variant:normal;font-weight:bold;font-stretch:normal;font-size:4.7625px;font-family:'Noto Sans';-inkscape-font-specification:'Noto Sans, Bold';font-variant-ligatures:none;font-variant-caps:normal;font-variant-numeric:normal;font-variant-east-asian:normal;text-align:center;text-anchor:middle;stroke:none;stroke-width:0.79375;stroke-dasharray:none;paint-order:stroke fill markers"
         x="109.29937"
         y="142.67258">30F</tspan></text>
    <text
       xml:space="preserve"
       style="font-style:normal;font-variant:normal;font-weight:bold;font-stretch:normal;font-size:4.7625px;line-height:1;font-family:'Noto Sans';-inkscape-font-specification:'Noto Sans, Bold';font-variant-ligatures:none;font-variant-caps:normal;font-variant-numeric:normal;font-variant-east-asian:normal;text-align:center;letter-spacing:0px;word-spacing:0px;text-anchor:middle;stroke:none;stroke-width:0.79375;stroke-dasharray:none;paint-order:stroke fill markers"
       x="145.77298"
       y="142.67258"
       id="text1-1-9-3"><tspan
         sodipodi:role="line"
         id="tspan1-2-4-2"
         style="font-style:normal;font-variant:normal;font-weight:bold;font-stretch:normal;font-size:4.7625px;font-family:'Noto Sans';-inkscape-font-specification:'Noto Sans, Bold';font-variant-ligatures:none;font-variant-caps:normal;font-variant-numeric:normal;font-variant-east-asian:normal;text-align:center;text-anchor:middle;stroke:none;stroke-width:0.79375;stroke-dasharray:none;paint-order:stroke fill markers"
         x="145.77298"
         y="142.67258">40F</tspan></text>
    <text
       xml:space="preserve"
       style="font-style:normal;font-variant:normal;font-weight:bold;font-stretch:normal;font-size:4.7625px;line-height:1;font-family:'Noto Sans';-inkscape-font-specification:'Noto Sans, Bold';font-variant-ligatures:none;font-variant-caps:normal;font-variant-numeric:normal;font-variant-east-asian:normal;text-align:center;letter-spacing:0px;word-spacing:0px;text-anchor:middle;stroke:none;stroke-width:0.79375;stroke-dasharray:none;paint-order:stroke fill markers"
       x="182.12038"
       y="142.67258"
       id="text1-1-0"><tspan
         sodipodi:role="line"
         id="tspan1-2-6"
         style="font-style:normal;font-variant:normal;font-weight:bold;font-stretch:normal;font-size:4.7625px;font-family:'Noto Sans';-inkscape-font-specification:'Noto Sans, Bold';font-variant-ligatures:none;font-variant-caps:normal;font-variant-numeric:normal;font-variant-east-asian:normal;text-align:center;text-anchor:middle;stroke:none;stroke-width:0.79375;stroke-dasharray:none;paint-order:stroke fill markers"
         x="182.12038"
         y="142.67258">50F</tspan></text>
    <text
       xml:space="preserve"
       style="font-style:normal;font-variant:normal;font-weight:bold;font-stretch:normal;font-size:4.7625px;line-height:1;font-family:'Noto Sans';-inkscape-font-specification:'Noto Sans, Bold';font-variant-ligatures:none;font-variant-caps:normal;font-variant-numeric:normal;font-variant-east-asian:normal;text-align:center;letter-spacing:0px;word-spacing:0px;text-anchor:middle;stroke:none;stroke-width:0.79375;stroke-dasharray:none;paint-order:stroke fill markers"
       x="218.57732"
       y="142.67258"
       id="text1-1-9-5"><tspan
         sodipodi:role="line"
         id="tspan1-2-4-0"
         style="font-style:normal;font-variant:normal;font-weight:bold;font-stretch:normal;font-size:4.7625px;font-family:'Noto Sans';-inkscape-font-specification:'Noto Sans, Bold';font-variant-ligatures:none;font-variant-caps:normal;font-variant-numeric:normal;font-variant-east-asian:normal;text-align:center;text-anchor:middle;stroke:none;stroke-width:0.79375;stroke-dasharray:none;paint-order:stroke fill markers"
         x="218.57732"
         y="142.67258">60F</tspan></text>
    <text
       xml:space="preserve"
       style="font-style:normal;font-variant:normal;font-weight:bold;font-stretch:normal;font-size:4.7625px;line-height:1;font-family:'Noto Sans';-inkscape-font-specification:'Noto Sans, Bold';font-variant-ligatures:none;font-variant-caps:normal;font-variant-numeric:normal;font-variant-east-asian:normal;text-align:center;letter-spacing:0px;word-spacing:0px;text-anchor:middle;stroke:none;stroke-width:0.79375;stroke-dasharray:none;paint-order:stroke fill markers"
       x="255.01996"
       y="142.67258"
       id="text1-1-9"><tspan
         sodipodi:role="line"
         id="tspan1-2-4"
         style="font-style:normal;font-variant:normal;font-weight:bold;font-stretch:normal;font-size:4.7625px;font-family:'Noto Sans';-inkscape-font-specification:'Noto Sans, Bold';font-variant-ligatures:none;font-variant-caps:normal;font-variant-numeric:normal;font-variant-east-asian:normal;text-align:center;text-anchor:middle;stroke:none;stroke-width:0.79375;stroke-dasharray:none;paint-order:stroke fill markers"
         x="255.01996"
         y="142.67258">70F</tspan></text>
    <text
       xml:space="preserve"
       style="font-style:normal;font-variant:normal;font-weight:bold;font-stretch:normal;font-size:4.7625px;line-height:1;font-family:'Noto Sans';-inkscape-font-specification:'Noto Sans, Bold';font-variant-ligatures:none;font-variant-caps:normal;font-variant-numeric:normal;font-variant-east-asian:normal;text-align:center;letter-spacing:0px;word-spacing:0px;text-anchor:middle;stroke:none;stroke-width:0.79375;stroke-dasharray:none;paint-order:stroke fill markers"
       x="291.42453"
       y="142.67258"
       id="text1-1"><tspan
         sodipodi:role="line"
         id="tspan1-2"
         style="font-style:normal;font-variant:normal;font-weight:bold;font-stretch:normal;font-size:4.7625px;font-family:'Noto Sans';-inkscape-font-specification:'Noto Sans, Bold';font-variant-ligatures:none;font-variant-caps:normal;font-variant-numeric:normal;font-variant-east-asian:normal;text-align:center;text-anchor:middle;stroke:none;stroke-width:0.79375;stroke-dasharray:none;paint-order:stroke fill markers"
         x="291.42453"
         y="142.67258">80F</tspan></text>
    <text
       xml:space="preserve"
       style="font-style:normal;font-variant:normal;font-weight:bold;font-stretch:normal;font-size:4.7625px;line-height:1;font-family:'Noto Sans';-inkscape-font-specification:'Noto Sans, Bold';font-variant-ligatures:none;font-variant-caps:normal;font-variant-numeric:normal;font-variant-east-asian:normal;text-align:center;letter-spacing:0px;word-spacing:0px;text-anchor:middle;stroke:none;stroke-width:0.79375;stroke-dasharray:none;paint-order:stroke fill markers"
       x="327.85526"
       y="142.67258"
       id="text1"><tspan
         sodipodi:role="line"
         id="tspan1"
         style="font-style:normal;font-variant:normal;font-weight:bold;font-stretch:normal;font-size:4.7625px;font-family:'Noto Sans';-inkscape-font-specification:'Noto Sans, Bold';font-variant-ligatures:none;font-variant-caps:normal;font-variant-numeric:normal;font-variant-east-asian:normal;text-align:center;text-anchor:middle;stroke:none;stroke-width:0.79375;stroke-dasharray:none;paint-order:stroke fill markers"
         x="327.85526"
         y="142.67258">90F</tspan></text>
    <text
       xml:space="preserve"
       style="font-style:normal;font-variant:normal;font-weight:bold;font-stretch:normal;font-size:4.7625px;line-height:1;font-family:'Noto Sans';-inkscape-font-specification:'Noto Sans, Bold';font-variant-ligatures:none;font-variant-caps:normal;font-variant-numeric:normal;font-variant-east-asian:normal;text-align:center;letter-spacing:0px;word-spacing:0px;text-anchor:middle;stroke:none;stroke-width:0.79375;stroke-dasharray:none;paint-order:stroke fill markers"
       x="364.21457"
       y="142.67258"
       id="text1-8"><tspan
         sodipodi:role="line"
         id="tspan1-7"
         style="font-style:normal;font-variant:normal;font-weight:bold;font-stretch:normal;font-size:4.7625px;font-family:'Noto Sans';-inkscape-font-specification:'Noto Sans, Bold';font-variant-ligatures:none;font-variant-caps:normal;font-variant-numeric:normal;font-variant-east-asian:normal;text-align:center;text-anchor:middle;stroke:none;stroke-width:0.79375;stroke-dasharray:none;paint-order:stroke fill markers"
         x="364.21457"
         y="142.67258">100F</tspan></text>
  </g>
</svg>
