<svg width="576" height="576" viewBox="0 0 576 576" xmlns="http://www.w3.org/2000/svg">
    
    <style>
    .primary {
        fill: none;
        stroke-width: 2px;
        stroke: #000000;
    }
    .secondary {
        fill: none;
        stroke-width: 1px;
        stroke: #000000;
        stroke-miterlimit: 4;
        stroke-dasharray: 1, 2;
        stroke-dashoffset: 0;
    }
    </style>

    <g id="ruler">
        <line class="secondary" x1="0" y1="0" x2="0" y2="576" />
        <line class="secondary" x1="288" y1="0" x2="288" y2="576" />
        <line class="secondary" x1="576" y1="0" x2="576" y2="576" />
        <line class="secondary" x1="0" y1="0" x2="576" y2="0" />
        <line class="secondary" x1="0" y1="288" x2="576" y2="288" />
        <line class="secondary" x1="0" y1="576" x2="576" y2="576" />
        <polyline class="primary" points="0.0,576.0 9.0,567.0 18.0,558.0 27.0,549.0 36.0,540.0 45.0,531.0 54.0,522.0 63.0,513.0 72.0,504.0 81.0,495.0 90.0,486.0 99.0,477.0 108.0,468.0 117.0,459.0 126.0,450.0 135.0,441.0 144.0,432.0 153.0,423.0 162.0,414.0 171.0,405.0 180.0,396.0 189.0,387.0 198.0,378.0 207.0,369.0 216.0,360.0 225.0,351.0 234.0,342.0 243.0,333.0 252.0,324.0 261.0,315.0 270.0,306.0 279.0,297.0 288.0,288.0 297.0,279.0 306.0,270.0 315.0,261.0 324.0,252.0 333.0,243.0 342.0,234.0 351.0,225.0 360.0,216.0 369.0,207.0 378.0,198.0 387.0,189.0 396.0,180.0 405.0,171.0 414.0,162.0 423.0,153.0 432.0,144.0 441.0,135.0 450.0,126.0 459.0,117.0 468.0,108.0 477.0,99.0 486.0,90.0 495.0,81.0 504.0,72.0 513.0,63.0 522.0,54.0 531.0,45.0 540.0,36.0 549.0,27.0 558.0,18.0 567.0,9.0 576.0,0.0 " />
    </g>
</svg>
