<svg width="576" height="576" viewBox="0 0 576 576" xmlns="http://www.w3.org/2000/svg">
    
    <style>
    .primary {
        fill: none;
        stroke-width: 2px;
        stroke: #000000;
    }
    .secondary {
        fill: none;
        stroke-width: 1px;
        stroke: #000000;
        stroke-miterlimit: 4;
        stroke-dasharray: 1, 2;
        stroke-dashoffset: 0;
    }
    </style>

    <g id="ruler">
        <line class="secondary" x1="0" y1="0" x2="0" y2="576" />
        <line class="secondary" x1="288" y1="0" x2="288" y2="576" />
        <line class="secondary" x1="576" y1="0" x2="576" y2="576" />
        <line class="secondary" x1="0" y1="0" x2="576" y2="0" />
        <line class="secondary" x1="0" y1="288" x2="576" y2="288" />
        <line class="secondary" x1="0" y1="576" x2="576" y2="576" />
        <polyline class="primary" points="0.0,576.0 9.0,575.58251953125 18.0,574.34765625 27.0,572.32177734375 36.0,569.53125 45.0,566.00244140625 54.0,561.76171875 63.0,556.83544921875 72.0,551.25 81.0,545.03173828125 90.0,538.20703125 99.0,530.80224609375 108.0,522.84375 117.0,514.35791015625 126.0,505.37109375 135.0,495.90966796875 144.0,486.0 153.0,475.66845703125 162.0,464.94140625 171.0,453.84521484375 180.0,442.40625 189.0,430.65087890625 198.0,418.60546875 207.0,406.29638671875 216.0,393.75 225.0,380.99267578125 234.0,368.05078125 243.0,354.95068359375 252.0,341.71875 261.0,328.38134765625 270.0,314.96484375 279.0,301.49560546875 288.0,288.0 297.0,274.50439453125 306.0,261.03515625 315.0,247.61865234375 324.0,234.28125 333.0,221.04931640625 342.0,207.94921875 351.0,195.00732421875 360.0,182.25 369.0,169.70361328125 378.0,157.39453125 387.0,145.34912109375 396.0,133.59375 405.0,122.15478515625 414.0,111.05859375 423.0,100.33154296875 432.0,90.0 441.0,80.09033203125 450.0,70.62890625 459.0,61.64208984375 468.0,53.15625 477.0,45.19775390625 486.0,37.79296875 495.0,30.96826171875 504.0,24.75 513.0,19.16455078125 522.0,14.23828125 531.0,9.99755859375 540.0,6.46875 549.0,3.67822265625 558.0,1.65234375 567.0,0.41748046875 576.0,0.0 " />
    </g>
</svg>
