<?xml version="1.0" encoding="UTF-8" standalone="no"?>
<!-- Created with Inkscape (http://www.inkscape.org/) -->

<svg
   width="768"
   height="576"
   viewBox="0 0 203.19999 152.40001"
   version="1.1"
   id="svg5"
   inkscape:version="1.1.2 (0a00cf5339, 2022-02-04)"
   sodipodi:docname="grid-4:3-crtsafe.svg"
   xmlns:inkscape="http://www.inkscape.org/namespaces/inkscape"
   xmlns:sodipodi="http://sodipodi.sourceforge.net/DTD/sodipodi-0.dtd"
   xmlns="http://www.w3.org/2000/svg"
   xmlns:svg="http://www.w3.org/2000/svg">
  <sodipodi:namedview
     id="namedview7"
     pagecolor="#ffffff"
     bordercolor="#666666"
     borderopacity="1.0"
     inkscape:pageshadow="2"
     inkscape:pageopacity="0.0"
     inkscape:pagecheckerboard="0"
     inkscape:document-units="mm"
     showgrid="true"
     units="px"
     width="1600px"
     inkscape:zoom="0.88194444"
     inkscape:cx="310.11024"
     inkscape:cy="341.29134"
     inkscape:window-width="1680"
     inkscape:window-height="1021"
     inkscape:window-x="0"
     inkscape:window-y="0"
     inkscape:window-maximized="1"
     inkscape:current-layer="layer1"
     inkscape:snap-grids="false">
    <inkscape:grid
       type="xygrid"
       id="grid824"
       spacingx="8.4666667"
       spacingy="8.4666667"
       empspacing="2" />
  </sodipodi:namedview>
  <defs
     id="defs2" />
  <g
     inkscape:label="Layer 1"
     inkscape:groupmode="layer"
     id="layer1">
    <rect
       style="fill:none;stroke:#000000;stroke-width:0.52916698;stroke-linecap:round;stroke-linejoin:miter;stroke-miterlimit:4;stroke-dasharray:none;paint-order:stroke fill markers"
       id="rect848"
       width="203.2"
       height="152.39999"
       x="0"
       y="0" />
    <path
       id="path868-3-7-3"
       style="fill:none;stroke:#000000;stroke-width:0.529167;stroke-linecap:butt;stroke-linejoin:miter;stroke-miterlimit:4;stroke-dasharray:none;stroke-opacity:1"
       d="M 33.90368,129.55859 C 28.911365,128.79466 24.282129,123.51328 23.525451,118.51986 21.539825,105.41643 21.619905,76.2 21.619905,76.2 c 0,0 -0.08008,-29.21643 1.905543,-42.31986 C 24.282126,28.886719 28.911362,23.605342 33.903677,22.841405 55.076353,19.601503 101.6,19.664533 101.6,19.664533 c 0,0 46.52365,-0.06303 67.69632,3.176872 4.99232,0.763937 9.62155,6.045314 10.37823,11.038735 1.98563,13.10343 1.90554,42.31986 1.90554,42.31986 0,0 0.0801,29.21643 -1.90554,42.31986 -0.75668,4.99342 -5.38592,10.2748 -10.37823,11.03873 -21.17268,3.2399 -67.69632,3.17688 -67.69632,3.17688 0,0 -46.523644,0.063 -67.69632,-3.17688 z"
       sodipodi:nodetypes="cscsscsscsscc" />
  </g>
</svg>
