<svg width="256" height="913.92" viewBox="-128 0 256 913.92" xmlns="http://www.w3.org/2000/svg">
    
    <style>
    .primary {
        fill: none;
        stroke-width: 2px;
        stroke: #000000;
    }
    .secondary {
        fill: none;
        stroke-width: 1px;
        stroke: #000000;
        stroke-miterlimit: 4;
        stroke-dasharray: 1, 2;
        stroke-dashoffset: 0;
    }
    </style>

    <g id="hbr">
        <ellipse class="secondary" cx="0" cy="64" rx="64" ry="64" /><line class="secondary" x1="-64" y1="64" x2="64" y2="64" /><line class="secondary" x1="0" y1="0" x2="0" y2="128" /><line class="secondary" x1="32" y1="48" x2="32" y2="80" /><line class="secondary" x1="-32" y1="48" x2="-32" y2="80" /><line class="secondary" x1="-64" y1="145.92" x2="64" y2="145.92" /><line class="secondary" x1="-54.4" y1="316.587" x2="54.4" y2="316.587" /><line class="secondary" x1="-70.4" y1="444.587" x2="70.4" y2="444.587" /><line class="secondary" x1="64" y1="145.92" x2="54.4" y2="316.587" /><line class="secondary" x1="-64" y1="145.92" x2="-54.4" y2="316.587" /><line class="secondary" x1="54.4" y1="316.587" x2="70.4" y2="444.587" /><line class="secondary" x1="-54.4" y1="316.587" x2="-70.4" y2="444.587" /><line class="secondary" x1="0" y1="444.587" x2="0" y2="913.92" /><line class="secondary" x1="0" y1="444.587" x2="-0" y2="913.92" /><line class="secondary" x1="70.4" y1="444.587" x2="38.4" y2="913.92" /><line class="secondary" x1="-70.4" y1="444.587" x2="-38.4" y2="913.92" /><line class="secondary" x1="0" y1="913.92" x2="38.4" y2="913.92" /><line class="secondary" x1="-0" y1="913.92" x2="-38.4" y2="913.92" />
    </g>
</svg>
