<svg width="256" height="652.8" viewBox="-128 0 256 652.8" xmlns="http://www.w3.org/2000/svg">
    
    <style>
    .primary {
        fill: none;
        stroke-width: 2px;
        stroke: #000000;
    }
    .secondary {
        fill: none;
        stroke-width: 1px;
        stroke: #000000;
        stroke-miterlimit: 4;
        stroke-dasharray: 1, 2;
        stroke-dashoffset: 0;
    }
    </style>

    <g id="hbr">
        <ellipse class="secondary" cx="0" cy="64" rx="64" ry="64" /><line class="secondary" x1="-64" y1="64" x2="64" y2="64" /><line class="secondary" x1="0" y1="0" x2="0" y2="128" /><line class="secondary" x1="32" y1="48" x2="32" y2="80" /><line class="secondary" x1="-32" y1="48" x2="-32" y2="80" /><line class="secondary" x1="-57.6" y1="140.8" x2="57.6" y2="140.8" /><line class="secondary" x1="-51.2" y1="268.8" x2="51.2" y2="268.8" /><line class="secondary" x1="-64" y1="364.8" x2="64" y2="364.8" /><line class="secondary" x1="57.6" y1="140.8" x2="51.2" y2="268.8" /><line class="secondary" x1="-57.6" y1="140.8" x2="-51.2" y2="268.8" /><line class="secondary" x1="51.2" y1="268.8" x2="64" y2="364.8" /><line class="secondary" x1="-51.2" y1="268.8" x2="-64" y2="364.8" /><line class="secondary" x1="0" y1="364.8" x2="0" y2="652.8" /><line class="secondary" x1="0" y1="364.8" x2="-0" y2="652.8" /><line class="secondary" x1="64" y1="364.8" x2="38.4" y2="652.8" /><line class="secondary" x1="-64" y1="364.8" x2="-38.4" y2="652.8" /><line class="secondary" x1="0" y1="652.8" x2="38.4" y2="652.8" /><line class="secondary" x1="-0" y1="652.8" x2="-38.4" y2="652.8" />
    </g>
</svg>
