<svg width="576" height="576" viewBox="0 0 576 576" xmlns="http://www.w3.org/2000/svg">
    
    <style>
    .primary {
        fill: none;
        stroke-width: 2px;
        stroke: #000000;
    }
    .secondary {
        fill: none;
        stroke-width: 1px;
        stroke: #000000;
        stroke-miterlimit: 4;
        stroke-dasharray: 1, 2;
        stroke-dashoffset: 0;
    }
    </style>

    <g id="ruler">
        <circle class="secondary" cx="288" cy="288" r="288" />
        <circle class="primary" cx="288" cy="288" r="9" />
        <circle class="primary" cx="288" cy="288" r="22.5" />
        <line class="primary" x1="270" y1="288" x2="306" y2="288" />
        <line class="primary" x1="288" y1="270" x2="288" y2="306" />
        <path class="primary" d="M576.0 288.0 A 288 288 0 0 0 576.0 288.0 A 288 288 0 0 0 537.4153162899183 144.00000000000003 A 288 288 0 0 0 432.0 38.58468371008169 A 288 288 0 0 0 288.0 0.0 A 288 288 0 0 0 144.00000000000006 38.58468371008166 A 288 288 0 0 0 38.58468371008166 144.00000000000003 A 288 288 0 0 0 0.0 287.99999999999994 A 288 288 0 0 0 38.58468371008169 432.0 A 288 288 0 0 0 143.9999999999999 537.4153162899182" /><path class="secondary" d="M336.0 288.0 A 48.0 48.0 0 0 0 336.0 288.0 A 48.0 48.0 0 0 0 329.56921938165306 264.0 A 48.0 48.0 0 0 0 312.0 246.43078061834694 A 48.0 48.0 0 0 0 288.0 240.0 A 48.0 48.0 0 0 0 264.0 246.43078061834694 A 48.0 48.0 0 0 0 246.43078061834694 264.0 A 48.0 48.0 0 0 0 240.0 288.0 A 48.0 48.0 0 0 0 246.43078061834694 312.0 A 48.0 48.0 0 0 0 264.0 329.56921938165306" /><path class="secondary" d="M384.0 288.0 A 96.0 96.0 0 0 0 384.0 288.0 A 96.0 96.0 0 0 0 371.1384387633061 240.0 A 96.0 96.0 0 0 0 336.0 204.8615612366939 A 96.0 96.0 0 0 0 288.0 192.0 A 96.0 96.0 0 0 0 240.00000000000003 204.8615612366939 A 96.0 96.0 0 0 0 204.8615612366939 240.0 A 96.0 96.0 0 0 0 192.0 288.0 A 96.0 96.0 0 0 0 204.8615612366939 336.0 A 96.0 96.0 0 0 0 239.99999999999994 371.1384387633061" /><path class="secondary" d="M432.0 288.0 A 144.0 144.0 0 0 0 432.0 288.0 A 144.0 144.0 0 0 0 412.70765814495917 216.0 A 144.0 144.0 0 0 0 360.0 163.29234185504083 A 144.0 144.0 0 0 0 288.0 144.0 A 144.0 144.0 0 0 0 216.00000000000003 163.29234185504083 A 144.0 144.0 0 0 0 163.29234185504083 216.0 A 144.0 144.0 0 0 0 144.0 288.0 A 144.0 144.0 0 0 0 163.29234185504083 360.0 A 144.0 144.0 0 0 0 215.99999999999994 412.7076581449591" /><path class="secondary" d="M480.0 288.0 A 192.0 192.0 0 0 0 480.0 288.0 A 192.0 192.0 0 0 0 454.2768775266122 192.0 A 192.0 192.0 0 0 0 384.0 121.72312247338778 A 192.0 192.0 0 0 0 288.0 96.0 A 192.0 192.0 0 0 0 192.00000000000006 121.72312247338778 A 192.0 192.0 0 0 0 121.72312247338778 192.0 A 192.0 192.0 0 0 0 96.0 288.0 A 192.0 192.0 0 0 0 121.72312247338778 384.0 A 192.0 192.0 0 0 0 191.99999999999991 454.27687752661217" /><path class="secondary" d="M528.0 288.0 A 240.0 240.0 0 0 0 528.0 288.0 A 240.0 240.0 0 0 0 495.8460969082653 168.0 A 240.0 240.0 0 0 0 408.0 80.15390309173475 A 240.0 240.0 0 0 0 288.0 48.0 A 240.0 240.0 0 0 0 168.00000000000006 80.15390309173472 A 240.0 240.0 0 0 0 80.15390309173472 168.0 A 240.0 240.0 0 0 0 48.0 287.99999999999994 A 240.0 240.0 0 0 0 80.15390309173475 408.0 A 240.0 240.0 0 0 0 167.9999999999999 495.8460969082652" /><line class="primary" x1="310.5" y1="288.0" x2="576.0" y2="288.0" /><line class="primary" x1="310.30750938091074" y1="285.06316067504883" x2="573.5361200756574" y2="250.40845664062516" /><line class="primary" x1="307.48557158514984" y1="276.75" x2="537.4153162899183" y2="144.00000000000003" /><line class="primary" x1="296.61037722821453" y1="267.21271051849607" x2="398.21282852114587" y2="21.92269463674944" /><line class="primary" x1="276.75" y1="268.51442841485016" x2="144.00000000000006" y2="38.58468371008166" /><line class="primary" x1="265.69249061908926" y1="285.06316067504883" x2="2.4638799243426206" y2="250.40845664062516" /><line class="primary" x1="268.51442841485016" y1="299.25" x2="38.58468371008169" y2="432.0" /><line class="primary" x1="274.3028678473038" y1="305.85045015655277" x2="112.67670844548837" y2="516.4857620038756" /><line class="primary" x1="276.75" y1="307.48557158514984" x2="143.9999999999999" y2="537.4153162899182" />
    </g>
</svg>
