<svg width="576" height="576" viewBox="0 0 576 576" xmlns="http://www.w3.org/2000/svg">
    
    <style>
    .primary {
        fill: none;
        stroke-width: 2px;
        stroke: #000000;
    }
    .secondary {
        fill: none;
        stroke-width: 1px;
        stroke: #000000;
        stroke-miterlimit: 4;
        stroke-dasharray: 1, 2;
        stroke-dashoffset: 0;
    }
    </style>

    <g id="ruler">
        <circle class="secondary" cx="288" cy="288" r="288" />
        <circle class="primary" cx="288" cy="288" r="9" />
        <circle class="primary" cx="288" cy="288" r="22.5" />
        <line class="primary" x1="270" y1="288" x2="306" y2="288" />
        <line class="primary" x1="288" y1="270" x2="288" y2="306" />
        <path class="primary" d="M576 288 A 288 288 0 0 0 576 288 A 288 288 0 0 0 537.415 144 A 288 288 0 0 0 432 38.585 A 288 288 0 0 0 288 0 A 288 288 0 0 0 144 38.585 A 288 288 0 0 0 38.585 144 A 288 288 0 0 0 0 288 A 288 288 0 0 0 38.585 432 A 288 288 0 0 0 144 537.415" /><path class="secondary" d="M336 288 A 48 48 0 0 0 336 288 A 48 48 0 0 0 329.569 264 A 48 48 0 0 0 312 246.431 A 48 48 0 0 0 288 240 A 48 48 0 0 0 264 246.431 A 48 48 0 0 0 246.431 264 A 48 48 0 0 0 240 288 A 48 48 0 0 0 246.431 312 A 48 48 0 0 0 264 329.569" /><path class="secondary" d="M384 288 A 96 96 0 0 0 384 288 A 96 96 0 0 0 371.138 240 A 96 96 0 0 0 336 204.862 A 96 96 0 0 0 288 192 A 96 96 0 0 0 240 204.862 A 96 96 0 0 0 204.862 240 A 96 96 0 0 0 192 288 A 96 96 0 0 0 204.862 336 A 96 96 0 0 0 240 371.138" /><path class="secondary" d="M432 288 A 144 144 0 0 0 432 288 A 144 144 0 0 0 412.708 216 A 144 144 0 0 0 360 163.292 A 144 144 0 0 0 288 144 A 144 144 0 0 0 216 163.292 A 144 144 0 0 0 163.292 216 A 144 144 0 0 0 144 288 A 144 144 0 0 0 163.292 360 A 144 144 0 0 0 216 412.708" /><path class="secondary" d="M480 288 A 192 192 0 0 0 480 288 A 192 192 0 0 0 454.277 192 A 192 192 0 0 0 384 121.723 A 192 192 0 0 0 288 96 A 192 192 0 0 0 192 121.723 A 192 192 0 0 0 121.723 192 A 192 192 0 0 0 96 288 A 192 192 0 0 0 121.723 384 A 192 192 0 0 0 192 454.277" /><path class="secondary" d="M528 288 A 240 240 0 0 0 528 288 A 240 240 0 0 0 495.846 168 A 240 240 0 0 0 408 80.154 A 240 240 0 0 0 288 48 A 240 240 0 0 0 168 80.154 A 240 240 0 0 0 80.154 168 A 240 240 0 0 0 48 288 A 240 240 0 0 0 80.154 408 A 240 240 0 0 0 168 495.846" /><line class="primary" x1="310.5" y1="288" x2="576" y2="288" /><line class="primary" x1="310.47" y1="286.837" x2="575.615" y2="273.113" /><line class="primary" x1="310.02" y1="283.379" x2="569.86" y2="228.85" /><line class="primary" x1="308.107" y1="277.902" x2="545.366" y2="158.746" /><line class="primary" x1="303.228" y1="271.436" x2="482.913" y2="75.979" /><line class="primary" x1="294.174" y1="266.364" x2="367.026" y2="11.054" /><line class="primary" x1="281.547" y1="266.445" x2="205.401" y2="12.099" /><line class="primary" x1="269.527" y1="275.154" x2="51.552" y2="123.573" /><line class="primary" x1="265.817" y1="291.764" x2="4.058" y2="336.176" /><line class="primary" x1="276.75" y1="307.486" x2="144" y2="537.415" />
    </g>
</svg>
