<?xml version="1.0" encoding="UTF-8" standalone="no"?>
<!-- Created with Inkscape (http://www.inkscape.org/) -->

<svg
   width="100mm"
   height="60mm"
   viewBox="0 0 100 60"
   version="1.1"
   id="svg1"
   xml:space="preserve"
   inkscape:version="1.3.2 (091e20e, 2023-11-25)"
   sodipodi:docname="shield-02.svg"
   xmlns:inkscape="http://www.inkscape.org/namespaces/inkscape"
   xmlns:sodipodi="http://sodipodi.sourceforge.net/DTD/sodipodi-0.dtd"
   xmlns="http://www.w3.org/2000/svg"
   xmlns:svg="http://www.w3.org/2000/svg"><sodipodi:namedview
     id="namedview1"
     pagecolor="#ffffff"
     bordercolor="#666666"
     borderopacity="1.0"
     inkscape:showpageshadow="2"
     inkscape:pageopacity="0.0"
     inkscape:pagecheckerboard="0"
     inkscape:deskcolor="#d1d1d1"
     inkscape:document-units="mm"
     showgrid="true"
     inkscape:zoom="2.8284273"
     inkscape:cx="254.0281"
     inkscape:cy="174.47859"
     inkscape:window-width="2560"
     inkscape:window-height="1411"
     inkscape:window-x="0"
     inkscape:window-y="0"
     inkscape:window-maximized="1"
     inkscape:current-layer="layer1"
     showguides="true"><inkscape:grid
       id="grid1"
       units="mm"
       originx="0"
       originy="0"
       spacingx="1.25"
       spacingy="1.25"
       empcolor="#3f3fff"
       empopacity="0.25098039"
       color="#3f3fff"
       opacity="0.1254902"
       empspacing="8"
       dotted="false"
       gridanglex="30"
       gridanglez="30"
       visible="true" /><sodipodi:guide
       position="5,55"
       orientation="0,-1"
       id="guide10"
       inkscape:locked="false" /><sodipodi:guide
       position="5,55"
       orientation="1,0"
       id="guide11"
       inkscape:locked="false" /><sodipodi:guide
       position="5,5.0000003"
       orientation="0,-1"
       id="guide12"
       inkscape:locked="false" /><sodipodi:guide
       position="95.000001,55"
       orientation="1,0"
       id="guide13"
       inkscape:locked="false" /></sodipodi:namedview><defs
     id="defs1"><inkscape:path-effect
       effect="fillet_chamfer"
       id="path-effect28"
       is_visible="true"
       lpeversion="1"
       nodesatellites_param="F,0,0,1,0,0,0,1 @ F,0,0,1,0,0,0,1 @ F,0,0,1,0,0,0,1 @ F,0,0,1,0,0,0,1 @ F,0,0,1,0,2.5244749,0,1 @ F,0,0,1,0,0,0,1 @ F,0,0,1,0,0,0,1 @ F,0,0,1,0,0,0,1 @ F,0,0,1,0,0,0,1"
       radius="0"
       unit="px"
       method="auto"
       mode="F"
       chamfer_steps="1"
       flexible="false"
       use_knot_distance="true"
       apply_no_radius="true"
       apply_with_radius="true"
       only_selected="false"
       hide_knots="false" /><inkscape:path-effect
       effect="fillet_chamfer"
       id="path-effect25"
       is_visible="true"
       lpeversion="1"
       nodesatellites_param="F,0,0,1,0,0,0,1 @ F,0,0,1,0,0,0,1 @ F,0,0,1,0,0,0,1 @ F,0,0,1,0,0,0,1 @ F,0,0,1,0,0,0,1 @ F,0,0,1,0,1.9230279,0,1 @ F,0,0,1,0,0,0,1 @ F,0,0,1,0,0,0,1"
       radius="0"
       unit="px"
       method="auto"
       mode="F"
       chamfer_steps="1"
       flexible="false"
       use_knot_distance="true"
       apply_no_radius="true"
       apply_with_radius="true"
       only_selected="false"
       hide_knots="false" /><inkscape:path-effect
       effect="tiling"
       id="path-effect24"
       is_visible="true"
       lpeversion="1"
       unit="px"
       seed="1;1"
       lpesatellites=""
       num_rows="1"
       num_cols="12"
       gapx="13.5"
       gapy="0"
       offset="0"
       offset_type="false"
       scale="0"
       rotate="0"
       mirrorrowsx="false"
       mirrorrowsy="false"
       mirrorcolsx="false"
       mirrorcolsy="false"
       mirrortrans="false"
       shrink_interp="false"
       split_items="false"
       link_styles="false"
       interpolate_scalex="false"
       interpolate_scaley="true"
       interpolate_rotatex="false"
       interpolate_rotatey="true"
       random_scale="false"
       random_rotate="false"
       random_gap_y="false"
       random_gap_x="false"
       transformorigin="" /><inkscape:path-effect
       effect="fillet_chamfer"
       id="path-effect23"
       is_visible="true"
       lpeversion="1"
       nodesatellites_param="F,0,0,1,0,0,0,1 @ F,0,0,1,0,0,0,1 @ F,0,0,1,0,0,0,1 @ F,0,0,1,0,0,0,1 @ F,0,0,1,0,0,0,1 @ F,0,0,1,0,0,0,1 @ F,0,0,1,0,0,0,1 @ F,0,0,1,0,0,0,1"
       radius="0"
       unit="px"
       method="auto"
       mode="F"
       chamfer_steps="1"
       flexible="false"
       use_knot_distance="true"
       apply_no_radius="true"
       apply_with_radius="true"
       only_selected="false"
       hide_knots="false" /><inkscape:path-effect
       effect="fillet_chamfer"
       id="path-effect22"
       is_visible="true"
       lpeversion="1"
       nodesatellites_param="F,0,0,1,0,0,0,1 @ F,0,0,1,0,4.4387337,0,1 @ F,0,0,1,0,0,0,1"
       radius="0"
       unit="px"
       method="auto"
       mode="F"
       chamfer_steps="1"
       flexible="false"
       use_knot_distance="true"
       apply_no_radius="true"
       apply_with_radius="true"
       only_selected="false"
       hide_knots="false" /><inkscape:path-effect
       effect="fillet_chamfer"
       id="path-effect21"
       is_visible="true"
       lpeversion="1"
       nodesatellites_param="F,0,0,1,0,0,0,1 @ F,0,0,1,0,2,0,1 @ F,0,0,1,0,2,0,1"
       radius="2"
       unit="mm"
       method="auto"
       mode="F"
       chamfer_steps="1"
       flexible="false"
       use_knot_distance="true"
       apply_no_radius="true"
       apply_with_radius="true"
       only_selected="false"
       hide_knots="false" /><inkscape:path-effect
       effect="bend_path"
       id="path-effect20"
       is_visible="true"
       lpeversion="1"
       bendpath="m 58.75,12.5 c 7.5,-2.25 17.5,-2.25 25,0.125"
       prop_scale="1"
       scale_y_rel="false"
       vertical="false"
       hide_knot="false"
       bendpath-nodetypes="cc" /><inkscape:path-effect
       effect="bend_path"
       id="path-effect19"
       is_visible="true"
       lpeversion="1"
       bendpath="m 63.75,22.5 c 6.25,-3.625 13.75,-3.625 20,0.125"
       prop_scale="1"
       scale_y_rel="false"
       vertical="false"
       hide_knot="false"
       bendpath-nodetypes="cc" /><inkscape:path-effect
       effect="bend_path"
       id="path-effect16"
       is_visible="true"
       lpeversion="1"
       bendpath="M 68.75,32.5 C 70,25 82.5,25 83.750001,32.5"
       prop_scale="1"
       scale_y_rel="false"
       vertical="false"
       hide_knot="false"
       bendpath-nodetypes="cc" /><inkscape:path-effect
       effect="bend_path"
       id="path-effect12"
       is_visible="true"
       lpeversion="1"
       bendpath="m 62.5,20.965792 c 8.530393,-6.325073 17.101881,-12.4732764 30,0"
       prop_scale="1"
       scale_y_rel="false"
       vertical="false"
       hide_knot="false"
       bendpath-nodetypes="cc" /><inkscape:path-effect
       effect="fillet_chamfer"
       id="path-effect11"
       is_visible="true"
       lpeversion="1"
       nodesatellites_param="F,0,0,1,0,0,0,1 @ F,0,0,1,0,5.5852731,0,1 @ F,0,0,1,0,0,0,1 @ F,0,0,1,0,0,0,1 @ F,0,1,1,0,5.5852731,0,1 @ F,0,0,1,0,0,0,1"
       radius="0"
       unit="px"
       method="auto"
       mode="F"
       chamfer_steps="1"
       flexible="false"
       use_knot_distance="true"
       apply_no_radius="true"
       apply_with_radius="true"
       only_selected="false"
       hide_knots="false" /><inkscape:path-effect
       effect="fillet_chamfer"
       id="path-effect18"
       is_visible="true"
       lpeversion="1"
       nodesatellites_param="F,0,0,1,0,0.5,0,1 @ F,0,0,1,0,0.5,0,1 @ F,0,0,1,0,0.5,0,1"
       radius="0.5"
       unit="mm"
       method="auto"
       mode="F"
       chamfer_steps="1"
       flexible="false"
       use_knot_distance="true"
       apply_no_radius="true"
       apply_with_radius="true"
       only_selected="false"
       hide_knots="false" /><inkscape:path-effect
       effect="fillet_chamfer"
       id="path-effect15"
       is_visible="true"
       lpeversion="1"
       nodesatellites_param="F,0,1,1,0,0.38650004,0,1 @ F,0,1,1,0,0.38650004,0,1 @ F,0,0,1,0,0.38650004,0,1"
       radius="0"
       unit="px"
       method="auto"
       mode="F"
       chamfer_steps="1"
       flexible="false"
       use_knot_distance="true"
       apply_no_radius="true"
       apply_with_radius="true"
       only_selected="false"
       hide_knots="false" /><inkscape:path-effect
       effect="fillet_chamfer"
       id="path-effect14"
       is_visible="true"
       lpeversion="1"
       nodesatellites_param="F,0,0,1,0,0,0,1 @ F,0,0,1,0,0,0,1 @ F,0,0,1,0,0,0,1"
       radius="0"
       unit="px"
       method="auto"
       mode="F"
       chamfer_steps="1"
       flexible="false"
       use_knot_distance="true"
       apply_no_radius="true"
       apply_with_radius="true"
       only_selected="false"
       hide_knots="false" /><inkscape:path-effect
       effect="fillet_chamfer"
       id="path-effect13"
       is_visible="true"
       lpeversion="1"
       nodesatellites_param="F,0,0,1,0,0.5,0,1 @ F,0,0,1,0,0.5,0,1 @ F,0,0,1,0,0.5,0,1 @ F,0,0,1,0,0.5,0,1"
       radius="0.5"
       unit="mm"
       method="auto"
       mode="F"
       chamfer_steps="1"
       flexible="false"
       use_knot_distance="true"
       apply_no_radius="true"
       apply_with_radius="true"
       only_selected="false"
       hide_knots="false" /><inkscape:path-effect
       effect="fillet_chamfer"
       id="path-effect10"
       is_visible="true"
       lpeversion="1"
       nodesatellites_param="F,0,0,1,0,1.2499987,0,1 @ F,0,1,1,0,0,0,1 @ F,0,0,1,0,1.2499998,0,1 @ F,0,0,1,0,1.2500001,0,1 @ F,0,1,1,0,0,0,1 @ F,0,0,1,0,1.2499989,0,1"
       radius="0"
       unit="mm"
       method="auto"
       mode="F"
       chamfer_steps="1"
       flexible="false"
       use_knot_distance="true"
       apply_no_radius="true"
       apply_with_radius="true"
       only_selected="true"
       hide_knots="false" /><inkscape:path-effect
       effect="fillet_chamfer"
       id="path-effect1"
       is_visible="true"
       lpeversion="1"
       nodesatellites_param="F,0,0,1,0,0,0,1 @ F,0,0,1,0,0,0,1 @ F,0,0,1,0,1.2467117,0,1 @ F,0,0,1,0,1.2260411,0,1 @ F,0,0,1,0,0,0,1 @ F,0,0,1,0,0,0,1"
       radius="0"
       unit="px"
       method="auto"
       mode="F"
       chamfer_steps="1"
       flexible="false"
       use_knot_distance="true"
       apply_no_radius="true"
       apply_with_radius="true"
       only_selected="false"
       hide_knots="false" /><inkscape:path-effect
       effect="fillet_chamfer"
       id="path-effect17"
       is_visible="true"
       lpeversion="1"
       nodesatellites_param="F,0,1,1,0,2.5940923,0,1 @ F,0,0,1,0,2.5940923,0,1 @ F,0,1,1,0,2.5940923,0,1 @ F,0,1,1,0,2.5940923,0,1"
       radius="0"
       unit="px"
       method="auto"
       mode="F"
       chamfer_steps="1"
       flexible="false"
       use_knot_distance="true"
       apply_no_radius="true"
       apply_with_radius="true"
       only_selected="false"
       hide_knots="false" /><inkscape:path-effect
       effect="fillet_chamfer"
       id="path-effect9"
       is_visible="true"
       lpeversion="1"
       nodesatellites_param="F,0,0,1,0,0,0,1 @ F,0,0,1,0,2.5613266,0,1 @ F,0,0,1,0,0,0,1"
       radius="0"
       unit="px"
       method="auto"
       mode="F"
       chamfer_steps="1"
       flexible="false"
       use_knot_distance="true"
       apply_no_radius="true"
       apply_with_radius="true"
       only_selected="false"
       hide_knots="false" /><inkscape:path-effect
       effect="fillet_chamfer"
       id="path-effect8"
       is_visible="true"
       lpeversion="1"
       nodesatellites_param="F,0,0,1,0,0,0,1 @ F,0,0,1,0,1.3008206,0,1 @ F,0,0,1,0,0,0,1"
       radius="0"
       unit="px"
       method="auto"
       mode="F"
       chamfer_steps="1"
       flexible="false"
       use_knot_distance="true"
       apply_no_radius="true"
       apply_with_radius="true"
       only_selected="false"
       hide_knots="false" /><inkscape:path-effect
       effect="fillet_chamfer"
       id="path-effect7"
       is_visible="true"
       lpeversion="1"
       nodesatellites_param="F,0,0,1,0,0,0,1 @ F,0,0,1,0,2.4999998,0,1 @ F,0,0,1,0,0,0,1"
       radius="0"
       unit="px"
       method="auto"
       mode="F"
       chamfer_steps="1"
       flexible="false"
       use_knot_distance="true"
       apply_no_radius="true"
       apply_with_radius="true"
       only_selected="false"
       hide_knots="false" /><inkscape:path-effect
       effect="fillet_chamfer"
       id="path-effect6"
       is_visible="true"
       lpeversion="1"
       nodesatellites_param="F,0,0,1,0,0,0,1 @ F,0,0,1,0,0,0,1 @ F,0,0,1,0,0,0,1 @ F,0,0,1,0,0,0,1 @ F,0,0,1,0,2.4999998,0,1"
       radius="0"
       unit="px"
       method="auto"
       mode="F"
       chamfer_steps="1"
       flexible="false"
       use_knot_distance="true"
       apply_no_radius="true"
       apply_with_radius="true"
       only_selected="false"
       hide_knots="false" /><inkscape:path-effect
       effect="fillet_chamfer"
       id="path-effect5"
       is_visible="true"
       lpeversion="1"
       nodesatellites_param="F,0,0,1,0,2.4999998,0,1 @ F,0,0,1,0,2.5000001,0,1 @ F,0,0,1,0,2.5000002,0,1"
       radius="0"
       unit="px"
       method="auto"
       mode="F"
       chamfer_steps="1"
       flexible="false"
       use_knot_distance="true"
       apply_no_radius="true"
       apply_with_radius="true"
       only_selected="false"
       hide_knots="false" /><inkscape:path-effect
       effect="fillet_chamfer"
       id="path-effect4"
       is_visible="true"
       lpeversion="1"
       nodesatellites_param="F,0,0,1,0,2.4999998,0,1 @ F,0,0,1,0,0,0,1 @ F,0,0,1,0,0,0,1 @ F,0,0,1,0,2.2020993,0,1"
       radius="0"
       unit="px"
       method="auto"
       mode="F"
       chamfer_steps="1"
       flexible="false"
       use_knot_distance="true"
       apply_no_radius="true"
       apply_with_radius="true"
       only_selected="false"
       hide_knots="false" /><inkscape:path-effect
       effect="fillet_chamfer"
       id="path-effect3"
       is_visible="true"
       lpeversion="1"
       nodesatellites_param="F,0,0,1,0,0,0,1 @ F,0,0,1,0,2.5590018,0,1 @ F,0,0,1,0,2.4999998,0,1 @ F,0,0,1,0,0,0,1"
       radius="0"
       unit="px"
       method="auto"
       mode="F"
       chamfer_steps="1"
       flexible="false"
       use_knot_distance="true"
       apply_no_radius="true"
       apply_with_radius="true"
       only_selected="false"
       hide_knots="false" /><inkscape:path-effect
       effect="fillet_chamfer"
       id="path-effect2"
       is_visible="true"
       lpeversion="1"
       nodesatellites_param="F,0,0,1,0,0,0,1 @ F,0,0,1,0,1.7367648,0,1 @ F,0,0,1,0,0,0,1"
       radius="0"
       unit="px"
       method="auto"
       mode="F"
       chamfer_steps="1"
       flexible="false"
       use_knot_distance="true"
       apply_no_radius="true"
       apply_with_radius="true"
       only_selected="false"
       hide_knots="false" /><inkscape:path-effect
       effect="fillet_chamfer"
       id="path-effect21-2"
       is_visible="true"
       lpeversion="1"
       nodesatellites_param="F,0,0,1,0,0,0,1 @ F,0,0,1,0,2,0,1 @ F,0,0,1,0,0,0,1"
       radius="2"
       unit="mm"
       method="auto"
       mode="F"
       chamfer_steps="1"
       flexible="false"
       use_knot_distance="true"
       apply_no_radius="true"
       apply_with_radius="true"
       only_selected="false"
       hide_knots="false" /><inkscape:path-effect
       effect="fillet_chamfer"
       id="path-effect22-3"
       is_visible="true"
       lpeversion="1"
       nodesatellites_param="F,0,0,1,0,0,0,1 @ F,0,0,1,0,4.4387337,0,1 @ F,0,0,1,0,0,0,1"
       radius="0"
       unit="px"
       method="auto"
       mode="F"
       chamfer_steps="1"
       flexible="false"
       use_knot_distance="true"
       apply_no_radius="true"
       apply_with_radius="true"
       only_selected="false"
       hide_knots="false" /><inkscape:path-effect
       effect="fillet_chamfer"
       id="path-effect28-8"
       is_visible="true"
       lpeversion="1"
       nodesatellites_param="F,0,0,1,0,0,0,1 @ F,0,0,1,0,0,0,1 @ F,0,0,1,0,0,0,1 @ F,0,0,1,0,0,0,1 @ F,0,0,1,0,2.5244749,0,1 @ F,0,0,1,0,0,0,1 @ F,0,0,1,0,0,0,1 @ F,0,0,1,0,0,0,1 @ F,0,0,1,0,0,0,1"
       radius="0"
       unit="px"
       method="auto"
       mode="F"
       chamfer_steps="1"
       flexible="false"
       use_knot_distance="true"
       apply_no_radius="true"
       apply_with_radius="true"
       only_selected="false"
       hide_knots="false" /></defs><g
     inkscape:label="Layer 1"
     inkscape:groupmode="layer"
     id="layer1"><rect
       style="fill:none;fill-rule:evenodd;stroke:#000000;stroke-width:0.26458292;stroke-linecap:square;stroke-linejoin:miter;stroke-miterlimit:2.8;stroke-dasharray:none;paint-order:stroke markers fill"
       id="rect1"
       width="100"
       height="60"
       x="0"
       y="0"
       rx="5"
       ry="5" /><rect
       style="fill:none;fill-rule:evenodd;stroke:#000000;stroke-width:0.264583;stroke-linecap:square;stroke-linejoin:miter;stroke-miterlimit:2.8;stroke-dasharray:none;paint-order:stroke markers fill"
       id="rect9"
       width="40"
       height="4"
       x="30"
       y="47.999744"
       rx="2"
       ry="2" /><rect
       style="fill:none;fill-rule:evenodd;stroke:#000000;stroke-width:0.264583;stroke-linecap:square;stroke-linejoin:miter;stroke-miterlimit:2.8;stroke-dasharray:none;paint-order:stroke markers fill"
       id="rect9-7"
       width="60"
       height="2.5"
       x="20"
       y="6.25"
       rx="1.25"
       ry="1.25" /><path
       style="fill:none;fill-rule:evenodd;stroke:#000000;stroke-width:0.264583;stroke-linecap:square;stroke-linejoin:miter;stroke-miterlimit:2.8;stroke-dasharray:none;paint-order:stroke markers fill"
       id="rect9-7-7"
       width="15"
       height="2.25"
       x="68.75"
       y="30.25"
       rx="1.125"
       ry="1.125"
       inkscape:path-effect="#path-effect16"
       sodipodi:type="rect"
       d="m 68.093154,30.735168 c 0.555115,-1.356784 1.498728,-2.541509 2.715939,-3.381738 1.622404,-1.098353 3.548652,-1.612504 5.440907,-1.60343 1.892255,-0.0091 3.818502,0.505077 5.440906,1.603429 l 10e-7,1e-6 c 1.128688,0.779123 2.022128,1.854456 2.588706,3.088515 0.444968,0.969179 0.04658,1.809912 -0.553537,1.923804 -0.599223,0.113722 -1.218892,-0.404063 -1.486728,-0.986384 C 81.83978,30.510637 81.202284,29.741378 80.418469,29.20907 79.247213,28.391771 77.745112,28.009074 76.25,28 c -1.495111,0.0091 -2.997212,0.391771 -4.168467,1.20907 l -10e-7,0 c -0.845289,0.574057 -1.520409,1.423691 -1.910458,2.376466 -0.242008,0.591155 -0.837591,1.136067 -1.441988,1.049297 -0.60573,-0.08696 -1.040487,-0.910872 -0.635932,-1.899665 z"
       transform="translate(-57.5,12.25306)" /><path
       style="fill:none;fill-rule:evenodd;stroke:#000000;stroke-width:0.264583;stroke-linecap:square;stroke-linejoin:miter;stroke-miterlimit:2.8;stroke-dasharray:none;paint-order:stroke markers fill"
       id="rect9-7-7-6"
       width="20"
       height="2.25"
       x="63.75"
       y="20.25"
       rx="1.125"
       ry="1.125"
       inkscape:path-effect="#path-effect19"
       sodipodi:type="rect"
       d="m 64.189362,20.98535 c 5.874193,-2.954959 13.081027,-2.953416 18.945346,0.01744 0.617736,0.312945 0.842595,1.0323 0.52511,1.568451 -0.317485,0.536151 -0.996017,0.711454 -1.54234,0.432674 -5.186372,-2.646526 -11.716806,-2.646691 -16.916146,-0.01331 -0.547688,0.277395 -1.226164,0.09978 -1.542019,-0.437664 -0.315854,-0.537442 -0.08873,-1.256327 0.530049,-1.567597 z"
       transform="translate(6.9776046,19.231586)" /><path
       style="fill:none;fill-rule:evenodd;stroke:#000000;stroke-width:0.264583;stroke-linecap:square;stroke-linejoin:miter;stroke-miterlimit:2.8;stroke-dasharray:none;paint-order:stroke markers fill"
       id="rect9-7-7-6-6"
       width="25"
       height="2.25"
       x="58.75"
       y="10.25"
       rx="1.125"
       ry="1.125"
       inkscape:path-effect="#path-effect20"
       sodipodi:type="rect"
       d="m 59.451837,11.128157 c 7.611618,-2.0839003 15.816122,-2.0943594 23.415628,0.05784 0.624579,0.176883 0.972553,0.813884 0.785902,1.408533 -0.18665,0.594649 -0.807907,0.923827 -1.398724,0.756721 -7.188718,-2.033244 -14.991142,-2.020752 -22.20939,-0.05175 -0.593245,0.161826 -1.21174,-0.173772 -1.392264,-0.770277 -0.180523,-0.596505 0.173273,-1.229805 0.798848,-1.401074 z"
       transform="translate(-21.25,28.434548)" /><rect
       style="fill:none;fill-rule:evenodd;stroke:#000000;stroke-width:0.264583;stroke-linecap:square;stroke-linejoin:miter;stroke-miterlimit:2.8;stroke-dasharray:none;paint-order:stroke markers fill"
       id="rect9-8"
       width="55"
       x="22.5"
       y="22.85"
       rx="1.5"
       ry="1.5"
       height="3" /><path
       id="path1"
       style="fill:none;fill-rule:evenodd;stroke:#000000;stroke-width:0.264583;stroke-linecap:square;stroke-miterlimit:2.8;paint-order:stroke fill markers"
       d="m 63.723848,12.800189 c -0.305554,0.0013 -0.609124,0.04917 -0.900203,0.142111 v -0.0036 l -7.855848,2.172243 a 0.71547544,0.71547544 0 0 0 0,1.379196 l 7.855848,2.172243 v -0.0036 c 0.291106,0.09276 0.594675,0.140511 0.900203,0.141594 1.656711,-1.01e-4 2.999716,-1.343106 2.999817,-2.999817 1.84e-4,-1.656913 -1.342904,-3.000233 -2.999817,-3.000334 z" /><path
       id="path1-6"
       style="fill:none;fill-rule:evenodd;stroke:#000000;stroke-width:0.264583;stroke-linecap:square;stroke-miterlimit:2.8;paint-order:stroke fill markers"
       d="m 36.276152,12.800198 c 0.305554,0.0013 0.609123,0.04917 0.900203,0.142111 v -0.0036 l 7.855848,2.172225 a 0.71547544,0.71547544 0 0 1 0,1.379196 l -7.855848,2.172243 v -0.0036 c -0.291107,0.09276 -0.594676,0.140511 -0.900203,0.141594 -1.656711,-1.01e-4 -2.999716,-1.343106 -2.999817,-2.999817 -1.84e-4,-1.656913 1.342904,-3.000233 2.999817,-3.000334 z" /><path
       style="fill:none;fill-rule:evenodd;stroke:#000000;stroke-width:0.264583;stroke-linecap:square;stroke-miterlimit:2.8;paint-order:stroke fill markers"
       id="path23"
       inkscape:path-effect="#path-effect24"
       sodipodi:type="arc"
       sodipodi:cx="13.75"
       sodipodi:cy="33.75"
       sodipodi:rx="1.5"
       sodipodi:ry="1.5"
       d="m 15.25,33.75 c 0,0.828427 -0.671573,1.5 -1.5,1.5 -0.828427,0 -1.5,-0.671573 -1.5,-1.5 0,-0.828427 0.671573,-1.5 1.5,-1.5 0.828427,0 1.5,0.671573 1.5,1.5 z m 6.571875,0 c 0,0.828427 -0.671573,1.5 -1.5,1.5 -0.828427,0 -1.5,-0.671573 -1.5,-1.5 0,-0.828427 0.671573,-1.5 1.5,-1.5 0.828427,0 1.5,0.671573 1.5,1.5 z m 6.571875,0 c 0,0.828427 -0.671573,1.5 -1.5,1.5 -0.828427,0 -1.5,-0.671573 -1.5,-1.5 0,-0.828427 0.671573,-1.5 1.5,-1.5 0.828427,0 1.5,0.671573 1.5,1.5 z m 6.571875,0 c 0,0.828427 -0.671573,1.5 -1.5,1.5 -0.828427,0 -1.5,-0.671573 -1.5,-1.5 0,-0.828427 0.671573,-1.5 1.5,-1.5 0.828427,0 1.5,0.671573 1.5,1.5 z m 6.571875,0 c 0,0.828427 -0.671573,1.5 -1.5,1.5 -0.828427,0 -1.5,-0.671573 -1.5,-1.5 0,-0.828427 0.671573,-1.5 1.5,-1.5 0.828427,0 1.5,0.671573 1.5,1.5 z m 6.571875,0 c 0,0.828427 -0.671573,1.5 -1.5,1.5 -0.828427,0 -1.5,-0.671573 -1.5,-1.5 0,-0.828427 0.671573,-1.5 1.5,-1.5 0.828427,0 1.5,0.671573 1.5,1.5 z m 6.571875,0 c 0,0.828427 -0.671573,1.5 -1.5,1.5 -0.828427,0 -1.5,-0.671573 -1.5,-1.5 0,-0.828427 0.671573,-1.5 1.5,-1.5 0.828427,0 1.5,0.671573 1.5,1.5 z m 6.571875,0 c 0,0.828427 -0.671573,1.5 -1.5,1.5 -0.828427,0 -1.5,-0.671573 -1.5,-1.5 0,-0.828427 0.671573,-1.5 1.5,-1.5 0.828427,0 1.5,0.671573 1.5,1.5 z m 6.571875,0 c 0,0.828427 -0.671573,1.5 -1.5,1.5 -0.828427,0 -1.5,-0.671573 -1.5,-1.5 0,-0.828427 0.671573,-1.5 1.5,-1.5 0.828427,0 1.5,0.671573 1.5,1.5 z m 6.571875,0 c 0,0.828427 -0.671573,1.5 -1.5,1.5 -0.828427,0 -1.5,-0.671573 -1.5,-1.5 0,-0.828427 0.671573,-1.5 1.5,-1.5 0.828427,0 1.5,0.671573 1.5,1.5 z m 6.571875,0 c 0,0.828427 -0.671573,1.5 -1.5,1.5 -0.828427,0 -1.5,-0.671573 -1.5,-1.5 0,-0.828427 0.671573,-1.5 1.5,-1.5 0.828427,0 1.5,0.671573 1.5,1.5 z m 6.571875,0 c 0,0.828427 -0.671573,1.5 -1.5,1.5 -0.828427,0 -1.5,-0.671573 -1.5,-1.5 0,-0.828427 0.671573,-1.5 1.5,-1.5 0.828427,0 1.5,0.671573 1.5,1.5 z"
       transform="translate(0.1046875,-0.85)" /><rect
       style="fill:none;fill-rule:evenodd;stroke:#000000;stroke-width:0.264583;stroke-linecap:square;stroke-miterlimit:2.8;paint-order:stroke fill markers"
       id="rect25"
       width="6.25"
       height="5"
       x="83.056244"
       y="21.85"
       rx="3.125"
       ry="0.60000002" /><rect
       style="fill:none;fill-rule:evenodd;stroke:#000000;stroke-width:0.264583;stroke-linecap:square;stroke-miterlimit:2.8;paint-order:stroke fill markers"
       id="rect26"
       width="5"
       height="3.75"
       x="11.943749"
       y="22.475"
       rx="2.5"
       ry="0.60000002" /><rect
       style="fill:none;fill-rule:evenodd;stroke:#000000;stroke-width:0.264583;stroke-linecap:square;stroke-miterlimit:2.8;paint-order:stroke fill markers"
       id="rect27"
       width="20"
       height="3"
       x="71.058334"
       y="14.3"
       rx="1.5"
       ry="1.5" /><rect
       style="fill:none;fill-rule:evenodd;stroke:#000000;stroke-width:0.264583;stroke-linecap:square;stroke-miterlimit:2.8;paint-order:stroke fill markers"
       id="rect27-3"
       width="10"
       height="2.75"
       x="13.485417"
       y="14.425"
       rx="1.5"
       ry="1.5" /><path
       id="path27"
       style="fill:none;fill-rule:evenodd;stroke:#000000;stroke-width:0.264583;stroke-linecap:square;stroke-miterlimit:2.8;paint-order:stroke fill markers"
       d="m 12.500012,52.500155 c -0.690397,-2.9e-5 -1.250082,0.559656 -1.250053,1.250053 2.56e-4,0.690195 0.559858,1.249565 1.250053,1.249536 0.05982,1.5e-4 0.119574,-0.004 0.178801,-0.0124 l 6.072471,-0.876491 a 0.3643705,0.3643705 89.999812 0 0 -2e-6,-0.721267 l -6.062134,-0.874959 -0.0057,-10e-4 c -0.0016,-1.75e-4 -0.0031,-3.47e-4 -0.0047,-5.16e-4 -0.05921,-0.0086 -0.118968,-0.0129 -0.178801,-0.01292 z"
       inkscape:path-effect="#path-effect28"
       inkscape:original-d="m 12.500012,52.500155 a 1.25,1.25 0 0 0 -1.250053,1.250053 1.25,1.25 0 0 0 1.250053,1.249536 1.25,1.25 0 0 0 0.178801,-0.0124 l 8.571053,-1.237133 -8.560718,-1.235584 -0.0057,-10e-4 a 1.25,1.25 0 0 0 -0.0047,-5.16e-4 1.25,1.25 0 0 0 -0.178801,-0.01292 z"
       transform="translate(1.2500411,-3.7502083)" /><path
       id="path27-9"
       style="fill:none;fill-rule:evenodd;stroke:#000000;stroke-width:0.264583;stroke-linecap:square;stroke-miterlimit:2.8;paint-order:stroke fill markers"
       d="m 12.500012,52.500155 c -0.690397,-2.9e-5 -1.250082,0.559656 -1.250053,1.250053 2.56e-4,0.690195 0.559858,1.249565 1.250053,1.249536 0.05982,1.5e-4 0.119574,-0.004 0.178801,-0.0124 l 6.072471,-0.876491 a 0.3643705,0.3643705 89.999812 0 0 -2e-6,-0.721267 l -6.062134,-0.874959 -0.0057,-10e-4 c -0.0016,-1.75e-4 -0.0031,-3.47e-4 -0.0047,-5.16e-4 -0.05921,-0.0086 -0.118968,-0.0129 -0.178801,-0.01292 z"
       inkscape:path-effect="#path-effect28-8"
       inkscape:original-d="m 12.500012,52.500155 a 1.25,1.25 0 0 0 -1.250053,1.250053 1.25,1.25 0 0 0 1.250053,1.249536 1.25,1.25 0 0 0 0.178801,-0.0124 l 8.571053,-1.237133 -8.560718,-1.235584 -0.0057,-10e-4 a 1.25,1.25 0 0 0 -0.0047,-5.16e-4 1.25,1.25 0 0 0 -0.178801,-0.01292 z"
       transform="matrix(-1,0,0,1,98.74996,-3.7502083)" /></g></svg>
