<svg width="576" height="576" viewBox="0 0 576 576" xmlns="http://www.w3.org/2000/svg">
    
    <style>
    .primary {
        fill: none;
        stroke-width: 2px;
        stroke: #000000;
    }
    .secondary {
        fill: none;
        stroke-width: 1px;
        stroke: #000000;
        stroke-miterlimit: 4;
        stroke-dasharray: 1, 2;
        stroke-dashoffset: 0;
    }
    </style>

    <g id="ruler">
        <circle class="secondary" cx="288" cy="288" r="288" />
        <circle class="primary" cx="288" cy="288" r="9" />
        <circle class="primary" cx="288" cy="288" r="22.5" />
        <line class="primary" x1="270" y1="288" x2="306" y2="288" />
        <line class="primary" x1="288" y1="270" x2="288" y2="306" />
        <path class="primary" d="M576.0 288.0 A 288 288 0 0 0 576.0 288.0 A 288 288 0 0 0 570.4661607561304 231.81398725935506 A 288 288 0 0 0 554.0773053632506 177.78717147885413 A 288 288 0 0 0 527.463248343133 127.99577289035457 A 288 288 0 0 0 491.64675298172574 84.35324701827432 A 288 288 0 0 0 448.00422710964546 48.53675165686698 A 288 288 0 0 0 398.21282852114587 21.92269463674944 A 288 288 0 0 0 344.18601274064497 5.533839243869636 A 288 288 0 0 0 288.0 0.0" /><path class="secondary" d="M336.0 288.0 A 48.0 48.0 0 0 0 336.0 288.0 A 48.0 48.0 0 0 0 335.07769345935503 278.63566454322586 A 48.0 48.0 0 0 0 332.34621756054173 269.63119524647567 A 48.0 48.0 0 0 0 327.91054139052216 261.3326288150591 A 48.0 48.0 0 0 0 321.94112549695427 254.05887450304573 A 48.0 48.0 0 0 0 314.6673711849409 248.08945860947784 A 48.0 48.0 0 0 0 306.36880475352433 243.65378243945824 A 48.0 48.0 0 0 0 297.36433545677414 240.92230654064494 A 48.0 48.0 0 0 0 288.0 240.0" /><path class="secondary" d="M384.0 288.0 A 96.0 96.0 0 0 0 384.0 288.0 A 96.0 96.0 0 0 0 382.1553869187101 269.2713290864517 A 96.0 96.0 0 0 0 376.6924351210835 251.2623904929514 A 96.0 96.0 0 0 0 367.8210827810443 234.6652576301182 A 96.0 96.0 0 0 0 355.88225099390854 220.11774900609146 A 96.0 96.0 0 0 0 341.33474236988184 208.17891721895566 A 96.0 96.0 0 0 0 324.7376095070486 199.30756487891648 A 96.0 96.0 0 0 0 306.72867091354834 193.84461308128988 A 96.0 96.0 0 0 0 288.0 192.0" /><path class="secondary" d="M432.0 288.0 A 144.0 144.0 0 0 0 432.0 288.0 A 144.0 144.0 0 0 0 429.2330803780652 259.9069936296775 A 144.0 144.0 0 0 0 421.0386526816253 232.89358573942707 A 144.0 144.0 0 0 0 407.7316241715665 207.9978864451773 A 144.0 144.0 0 0 0 389.82337649086287 186.17662350913716 A 144.0 144.0 0 0 0 368.0021135548227 168.26837582843348 A 144.0 144.0 0 0 0 343.10641426057293 154.96134731837472 A 144.0 144.0 0 0 0 316.0930063703225 146.76691962193482 A 144.0 144.0 0 0 0 288.0 144.0" /><path class="secondary" d="M480.0 288.0 A 192.0 192.0 0 0 0 480.0 288.0 A 192.0 192.0 0 0 0 476.31077383742024 250.54265817290337 A 192.0 192.0 0 0 0 465.38487024216704 214.52478098590277 A 192.0 192.0 0 0 0 447.6421655620887 181.33051526023638 A 192.0 192.0 0 0 0 423.76450198781714 152.2354980121829 A 192.0 192.0 0 0 0 394.6694847397637 128.35783443791132 A 192.0 192.0 0 0 0 361.47521901409726 110.61512975783296 A 192.0 192.0 0 0 0 325.4573418270966 99.68922616257976 A 192.0 192.0 0 0 0 288.0 96.0" /><path class="secondary" d="M528.0 288.0 A 240.0 240.0 0 0 0 528.0 288.0 A 240.0 240.0 0 0 0 523.3884672967753 241.17832271612923 A 240.0 240.0 0 0 0 509.7310878027088 196.15597623237846 A 240.0 240.0 0 0 0 487.55270695261083 154.66314407529546 A 240.0 240.0 0 0 0 457.7056274847714 118.29437251522862 A 240.0 240.0 0 0 0 421.33685592470454 88.44729304738914 A 240.0 240.0 0 0 0 379.8440237676216 66.26891219729117 A 240.0 240.0 0 0 0 334.8216772838708 52.6115327032247 A 240.0 240.0 0 0 0 288.0 48.0" /><line class="primary" x1="310.5" y1="288.0" x2="576.0" y2="288.0" /><line class="primary" x1="310.4556013896361" y1="286.58721331059047" x2="575.4316977873423" y2="269.9163303755578" /><line class="primary" x1="309.7931211253942" y1="282.4044775387908" x2="566.9519504050457" y2="216.37731249652182" /><line class="primary" x1="306.9973783237953" y1="275.9438971129726" x2="531.1664425445804" y2="133.68188304604897" /><line class="primary" x1="300.0561028870274" y1="269.0026216762047" x2="442.318116953951" y2="44.83355745541965" /><line class="primary" x1="288.0" y1="265.5" x2="288.0" y2="0.0" />
    </g>
</svg>
