<svg width="576" height="576" viewBox="0 0 576 576" xmlns="http://www.w3.org/2000/svg">
    
    <style>
    .primary {
        fill: none;
        stroke-width: 2px;
        stroke: #000000;
    }
    .secondary {
        fill: none;
        stroke-width: 1px;
        stroke: #000000;
        stroke-miterlimit: 4;
        stroke-dasharray: 1, 2;
        stroke-dashoffset: 0;
    }
    </style>

    <g id="ruler">
        <circle class="secondary" cx="288" cy="288" r="288" />
        <circle class="primary" cx="288" cy="288" r="9" />
        <circle class="primary" cx="288" cy="288" r="22.5" />
        <line class="primary" x1="270" y1="288" x2="306" y2="288" />
        <line class="primary" x1="288" y1="270" x2="288" y2="306" />
        <path class="primary" d="M576.0 288.0 A 288 288 0 0 0 576.0 288.0 A 288 288 0 0 0 570.4661607561304 231.81398725935506 A 288 288 0 0 0 554.0773053632506 177.78717147885413 A 288 288 0 0 0 527.463248343133 127.99577289035457 A 288 288 0 0 0 491.64675298172574 84.35324701827432 A 288 288 0 0 0 448.00422710964546 48.53675165686698 A 288 288 0 0 0 398.21282852114587 21.92269463674944 A 288 288 0 0 0 344.18601274064497 5.533839243869636 A 288 288 0 0 0 288.0 0.0" /><path class="secondary" d="M336.0 288.0 A 48.0 48.0 0 0 0 336.0 288.0 A 48.0 48.0 0 0 0 335.07769345935503 278.63566454322586 A 48.0 48.0 0 0 0 332.34621756054173 269.63119524647567 A 48.0 48.0 0 0 0 327.91054139052216 261.3326288150591 A 48.0 48.0 0 0 0 321.94112549695427 254.05887450304573 A 48.0 48.0 0 0 0 314.6673711849409 248.08945860947784 A 48.0 48.0 0 0 0 306.36880475352433 243.65378243945824 A 48.0 48.0 0 0 0 297.36433545677414 240.92230654064494 A 48.0 48.0 0 0 0 288.0 240.0" /><path class="secondary" d="M384.0 288.0 A 96.0 96.0 0 0 0 384.0 288.0 A 96.0 96.0 0 0 0 382.1553869187101 269.2713290864517 A 96.0 96.0 0 0 0 376.6924351210835 251.2623904929514 A 96.0 96.0 0 0 0 367.8210827810443 234.6652576301182 A 96.0 96.0 0 0 0 355.88225099390854 220.11774900609146 A 96.0 96.0 0 0 0 341.33474236988184 208.17891721895566 A 96.0 96.0 0 0 0 324.7376095070486 199.30756487891648 A 96.0 96.0 0 0 0 306.72867091354834 193.84461308128988 A 96.0 96.0 0 0 0 288.0 192.0" /><path class="secondary" d="M432.0 288.0 A 144.0 144.0 0 0 0 432.0 288.0 A 144.0 144.0 0 0 0 429.2330803780652 259.9069936296775 A 144.0 144.0 0 0 0 421.0386526816253 232.89358573942707 A 144.0 144.0 0 0 0 407.7316241715665 207.9978864451773 A 144.0 144.0 0 0 0 389.82337649086287 186.17662350913716 A 144.0 144.0 0 0 0 368.0021135548227 168.26837582843348 A 144.0 144.0 0 0 0 343.10641426057293 154.96134731837472 A 144.0 144.0 0 0 0 316.0930063703225 146.76691962193482 A 144.0 144.0 0 0 0 288.0 144.0" /><path class="secondary" d="M480.0 288.0 A 192.0 192.0 0 0 0 480.0 288.0 A 192.0 192.0 0 0 0 476.31077383742024 250.54265817290337 A 192.0 192.0 0 0 0 465.38487024216704 214.52478098590277 A 192.0 192.0 0 0 0 447.6421655620887 181.33051526023638 A 192.0 192.0 0 0 0 423.76450198781714 152.2354980121829 A 192.0 192.0 0 0 0 394.6694847397637 128.35783443791132 A 192.0 192.0 0 0 0 361.47521901409726 110.61512975783296 A 192.0 192.0 0 0 0 325.4573418270966 99.68922616257976 A 192.0 192.0 0 0 0 288.0 96.0" /><path class="secondary" d="M528.0 288.0 A 240.0 240.0 0 0 0 528.0 288.0 A 240.0 240.0 0 0 0 523.3884672967753 241.17832271612923 A 240.0 240.0 0 0 0 509.7310878027088 196.15597623237846 A 240.0 240.0 0 0 0 487.55270695261083 154.66314407529546 A 240.0 240.0 0 0 0 457.7056274847714 118.29437251522862 A 240.0 240.0 0 0 0 421.33685592470454 88.44729304738914 A 240.0 240.0 0 0 0 379.8440237676216 66.26891219729117 A 240.0 240.0 0 0 0 334.8216772838708 52.6115327032247 A 240.0 240.0 0 0 0 288.0 48.0" /><line class="primary" x1="310.5" y1="288.0" x2="576.0" y2="288.0" /><line class="primary" x1="310.49576933509127" y1="287.56369503513395" x2="575.9458474891685" y2="282.41529644971456" /><line class="primary" x1="310.4323411762753" y1="286.25642053488156" x2="575.1339670563241" y2="265.6821828464839" /><line class="primary" x1="310.1581744427747" y1="284.09291600249406" x2="571.6246328675159" y2="237.98932483192408" /><line class="primary" x1="309.42557742011434" y1="281.13016505185993" x2="562.2473909774636" y2="200.06611266380742" /><line class="primary" x1="307.9071404364748" y1="277.5140208066929" x2="542.8113975868774" y2="153.7794663256688" /><line class="primary" x1="305.235999970177" y1="273.53727878205285" x2="508.62079961826566" y2="102.87716841027668" /><line class="primary" x1="301.0835716039806" y1="269.69507841908325" x2="455.4697165309517" y2="53.69700376426533" /><line class="primary" x1="295.28401369631223" y1="266.7116664702956" x2="381.2353753127964" y2="15.509330819783884" /><line class="primary" x1="288.0" y1="265.5" x2="288.0" y2="0.0" />
    </g>
</svg>
