<svg width="576" height="576" viewBox="0 0 576 576" xmlns="http://www.w3.org/2000/svg">
    
    <style>
    .primary {
        fill: none;
        stroke-width: 2px;
        stroke: #000000;
    }
    .secondary {
        fill: none;
        stroke-width: 1px;
        stroke: #000000;
        stroke-miterlimit: 4;
        stroke-dasharray: 1, 2;
        stroke-dashoffset: 0;
    }
    </style>

    <g id="ruler">
        <circle class="secondary" cx="288" cy="288" r="288" />
        <circle class="primary" cx="288" cy="288" r="9" />
        <circle class="primary" cx="288" cy="288" r="22.5" />
        <line class="primary" x1="270" y1="288" x2="306" y2="288" />
        <line class="primary" x1="288" y1="270" x2="288" y2="306" />
        <path class="primary" d="M576.0 288.0 A 288 288 0 0 0 576.0 288.0 A 288 288 0 0 0 491.64675298172574 84.35324701827432 A 288 288 0 0 0 288.0 0.0 A 288 288 0 0 0 84.35324701827432 84.35324701827429 A 288 288 0 0 0 0.0 287.99999999999994 A 288 288 0 0 0 84.35324701827426 491.6467529817257 A 288 288 0 0 0 287.99999999999994 576.0 A 288 288 0 0 0 491.6467529817256 491.64675298172574 A 288 288 0 0 0 576.0 288.00000000000006" /><path class="secondary" d="M336.0 288.0 A 48.0 48.0 0 0 0 336.0 288.0 A 48.0 48.0 0 0 0 321.94112549695427 254.05887450304573 A 48.0 48.0 0 0 0 288.0 240.0 A 48.0 48.0 0 0 0 254.05887450304573 254.05887450304573 A 48.0 48.0 0 0 0 240.0 288.0 A 48.0 48.0 0 0 0 254.05887450304573 321.94112549695427 A 48.0 48.0 0 0 0 288.0 336.0 A 48.0 48.0 0 0 0 321.94112549695427 321.94112549695427 A 48.0 48.0 0 0 0 336.0 288.0" /><path class="secondary" d="M384.0 288.0 A 96.0 96.0 0 0 0 384.0 288.0 A 96.0 96.0 0 0 0 355.88225099390854 220.11774900609146 A 96.0 96.0 0 0 0 288.0 192.0 A 96.0 96.0 0 0 0 220.11774900609146 220.11774900609143 A 96.0 96.0 0 0 0 192.0 288.0 A 96.0 96.0 0 0 0 220.11774900609143 355.88225099390854 A 96.0 96.0 0 0 0 288.0 384.0 A 96.0 96.0 0 0 0 355.88225099390854 355.88225099390854 A 96.0 96.0 0 0 0 384.0 288.0" /><path class="secondary" d="M432.0 288.0 A 144.0 144.0 0 0 0 432.0 288.0 A 144.0 144.0 0 0 0 389.82337649086287 186.17662350913716 A 144.0 144.0 0 0 0 288.0 144.0 A 144.0 144.0 0 0 0 186.17662350913716 186.17662350913713 A 144.0 144.0 0 0 0 144.0 288.0 A 144.0 144.0 0 0 0 186.17662350913713 389.82337649086287 A 144.0 144.0 0 0 0 288.0 432.0 A 144.0 144.0 0 0 0 389.8233764908628 389.82337649086287 A 144.0 144.0 0 0 0 432.0 288.00000000000006" /><path class="secondary" d="M480.0 288.0 A 192.0 192.0 0 0 0 480.0 288.0 A 192.0 192.0 0 0 0 423.76450198781714 152.2354980121829 A 192.0 192.0 0 0 0 288.0 96.0 A 192.0 192.0 0 0 0 152.2354980121829 152.23549801218286 A 192.0 192.0 0 0 0 96.0 288.0 A 192.0 192.0 0 0 0 152.23549801218286 423.7645019878171 A 192.0 192.0 0 0 0 287.99999999999994 480.0 A 192.0 192.0 0 0 0 423.7645019878171 423.76450198781714 A 192.0 192.0 0 0 0 480.0 288.00000000000006" /><path class="secondary" d="M528.0 288.0 A 240.0 240.0 0 0 0 528.0 288.0 A 240.0 240.0 0 0 0 457.7056274847714 118.29437251522862 A 240.0 240.0 0 0 0 288.0 48.0 A 240.0 240.0 0 0 0 118.29437251522862 118.29437251522859 A 240.0 240.0 0 0 0 48.0 287.99999999999994 A 240.0 240.0 0 0 0 118.29437251522856 457.7056274847714 A 240.0 240.0 0 0 0 287.99999999999994 528.0 A 240.0 240.0 0 0 0 457.70562748477136 457.7056274847714 A 240.0 240.0 0 0 0 528.0 288.00000000000006" /><line class="primary" x1="310.5" y1="288.0" x2="576.0" y2="288.0" /><line class="primary" x1="310.4323411762753" y1="286.25642053488156" x2="575.1339670563241" y2="265.6821828464839" /><line class="primary" x1="309.42557742011434" y1="281.13016505185993" x2="562.2473909774636" y2="200.06611266380742" /><line class="primary" x1="305.235999970177" y1="273.53727878205285" x2="508.62079961826566" y2="102.87716841027668" /><line class="primary" x1="295.28401369631223" y1="266.7116664702956" x2="381.2353753127964" y2="15.509330819783884" /><line class="primary" x1="279.896001191894" y1="267.01011664353" x2="184.26881525624333" y2="19.329493037183852" /><line class="primary" x1="266.8569160323171" y1="280.30454677517247" x2="17.368525213658415" y2="189.49819872220735" /><line class="primary" x1="270.2161649358279" y1="301.7835122668471" x2="60.36691117859732" y2="464.4289570156424" /><line class="primary" x1="293.6124257413046" y1="309.7887741118756" x2="359.8390494886987" y2="566.8963086320081" /><line class="primary" x1="310.5" y1="288.0" x2="576.0" y2="288.00000000000006" />
    </g>
</svg>
