<?xml version="1.0" encoding="UTF-8" standalone="no"?>
<!-- Created with Inkscape (http://www.inkscape.org/) -->

<svg
   width="576"
   height="576"
   viewBox="0 0 152.4 152.4"
   version="1.1"
   id="svg5"
   inkscape:version="1.1.2 (0a00cf5339, 2022-02-04)"
   sodipodi:docname="icon-quality-yes.svg"
   xmlns:inkscape="http://www.inkscape.org/namespaces/inkscape"
   xmlns:sodipodi="http://sodipodi.sourceforge.net/DTD/sodipodi-0.dtd"
   xmlns="http://www.w3.org/2000/svg"
   xmlns:svg="http://www.w3.org/2000/svg">
  <sodipodi:namedview
     id="namedview7"
     pagecolor="#ffffff"
     bordercolor="#666666"
     borderopacity="1.0"
     inkscape:pageshadow="2"
     inkscape:pageopacity="0.0"
     inkscape:pagecheckerboard="0"
     inkscape:document-units="mm"
     showgrid="true"
     units="px"
     width="576px"
     inkscape:zoom="0.62614861"
     inkscape:cx="256.32892"
     inkscape:cy="336.9807"
     inkscape:window-width="1680"
     inkscape:window-height="1021"
     inkscape:window-x="0"
     inkscape:window-y="0"
     inkscape:window-maximized="1"
     inkscape:current-layer="layer1">
    <inkscape:grid
       type="xygrid"
       id="grid9"
       spacingx="9.525"
       spacingy="9.525" />
  </sodipodi:namedview>
  <defs
     id="defs2" />
  <g
     inkscape:label="Layer 1"
     inkscape:groupmode="layer"
     id="layer1">
    <path
       id="path33"
       style="fill:#000000;stroke:none;stroke-width:3.99999;paint-order:markers stroke fill"
       d="M 288,0 A 287.99999,287.99999 0 0 0 0,288 287.99999,287.99999 0 0 0 288,576 287.99999,287.99999 0 0 0 576,288 287.99999,287.99999 0 0 0 288,0 Z m 0,108 A 180,180 0 0 1 468,288 180,180 0 0 1 288,468 180,180 0 0 1 108,288 180,180 0 0 1 288,108 Z"
       transform="scale(0.26458333)" />
  </g>
</svg>
