<?xml version="1.0" encoding="UTF-8" standalone="no"?>
<!-- Created with Inkscape (http://www.inkscape.org/) -->

<svg
   width="576"
   height="576"
   viewBox="0 0 152.4 152.4"
   version="1.1"
   id="svg826"
   inkscape:version="1.3.2 (091e20e, 2023-11-25)"
   sodipodi:docname="icon-3d-chroma.svg"
   xmlns:inkscape="http://www.inkscape.org/namespaces/inkscape"
   xmlns:sodipodi="http://sodipodi.sourceforge.net/DTD/sodipodi-0.dtd"
   xmlns="http://www.w3.org/2000/svg"
   xmlns:svg="http://www.w3.org/2000/svg">
  <sodipodi:namedview
     id="namedview828"
     pagecolor="#ffffff"
     bordercolor="#666666"
     borderopacity="1.0"
     inkscape:pageshadow="2"
     inkscape:pageopacity="0.0"
     inkscape:pagecheckerboard="0"
     inkscape:document-units="mm"
     showgrid="true"
     units="px"
     inkscape:zoom="0.88550786"
     inkscape:cx="419.53326"
     inkscape:cy="339.91793"
     inkscape:window-width="1680"
     inkscape:window-height="1021"
     inkscape:window-x="0"
     inkscape:window-y="0"
     inkscape:window-maximized="1"
     inkscape:current-layer="layer1"
     inkscape:showpageshadow="2"
     inkscape:deskcolor="#d1d1d1">
    <inkscape:grid
       type="xygrid"
       id="grid887"
       spacingx="4.7625"
       spacingy="4.7625"
       originx="0"
       originy="0"
       units="px"
       visible="true" />
  </sodipodi:namedview>
  <defs
     id="defs823" />
  <g
     inkscape:label="Layer 1"
     inkscape:groupmode="layer"
     id="layer1">
    <path
       style="fill:#ffffff;fill-rule:evenodd;stroke:#000000;stroke-width:4.23333;stroke-linecap:butt;stroke-dasharray:none;paint-order:normal"
       d="M 142.87499,66.674997 61.912504,38.1 c 0,0 -9.52501,1.640722 -14.2875,4.762497 -1.32769,0.870289 -1.12253,3.639968 0,4.7625 3.36759,3.367595 14.2875,0 14.2875,0 71.728156,27.051525 53.974996,31.75 80.962486,47.625"
       id="path5-7"
       sodipodi:nodetypes="ccsacc" />
    <path
       style="fill:#ffffff;fill-rule:evenodd;stroke:#000000;stroke-width:4.2333298;stroke-linecap:butt;stroke-dasharray:none;paint-order:normal"
       d="M 9.5249996,66.674997 90.487496,38.1 c 0,0 9.525004,1.640722 14.287494,4.762497 1.32769,0.870289 1.12253,3.639968 0,4.7625 -3.36759,3.367595 -14.287494,0 -14.287494,0 -71.72816,27.051525 -53.974998,31.75 -80.9624964,47.625"
       id="path5"
       sodipodi:nodetypes="ccsacc" />
    <path
       style="fill:#ffffff;fill-rule:evenodd;stroke:#000000;stroke-width:4.23333;stroke-linecap:butt;stroke-linejoin:round;stroke-dasharray:none;paint-order:normal"
       d="M 9.5249996,66.674997 H 142.87499 v 33.337493 l -4.7625,4.7625 H 90.487496 c -4.762499,0 -9.54096,-14.27685 -14.287499,-14.28749 -4.74654,-0.0106 -9.525,14.28749 -14.287499,14.28749 H 14.287499 l -4.7624994,-4.7625 z"
       id="path3"
       sodipodi:nodetypes="ccccczcccc" />
    <g
       id="g1">
      <path
         d="M 21.045227,94.363232 C 21.824681,94.919603 22.777681,95.25 23.8125,95.25 H 57.15 c 2.638424,0 4.7625,-2.124076 4.7625,-4.7625 v -9.525 c 0,-1.603605 -0.787348,-3.013555 -1.995227,-3.875732"
         style="fill:#000000;fill-rule:evenodd;stroke:#000000;stroke-width:4.23333;stroke-linecap:butt"
         id="path4"
         sodipodi:nodetypes="cssssc" />
      <path
         style="fill:none;fill-rule:evenodd;stroke:#000000;stroke-width:2.11667;stroke-linecap:butt;stroke-dasharray:none;paint-order:stroke fill markers"
         d="m 19.049999,90.487496 33.337498,-14.2875"
         id="path6" />
      <path
         style="fill:none;fill-rule:evenodd;stroke:#ffffff;stroke-width:2.11666667;stroke-linecap:butt;stroke-dasharray:none;paint-order:stroke fill markers"
         d="M 29.527497,95.249999 61.892013,80.51656"
         id="path1" />
      <rect
         style="fill:none;fill-rule:evenodd;stroke:#000000;stroke-width:4.23333;stroke-linecap:butt;stroke-dasharray:none;paint-order:normal"
         id="rect3-6-2"
         width="42.862499"
         height="19.050003"
         x="19.050003"
         y="76.199997"
         ry="4.7625036"
         rx="4.7625036" />
    </g>
    <g
       id="g2"
       transform="translate(71.437493)">
      <path
         d="M 21.045227,94.363232 C 21.824681,94.919603 22.777681,95.25 23.8125,95.25 H 57.15 c 2.638424,0 4.7625,-2.124076 4.7625,-4.7625 v -9.525 c 0,-1.603605 -0.787348,-3.013555 -1.995227,-3.875732"
         style="fill:#000000;fill-rule:evenodd;stroke:#000000;stroke-width:4.23333;stroke-linecap:butt"
         id="path4-2"
         sodipodi:nodetypes="cssssc" />
      <path
         style="fill:none;fill-rule:evenodd;stroke:#000000;stroke-width:2.11667;stroke-linecap:butt;stroke-dasharray:none;paint-order:stroke fill markers"
         d="m 19.049999,90.487496 33.337498,-14.2875"
         id="path6-9" />
      <path
         style="fill:none;fill-rule:evenodd;stroke:#ffffff;stroke-width:2.11667;stroke-linecap:butt;stroke-dasharray:none;paint-order:stroke fill markers"
         d="M 29.527497,95.249999 61.892013,80.51656"
         id="path1-3" />
      <rect
         style="fill:none;fill-rule:evenodd;stroke:#000000;stroke-width:4.23333;stroke-linecap:butt;stroke-dasharray:none;paint-order:normal"
         id="rect3-6-2-1"
         width="42.862499"
         height="19.050003"
         x="19.050003"
         y="76.199997"
         ry="4.7625036"
         rx="4.7625036" />
    </g>
  </g>
</svg>
