<svg width="576" height="576" viewBox="0 0 576 576" xmlns="http://www.w3.org/2000/svg">
    
    <style>
    .primary {
        fill: none;
        stroke-width: 2px;
        stroke: #000000;
    }
    .secondary {
        fill: none;
        stroke-width: 1px;
        stroke: #000000;
        stroke-miterlimit: 4;
        stroke-dasharray: 1, 2;
        stroke-dashoffset: 0;
    }
    </style>

    <g id="ruler">
        <circle class="secondary" cx="288" cy="288" r="288" />
        <circle class="primary" cx="288" cy="288" r="9" />
        <circle class="primary" cx="288" cy="288" r="22.5" />
        <line class="primary" x1="270" y1="288" x2="306" y2="288" />
        <line class="primary" x1="288" y1="270" x2="288" y2="306" />
        <path class="primary" d="M576.0 288.0 A 288 288 0 0 0 576.0 288.0 A 288 288 0 0 0 491.64675298172574 84.35324701827432 A 288 288 0 0 0 288.0 0.0 A 288 288 0 0 0 84.35324701827432 84.35324701827429 A 288 288 0 0 0 0.0 287.99999999999994 A 288 288 0 0 0 84.35324701827426 491.6467529817257 A 288 288 0 0 0 287.99999999999994 576.0 A 288 288 0 0 0 491.6467529817256 491.64675298172574 A 288 288 0 0 0 576.0 288.00000000000006" /><path class="secondary" d="M336.0 288.0 A 48.0 48.0 0 0 0 336.0 288.0 A 48.0 48.0 0 0 0 321.94112549695427 254.05887450304573 A 48.0 48.0 0 0 0 288.0 240.0 A 48.0 48.0 0 0 0 254.05887450304573 254.05887450304573 A 48.0 48.0 0 0 0 240.0 288.0 A 48.0 48.0 0 0 0 254.05887450304573 321.94112549695427 A 48.0 48.0 0 0 0 288.0 336.0 A 48.0 48.0 0 0 0 321.94112549695427 321.94112549695427 A 48.0 48.0 0 0 0 336.0 288.0" /><path class="secondary" d="M384.0 288.0 A 96.0 96.0 0 0 0 384.0 288.0 A 96.0 96.0 0 0 0 355.88225099390854 220.11774900609146 A 96.0 96.0 0 0 0 288.0 192.0 A 96.0 96.0 0 0 0 220.11774900609146 220.11774900609143 A 96.0 96.0 0 0 0 192.0 288.0 A 96.0 96.0 0 0 0 220.11774900609143 355.88225099390854 A 96.0 96.0 0 0 0 288.0 384.0 A 96.0 96.0 0 0 0 355.88225099390854 355.88225099390854 A 96.0 96.0 0 0 0 384.0 288.0" /><path class="secondary" d="M432.0 288.0 A 144.0 144.0 0 0 0 432.0 288.0 A 144.0 144.0 0 0 0 389.82337649086287 186.17662350913716 A 144.0 144.0 0 0 0 288.0 144.0 A 144.0 144.0 0 0 0 186.17662350913716 186.17662350913713 A 144.0 144.0 0 0 0 144.0 288.0 A 144.0 144.0 0 0 0 186.17662350913713 389.82337649086287 A 144.0 144.0 0 0 0 288.0 432.0 A 144.0 144.0 0 0 0 389.8233764908628 389.82337649086287 A 144.0 144.0 0 0 0 432.0 288.00000000000006" /><path class="secondary" d="M480.0 288.0 A 192.0 192.0 0 0 0 480.0 288.0 A 192.0 192.0 0 0 0 423.76450198781714 152.2354980121829 A 192.0 192.0 0 0 0 288.0 96.0 A 192.0 192.0 0 0 0 152.2354980121829 152.23549801218286 A 192.0 192.0 0 0 0 96.0 288.0 A 192.0 192.0 0 0 0 152.23549801218286 423.7645019878171 A 192.0 192.0 0 0 0 287.99999999999994 480.0 A 192.0 192.0 0 0 0 423.7645019878171 423.76450198781714 A 192.0 192.0 0 0 0 480.0 288.00000000000006" /><path class="secondary" d="M528.0 288.0 A 240.0 240.0 0 0 0 528.0 288.0 A 240.0 240.0 0 0 0 457.7056274847714 118.29437251522862 A 240.0 240.0 0 0 0 288.0 48.0 A 240.0 240.0 0 0 0 118.29437251522862 118.29437251522859 A 240.0 240.0 0 0 0 48.0 287.99999999999994 A 240.0 240.0 0 0 0 118.29437251522856 457.7056274847714 A 240.0 240.0 0 0 0 287.99999999999994 528.0 A 240.0 240.0 0 0 0 457.70562748477136 457.7056274847714 A 240.0 240.0 0 0 0 528.0 288.00000000000006" /><line class="primary" x1="310.5" y1="288.0" x2="576.0" y2="288.0" /><line class="primary" x1="309.15090456254313" y1="280.3260677494396" x2="558.7315784005523" y2="189.77366719282657" /><line class="primary" x1="295.1876514670181" y1="266.6789384319478" x2="380.001938777832" y2="15.090411928931928" /><line class="primary" x1="270.34473158715235" y1="274.05218664914446" x2="62.01256431555001" y2="109.46798910904917" /><line class="primary" x1="270.34473158715235" y1="301.94781335085554" x2="62.012564315549895" y2="466.5320108909507" /><line class="primary" x1="295.1876514670181" y1="309.3210615680522" x2="380.0019387778318" y2="560.9095880710681" /><line class="primary" x1="309.15090456254313" y1="295.6739322505604" x2="558.7315784005523" y2="386.22633280717343" /><line class="primary" x1="310.5" y1="288.0" x2="576.0" y2="288.00000000000006" />
    </g>
</svg>
