<?xml version="1.0" encoding="UTF-8" standalone="no"?>
<!-- Created with Inkscape (http://www.inkscape.org/) -->

<svg
   width="576"
   height="576"
   viewBox="0 0 152.4 152.4"
   version="1.1"
   id="svg1"
   inkscape:version="1.3.2 (091e20e, 2023-11-25)"
   sodipodi:docname="dial-12.svg"
   xmlns:inkscape="http://www.inkscape.org/namespaces/inkscape"
   xmlns:sodipodi="http://sodipodi.sourceforge.net/DTD/sodipodi-0.dtd"
   xmlns="http://www.w3.org/2000/svg"
   xmlns:svg="http://www.w3.org/2000/svg">
  <sodipodi:namedview
     id="namedview1"
     pagecolor="#ffffff"
     bordercolor="#666666"
     borderopacity="1.0"
     inkscape:showpageshadow="2"
     inkscape:pageopacity="0.0"
     inkscape:pagecheckerboard="0"
     inkscape:deskcolor="#d1d1d1"
     inkscape:document-units="mm"
     showgrid="true"
     inkscape:zoom="0.70710677"
     inkscape:cx="309.71277"
     inkscape:cy="343.6539"
     inkscape:window-width="1680"
     inkscape:window-height="1021"
     inkscape:window-x="0"
     inkscape:window-y="0"
     inkscape:window-maximized="1"
     inkscape:current-layer="layer2"
     inkscape:pageshadow="2"
     inkscape:snap-page="true"
     inkscape:snap-object-midpoints="true">
    <inkscape:grid
       id="grid1"
       units="px"
       originx="0"
       originy="0"
       spacingx="2.38125"
       spacingy="2.38125"
       empcolor="#3f3fff"
       empopacity="0.25098039"
       color="#3f3fff"
       opacity="0.1254902"
       empspacing="4"
       dotted="false"
       gridanglex="30"
       gridanglez="30"
       visible="true" />
  </sodipodi:namedview>
  <defs
     id="defs1">
    <inkscape:path-effect
       effect="copy_rotate"
       starting_point="88.106246,76.199997"
       origin="76.199997,76.199997"
       id="path-effect35"
       is_visible="true"
       lpeversion="1.2"
       lpesatellites="#path6 | #path7 | #path8 | #path9 | #path10"
       method="normal"
       num_copies="5"
       starting_angle="0"
       rotation_angle="72"
       gap="-0.01"
       copies_to_360="true"
       mirror_copies="false"
       split_items="true"
       link_styles="false" />
    <inkscape:path-effect
       effect="copy_rotate"
       starting_point="79.771872,75.009374"
       origin="76.199997,75.009374"
       id="path-effect12"
       is_visible="true"
       lpeversion="1.2"
       lpesatellites="#path22 | #path23 | #path24 | #path25 | #path26 | #path27 | #path28 | #path29 | #path30"
       method="normal"
       num_copies="10"
       starting_angle="0"
       rotation_angle="36"
       gap="-0.01"
       copies_to_360="true"
       mirror_copies="false"
       split_items="true"
       link_styles="false" />
    <inkscape:path-effect
       effect="copy_rotate"
       starting_point="81.093271,76.199997"
       origin="76.199997,76.199997"
       id="path-effect11"
       is_visible="true"
       lpeversion="1.2"
       lpesatellites=""
       method="normal"
       num_copies="24"
       starting_angle="0"
       rotation_angle="15"
       gap="-0.01"
       copies_to_360="true"
       mirror_copies="false"
       split_items="false"
       link_styles="false" />
    <inkscape:path-effect
       effect="copy_rotate"
       starting_point="77.993946,76.199997"
       origin="76.199997,76.199997"
       id="path-effect10"
       is_visible="true"
       lpeversion="1.2"
       lpesatellites=""
       method="normal"
       num_copies="72"
       starting_angle="0"
       rotation_angle="5"
       gap="-0.01"
       copies_to_360="true"
       mirror_copies="false"
       split_items="false"
       link_styles="false" />
    <inkscape:path-effect
       effect="copy_rotate"
       starting_point="80.862229,76.199997"
       origin="76.199997,76.199997"
       id="path-effect8"
       is_visible="true"
       lpeversion="1.2"
       lpesatellites=""
       method="normal"
       num_copies="24"
       starting_angle="0"
       rotation_angle="15"
       gap="-0.01"
       copies_to_360="true"
       mirror_copies="false"
       split_items="false"
       link_styles="false" />
    <inkscape:path-effect
       effect="copy_rotate"
       starting_point="95.249996,76.199997"
       origin="76.199997,76.199997"
       id="path-effect7"
       is_visible="true"
       lpeversion="1.2"
       lpesatellites=""
       method="normal"
       num_copies="72"
       starting_angle="0"
       rotation_angle="5"
       gap="-0.01"
       copies_to_360="true"
       mirror_copies="false"
       split_items="false"
       link_styles="false" />
    <inkscape:path-effect
       effect="copy_rotate"
       starting_point="77.199997,76.199997"
       origin="76.199997,76.199997"
       id="path-effect4"
       is_visible="true"
       lpeversion="1.2"
       lpesatellites=""
       method="normal"
       num_copies="5"
       starting_angle="0"
       rotation_angle="72"
       gap="-0.01"
       copies_to_360="true"
       mirror_copies="false"
       split_items="false"
       link_styles="false" />
    <inkscape:path-effect
       effect="copy_rotate"
       starting_point="77.199997,76.199997"
       origin="76.199997,76.199997"
       id="path-effect4-7"
       is_visible="true"
       lpeversion="1.2"
       lpesatellites=""
       method="normal"
       num_copies="5"
       starting_angle="0"
       rotation_angle="20"
       gap="-0.01"
       copies_to_360="true"
       mirror_copies="false"
       split_items="false"
       link_styles="false" />
    <inkscape:path-effect
       effect="copy_rotate"
       starting_point="77.199997,76.199997"
       origin="76.199997,76.199997"
       id="path-effect4-7-2"
       is_visible="true"
       lpeversion="1.2"
       lpesatellites=""
       method="normal"
       num_copies="10"
       starting_angle="0"
       rotation_angle="30"
       gap="-0.01"
       copies_to_360="true"
       mirror_copies="false"
       split_items="false"
       link_styles="false" />
    <inkscape:path-effect
       effect="copy_rotate"
       starting_point="77.199997,76.199997"
       origin="76.199997,76.199997"
       id="path-effect4-7-2-0"
       is_visible="true"
       lpeversion="1.2"
       lpesatellites=""
       method="normal"
       num_copies="50"
       starting_angle="0"
       rotation_angle="7.2"
       gap="-0.01"
       copies_to_360="true"
       mirror_copies="false"
       split_items="false"
       link_styles="false" />
  </defs>
  <g
     inkscape:groupmode="layer"
     id="layer2"
     inkscape:label="Alignment Circles"
     style="display:none"
     sodipodi:insensitive="true">
    <path
       style="fill:#ffffff;stroke:#e6e6e6;stroke-width:0.79375;stroke-linecap:square;stroke-dasharray:none;paint-order:markers fill stroke"
       id="path12"
       inkscape:path-effect="#path-effect12"
       sodipodi:type="arc"
       sodipodi:cx="76.199997"
       sodipodi:cy="13.096874"
       sodipodi:rx="4.7624998"
       sodipodi:ry="4.7624998"
       d="m 80.962497,13.096874 c 0,2.630256 -2.132244,4.7625 -4.7625,4.7625 -2.630256,0 -4.7625,-2.132244 -4.7625,-4.7625 0,-2.630256 2.132244,-4.7624996 4.7625,-4.7624996 2.630256,0 4.7625,2.1322436 4.7625,4.7624996 z"
       transform="translate(3.0517578e-6,1.1906258)" />
    <path
       style="fill:none;stroke:#e6e6e6;stroke-width:1.05833;stroke-linecap:square;stroke-dasharray:none;paint-order:markers fill stroke"
       id="path5"
       inkscape:transform-center-y="-54.768747"
       inkscape:path-effect="#path-effect35"
       sodipodi:type="arc"
       sodipodi:cx="76.199997"
       sodipodi:cy="21.43125"
       sodipodi:rx="9.5249996"
       sodipodi:ry="9.5249996"
       d="m 85.724997,21.43125 c 0,5.260512 -4.264488,9.524999 -9.525,9.524999 -5.260512,0 -9.525,-4.264487 -9.525,-9.524999 0,-5.260512 4.264488,-9.525 9.525,-9.525 5.260512,0 9.525,4.264488 9.525,9.525 z" />
    <path
       style="fill:none;stroke:#e6e6e6;stroke-width:1.05833;stroke-linecap:square;stroke-dasharray:none;paint-order:markers fill stroke"
       id="path6"
       d="m 85.724997,21.43125 c 0,5.260512 -4.264488,9.524999 -9.525,9.524999 -5.260512,0 -9.525,-4.264487 -9.525,-9.524999 0,-5.260512 4.264488,-9.525 9.525,-9.525 5.260512,0 9.525,4.264488 9.525,9.525 z"
       transform="rotate(-72,76.199997,76.199997)" />
    <path
       style="fill:none;stroke:#e6e6e6;stroke-width:1.05833;stroke-linecap:square;stroke-dasharray:none;paint-order:markers fill stroke"
       id="path7"
       d="m 85.724997,21.43125 c 0,5.260512 -4.264488,9.524999 -9.525,9.524999 -5.260512,0 -9.525,-4.264487 -9.525,-9.524999 0,-5.260512 4.264488,-9.525 9.525,-9.525 5.260512,0 9.525,4.264488 9.525,9.525 z"
       transform="rotate(-144,76.199997,76.199997)" />
    <path
       style="fill:none;stroke:#e6e6e6;stroke-width:1.05833;stroke-linecap:square;stroke-dasharray:none;paint-order:markers fill stroke"
       id="path8"
       d="m 85.724997,21.43125 c 0,5.260512 -4.264488,9.524999 -9.525,9.524999 -5.260512,0 -9.525,-4.264487 -9.525,-9.524999 0,-5.260512 4.264488,-9.525 9.525,-9.525 5.260512,0 9.525,4.264488 9.525,9.525 z"
       transform="rotate(144,76.199997,76.199997)" />
    <path
       style="fill:none;stroke:#e6e6e6;stroke-width:1.05833;stroke-linecap:square;stroke-dasharray:none;paint-order:markers fill stroke"
       id="path9"
       d="m 85.724997,21.43125 c 0,5.260512 -4.264488,9.524999 -9.525,9.524999 -5.260512,0 -9.525,-4.264487 -9.525,-9.524999 0,-5.260512 4.264488,-9.525 9.525,-9.525 5.260512,0 9.525,4.264488 9.525,9.525 z"
       transform="rotate(72,76.199997,76.199997)" />
    <path
       style="display:none;fill:none;stroke:#e6e6e6;stroke-width:1.05833;stroke-linecap:square;stroke-dasharray:none;paint-order:markers fill stroke"
       id="path10"
       d="m 85.724997,21.43125 c 0,5.260512 -4.264488,9.524999 -9.525,9.524999 -5.260512,0 -9.525,-4.264487 -9.525,-9.524999 0,-5.260512 4.264488,-9.525 9.525,-9.525 5.260512,0 9.525,4.264488 9.525,9.525 z"
       transform="rotate(60,76.199997,76.199997)" />
    <path
       transform="rotate(-36,78.032183,75.604682)"
       style="fill:#ffffff;stroke:#e6e6e6;stroke-width:0.79375;stroke-linecap:square;stroke-dasharray:none;paint-order:markers fill stroke"
       id="path22"
       d="m 80.962497,13.096874 c 0,2.630256 -2.132244,4.7625 -4.7625,4.7625 -2.630256,0 -4.7625,-2.132244 -4.7625,-4.7625 0,-2.630256 2.132244,-4.7624996 4.7625,-4.7624996 2.630256,0 4.7625,2.1322436 4.7625,4.7624996 z" />
    <path
       transform="rotate(-72,77.019376,75.604685)"
       style="fill:#ffffff;stroke:#e6e6e6;stroke-width:0.79375;stroke-linecap:square;stroke-dasharray:none;paint-order:markers fill stroke"
       id="path23"
       d="m 80.962497,13.096874 c 0,2.630256 -2.132244,4.7625 -4.7625,4.7625 -2.630256,0 -4.7625,-2.132244 -4.7625,-4.7625 0,-2.630256 2.132244,-4.7624996 4.7625,-4.7624996 2.630256,0 4.7625,2.1322436 4.7625,4.7624996 z" />
    <path
       transform="rotate(-108,76.632519,75.604686)"
       style="fill:#ffffff;stroke:#e6e6e6;stroke-width:0.79375;stroke-linecap:square;stroke-dasharray:none;paint-order:markers fill stroke"
       id="path24"
       d="m 80.962497,13.096874 c 0,2.630256 -2.132244,4.7625 -4.7625,4.7625 -2.630256,0 -4.7625,-2.132244 -4.7625,-4.7625 0,-2.630256 2.132244,-4.7624996 4.7625,-4.7624996 2.630256,0 4.7625,2.1322436 4.7625,4.7624996 z" />
    <path
       transform="rotate(-144,76.393427,75.604686)"
       style="fill:#ffffff;stroke:#e6e6e6;stroke-width:0.79375;stroke-linecap:square;stroke-dasharray:none;paint-order:markers fill stroke"
       id="path25"
       d="m 80.962497,13.096874 c 0,2.630256 -2.132244,4.7625 -4.7625,4.7625 -2.630256,0 -4.7625,-2.132244 -4.7625,-4.7625 0,-2.630256 2.132244,-4.7624996 4.7625,-4.7624996 2.630256,0 4.7625,2.1322436 4.7625,4.7624996 z" />
    <path
       transform="rotate(180,76.199999,75.604687)"
       style="fill:#ffffff;stroke:#e6e6e6;stroke-width:0.79375;stroke-linecap:square;stroke-dasharray:none;paint-order:markers fill stroke"
       id="path26"
       d="m 80.962497,13.096874 c 0,2.630256 -2.132244,4.7625 -4.7625,4.7625 -2.630256,0 -4.7625,-2.132244 -4.7625,-4.7625 0,-2.630256 2.132244,-4.7624996 4.7625,-4.7624996 2.630256,0 4.7625,2.1322436 4.7625,4.7624996 z" />
    <path
       transform="rotate(144,76.00657,75.604687)"
       style="fill:#ffffff;stroke:#e6e6e6;stroke-width:0.79375;stroke-linecap:square;stroke-dasharray:none;paint-order:markers fill stroke"
       id="path27"
       d="m 80.962497,13.096874 c 0,2.630256 -2.132244,4.7625 -4.7625,4.7625 -2.630256,0 -4.7625,-2.132244 -4.7625,-4.7625 0,-2.630256 2.132244,-4.7624996 4.7625,-4.7624996 2.630256,0 4.7625,2.1322436 4.7625,4.7624996 z" />
    <path
       transform="rotate(108,75.767478,75.604688)"
       style="fill:#ffffff;stroke:#e6e6e6;stroke-width:0.79375;stroke-linecap:square;stroke-dasharray:none;paint-order:markers fill stroke"
       id="path28"
       d="m 80.962497,13.096874 c 0,2.630256 -2.132244,4.7625 -4.7625,4.7625 -2.630256,0 -4.7625,-2.132244 -4.7625,-4.7625 0,-2.630256 2.132244,-4.7624996 4.7625,-4.7624996 2.630256,0 4.7625,2.1322436 4.7625,4.7624996 z" />
    <path
       transform="rotate(72,75.380621,75.604689)"
       style="fill:#ffffff;stroke:#e6e6e6;stroke-width:0.79375;stroke-linecap:square;stroke-dasharray:none;paint-order:markers fill stroke"
       id="path29"
       d="m 80.962497,13.096874 c 0,2.630256 -2.132244,4.7625 -4.7625,4.7625 -2.630256,0 -4.7625,-2.132244 -4.7625,-4.7625 0,-2.630256 2.132244,-4.7624996 4.7625,-4.7624996 2.630256,0 4.7625,2.1322436 4.7625,4.7624996 z" />
    <path
       transform="rotate(36,74.367814,75.604692)"
       style="fill:#ffffff;stroke:#e6e6e6;stroke-width:0.79375;stroke-linecap:square;stroke-dasharray:none;paint-order:markers fill stroke"
       id="path30"
       d="m 80.962497,13.096874 c 0,2.630256 -2.132244,4.7625 -4.7625,4.7625 -2.630256,0 -4.7625,-2.132244 -4.7625,-4.7625 0,-2.630256 2.132244,-4.7624996 4.7625,-4.7624996 2.630256,0 4.7625,2.1322436 4.7625,4.7624996 z" />
  </g>
  <g
     inkscape:label="Layer 1"
     inkscape:groupmode="layer"
     id="layer1">
    <circle
       style="fill:none;stroke:#000000;stroke-width:1.05833;stroke-linecap:square;stroke-dasharray:none;paint-order:markers fill stroke"
       id="path1"
       cx="76.199997"
       cy="76.199997"
       r="76.199997" />
    <circle
       style="fill:none;stroke:#000000;stroke-width:0.529167;stroke-linecap:square;stroke-dasharray:none;paint-order:markers fill stroke"
       id="path2"
       cx="76.199997"
       cy="76.199997"
       r="71.4375" />
    <circle
       style="fill:none;stroke:#000000;stroke-width:1.05833;stroke-linecap:square;stroke-dasharray:none;paint-order:markers fill stroke"
       id="path3"
       cx="76.199997"
       cy="76.199997"
       r="69.056252" />
    <path
       style="fill:none;stroke:#000000;stroke-width:1.05833;stroke-linecap:butt;stroke-linejoin:miter;stroke-dasharray:none;stroke-opacity:1"
       d="m 76.199996,0 10e-7,11.90625 M 3.729493,52.652904 15.05301,56.332137 m 16.357753,81.514953 6.998318,-9.63236 m 82.580149,9.63236 -6.99832,-9.63236 m 34.67959,-75.561828 -11.32352,3.679235"
       id="path4"
       inkscape:path-effect="#path-effect4"
       inkscape:original-d="m 76.199996,0 10e-7,11.90625"
       sodipodi:nodetypes="cc" />
    <path
       style="fill:none;stroke:#000000;stroke-width:0.529167;stroke-linecap:butt;stroke-linejoin:miter;stroke-dasharray:none;stroke-opacity:1"
       d="M 76.199996,0 V 9.5249996 M 3.729493,52.652904 l 9.058813,2.943387 m 18.622457,82.250799 5.598655,-7.70589 m 83.979812,7.70589 -5.59865,-7.70589 m 33.27992,-77.488298 -9.05881,2.943387"
       id="path4-3"
       inkscape:path-effect="#path-effect4-7"
       inkscape:original-d="M 76.199996,0 V 9.5249996"
       sodipodi:nodetypes="cc" />
    <path
       style="fill:none;stroke:#000000;stroke-width:1.05833;stroke-linecap:butt;stroke-linejoin:miter;stroke-miterlimit:4;stroke-dasharray:none;stroke-opacity:1"
       d="m 76.199996,0 4e-6,9.525 m -44.789238,5.027905 5.598657,7.705885 M 3.729493,52.652904 12.788308,55.596287 M 3.7294936,99.747092 12.788306,96.803701 m 18.622457,41.043389 5.598652,-7.70589 m 39.190583,22.25879 -4e-6,-9.525 m 44.789236,-5.0279 -5.59866,-7.70589 m 33.27993,-30.39411 -9.05881,-2.943383 m 9.05881,-44.150805 -9.05881,2.943391 m -18.62246,-41.043389 -5.59865,7.705889"
       id="path4-3-1"
       sodipodi:nodetypes="cc"
       inkscape:original-d="M 76.199996,0 76.2,9.525"
       inkscape:path-effect="#path-effect4-7-2" />
    <path
       style="fill:none;stroke:#000000;stroke-width:0.529167;stroke-linecap:butt;stroke-linejoin:miter;stroke-dasharray:none;stroke-opacity:1"
       d="m 76.199996,0 v 4.7625001 m -9.550392,-4.16164024 0.5969,4.72494634 M 57.249827,2.3939633 58.434213,7.0068407 M 48.148906,5.3510319 49.902099,9.7790925 M 39.490368,9.4254311 41.78472,13.598842 m -10.373958,0.954063 2.799327,3.852944 m -10.17258,2.246741 3.260156,3.471714 m -9.810775,3.503988 3.669569,3.035731 m -9.294248,4.705975 4.021112,2.551875 m -8.6311451,5.833744 4.3092391,2.027774 m -7.831924,6.869513 4.5294068,1.471693 m -6.9091885,7.796945 4.6781431,0.892404 M 0.15036323,71.415361 4.9034656,71.7144 M 0.15036335,80.984635 4.9034657,80.685596 M 1.3497116,90.478454 6.0278548,89.58605 M 3.7294936,99.747092 8.2589004,98.275399 M 7.2521787,108.64438 11.561418,106.6166 m 0.300794,10.4134 4.021112,-2.55188 m 1.603567,10.29358 3.669569,-3.03573 m 2.88105,10.01143 3.260156,-3.47171 m 4.113097,9.5714 2.799328,-3.85294 m 5.280278,8.98041 2.294352,-4.17341 m 6.364187,8.24781 1.753193,-4.42806 m 7.347728,7.38513 1.184386,-4.61288 m 8.215391,6.40598 0.5969,-4.72494 m 8.953492,5.3258 v -4.7625 m 9.550392,4.16164 -0.5969,-4.72494 m 9.996677,2.93184 -1.184386,-4.61288 m 10.285309,1.65581 -1.7532,-4.42806 m 10.41174,0.35366 -2.29436,-4.17341 m 10.37396,-0.95406 -2.79933,-3.85294 m 10.17259,-2.24675 -3.26016,-3.47171 m 9.81077,-3.50399 -3.66956,-3.03573 m 9.29424,-4.70597 -4.02111,-2.55188 m 8.63115,-5.83374 -4.30924,-2.02778 m 7.83192,-6.86951 -4.52941,-1.471693 m 6.90919,-7.796945 -4.67814,-0.892404 m 5.87749,-8.601415 -4.7531,-0.299039 m 4.7531,-9.270235 -4.7531,0.299039 m 3.55375,-9.792858 -4.67814,0.892404 m 2.29836,-10.161042 -4.52941,1.471693 m 1.00673,-10.36898 -4.30924,2.027774 m -0.3008,-10.413393 -4.02111,2.551875 m -1.60357,-10.293581 -3.66957,3.035732 m -2.88105,-10.011433 -3.26015,3.471713 m -4.1131,-9.571398 -2.79933,3.852943 m -5.28028,-8.9804169 -2.29435,4.1734109 m -6.36418,-8.2478098 -1.7532,4.4280606 M 95.150165,2.3939628 93.965779,7.0068402 M 85.750388,0.60085961 85.153488,5.325806"
       id="path4-3-1-3"
       sodipodi:nodetypes="cc"
       inkscape:original-d="M 76.199996,0 V 4.7625001"
       inkscape:path-effect="#path-effect4-7-2-0" />
    <text
       xml:space="preserve"
       style="font-style:normal;font-variant:normal;font-weight:bold;font-stretch:normal;font-size:14.8167px;line-height:1.25;font-family:'Noto Sans';-inkscape-font-specification:'Noto Sans, Bold';font-variant-ligatures:normal;font-variant-caps:normal;font-variant-numeric:normal;font-variant-east-asian:normal;text-align:end;letter-spacing:0px;word-spacing:0px;writing-mode:lr-tb;text-anchor:end;stroke-width:0.264583"
       x="136.60031"
       y="64.572495"
       id="dial_label_1"
       inkscape:transform-center-x="-0.067748057"
       inkscape:transform-center-y="-56.271569"><tspan
         sodipodi:role="line"
         id="tspan4-6"
         style="font-style:normal;font-variant:normal;font-weight:bold;font-stretch:normal;font-size:14.8167px;font-family:'Noto Sans';-inkscape-font-specification:'Noto Sans, Bold';font-variant-ligatures:normal;font-variant-caps:normal;font-variant-numeric:normal;font-variant-east-asian:normal;text-align:end;text-anchor:end;stroke-width:0.264583"
         x="136.60031"
         y="64.572495">10</tspan></text>
    <text
       xml:space="preserve"
       style="font-style:normal;font-variant:normal;font-weight:bold;font-stretch:normal;font-size:14.8167px;line-height:1.25;font-family:'Noto Sans';-inkscape-font-specification:'Noto Sans, Bold';font-variant-ligatures:normal;font-variant-caps:normal;font-variant-numeric:normal;font-variant-east-asian:normal;text-align:end;letter-spacing:0px;word-spacing:0px;writing-mode:lr-tb;text-anchor:end;stroke-width:0.264583"
       x="116.85997"
       y="125.80582"
       id="dial_label_2"
       inkscape:transform-center-x="-0.067748057"
       inkscape:transform-center-y="-56.271569"><tspan
         sodipodi:role="line"
         id="tspan4-6-1"
         style="font-style:normal;font-variant:normal;font-weight:bold;font-stretch:normal;font-size:14.8167px;font-family:'Noto Sans';-inkscape-font-specification:'Noto Sans, Bold';font-variant-ligatures:normal;font-variant-caps:normal;font-variant-numeric:normal;font-variant-east-asian:normal;text-align:end;text-anchor:end;stroke-width:0.264583"
         x="116.85997"
         y="125.80582">20</tspan></text>
    <text
       xml:space="preserve"
       style="font-style:normal;font-variant:normal;font-weight:bold;font-stretch:normal;font-size:14.8167px;line-height:1.25;font-family:'Noto Sans';-inkscape-font-specification:'Noto Sans, Bold';font-variant-ligatures:normal;font-variant-caps:normal;font-variant-numeric:normal;font-variant-east-asian:normal;text-align:center;letter-spacing:0px;word-spacing:0px;writing-mode:lr-tb;text-anchor:middle;stroke-width:0.264583"
       x="76.111084"
       y="26.72822"
       id="dial_label_5"
       inkscape:transform-center-x="-0.067748057"
       inkscape:transform-center-y="-56.271569"><tspan
         sodipodi:role="line"
         id="tspan4-6-7"
         style="font-style:normal;font-variant:normal;font-weight:bold;font-stretch:normal;font-size:14.8167px;font-family:'Noto Sans';-inkscape-font-specification:'Noto Sans, Bold';font-variant-ligatures:normal;font-variant-caps:normal;font-variant-numeric:normal;font-variant-east-asian:normal;text-align:center;text-anchor:middle;stroke-width:0.264583"
         x="76.111084"
         y="26.72822">50</tspan></text>
    <text
       xml:space="preserve"
       style="font-style:normal;font-variant:normal;font-weight:bold;font-stretch:normal;font-size:14.8167px;line-height:1.25;font-family:'Noto Sans';-inkscape-font-specification:'Noto Sans, Bold';font-variant-ligatures:normal;font-variant-caps:normal;font-variant-numeric:normal;font-variant-east-asian:normal;text-align:start;letter-spacing:0px;word-spacing:0px;writing-mode:lr-tb;text-anchor:start;stroke-width:0.264583"
       x="15.784847"
       y="64.572495"
       id="dial_label_4"
       inkscape:transform-center-x="-0.067748057"
       inkscape:transform-center-y="-56.271569"><tspan
         sodipodi:role="line"
         id="tspan4-6-1-5"
         style="font-style:normal;font-variant:normal;font-weight:bold;font-stretch:normal;font-size:14.8167px;font-family:'Noto Sans';-inkscape-font-specification:'Noto Sans, Bold';font-variant-ligatures:normal;font-variant-caps:normal;font-variant-numeric:normal;font-variant-east-asian:normal;text-align:start;text-anchor:start;stroke-width:0.264583"
         x="15.784847"
         y="64.572495">40</tspan></text>
    <text
       xml:space="preserve"
       style="font-style:normal;font-variant:normal;font-weight:bold;font-stretch:normal;font-size:14.8167px;line-height:1.25;font-family:'Noto Sans';-inkscape-font-specification:'Noto Sans, Bold';font-variant-ligatures:normal;font-variant-caps:normal;font-variant-numeric:normal;font-variant-east-asian:normal;text-align:start;letter-spacing:0px;word-spacing:0px;writing-mode:lr-tb;text-anchor:start;stroke-width:0.264583"
       x="35.525185"
       y="125.80582"
       id="dial_label_3"
       inkscape:transform-center-x="-0.067748057"
       inkscape:transform-center-y="-56.271569"><tspan
         sodipodi:role="line"
         id="tspan4-6-1-6"
         style="font-style:normal;font-variant:normal;font-weight:bold;font-stretch:normal;font-size:14.8167px;font-family:'Noto Sans';-inkscape-font-specification:'Noto Sans, Bold';font-variant-ligatures:normal;font-variant-caps:normal;font-variant-numeric:normal;font-variant-east-asian:normal;text-align:start;text-anchor:start;stroke-width:0.264583"
         x="35.525185"
         y="125.80582">30</tspan></text>
    <text
       xml:space="preserve"
       style="font-style:normal;font-variant:normal;font-weight:bold;font-stretch:normal;font-size:9.525px;line-height:1.25;font-family:'Noto Sans';-inkscape-font-specification:'Noto Sans, Bold';font-variant-ligatures:normal;font-variant-caps:normal;font-variant-numeric:normal;font-variant-east-asian:normal;text-align:end;letter-spacing:0px;word-spacing:0px;writing-mode:lr-tb;text-anchor:end;stroke-width:0.264583"
       x="115.3011"
       y="29.464535"
       id="text4-04-2"
       inkscape:transform-center-x="-0.067748057"
       inkscape:transform-center-y="-56.271569"><tspan
         sodipodi:role="line"
         id="tspan4-8-7"
         style="font-style:normal;font-variant:normal;font-weight:bold;font-stretch:normal;font-size:9.525px;font-family:'Noto Sans';-inkscape-font-specification:'Noto Sans, Bold';font-variant-ligatures:normal;font-variant-caps:normal;font-variant-numeric:normal;font-variant-east-asian:normal;text-align:end;text-anchor:end;stroke-width:0.264583"
         x="115.3011"
         y="29.464535">5</tspan></text>
    <text
       xml:space="preserve"
       style="font-style:normal;font-variant:normal;font-weight:bold;font-stretch:normal;font-size:9.525px;line-height:1.25;font-family:'Noto Sans';-inkscape-font-specification:'Noto Sans, Bold';font-variant-ligatures:normal;font-variant-caps:normal;font-variant-numeric:normal;font-variant-east-asian:normal;text-align:end;letter-spacing:0px;word-spacing:0px;writing-mode:lr-tb;text-anchor:end;stroke-width:0.264583"
       x="140.46866"
       y="98.684814"
       id="text4-04-2-9"
       inkscape:transform-center-x="-0.067748057"
       inkscape:transform-center-y="-56.271569"><tspan
         sodipodi:role="line"
         id="tspan4-8-7-6"
         style="font-style:normal;font-variant:normal;font-weight:bold;font-stretch:normal;font-size:9.525px;font-family:'Noto Sans';-inkscape-font-specification:'Noto Sans, Bold';font-variant-ligatures:normal;font-variant-caps:normal;font-variant-numeric:normal;font-variant-east-asian:normal;text-align:end;text-anchor:end;stroke-width:0.264583"
         x="140.46866"
         y="98.684814">15</tspan></text>
    <text
       xml:space="preserve"
       style="font-style:normal;font-variant:normal;font-weight:bold;font-stretch:normal;font-size:9.525px;line-height:1.25;font-family:'Noto Sans';-inkscape-font-specification:'Noto Sans, Bold';font-variant-ligatures:normal;font-variant-caps:normal;font-variant-numeric:normal;font-variant-east-asian:normal;text-align:center;letter-spacing:0px;word-spacing:0px;writing-mode:lr-tb;text-anchor:middle;stroke-width:0.264583"
       x="76.238091"
       y="141.51292"
       id="text4-04-2-8"
       inkscape:transform-center-x="-0.067748057"
       inkscape:transform-center-y="-56.271569"><tspan
         sodipodi:role="line"
         id="tspan4-8-7-5"
         style="font-style:normal;font-variant:normal;font-weight:bold;font-stretch:normal;font-size:9.525px;font-family:'Noto Sans';-inkscape-font-specification:'Noto Sans, Bold';font-variant-ligatures:normal;font-variant-caps:normal;font-variant-numeric:normal;font-variant-east-asian:normal;text-align:center;text-anchor:middle;stroke-width:0.264583"
         x="76.238091"
         y="141.51292">25</tspan></text>
    <text
       xml:space="preserve"
       style="font-style:normal;font-variant:normal;font-weight:bold;font-stretch:normal;font-size:9.525px;line-height:1.25;font-family:'Noto Sans';-inkscape-font-specification:'Noto Sans, Bold';font-variant-ligatures:normal;font-variant-caps:normal;font-variant-numeric:normal;font-variant-east-asian:normal;text-align:start;letter-spacing:0px;word-spacing:0px;writing-mode:lr-tb;text-anchor:start;stroke-width:0.264583"
       x="11.90752"
       y="98.732437"
       id="text4-04-2-18"
       inkscape:transform-center-x="-0.067748057"
       inkscape:transform-center-y="-56.271569"><tspan
         sodipodi:role="line"
         id="tspan4-8-7-9"
         style="font-style:normal;font-variant:normal;font-weight:bold;font-stretch:normal;font-size:9.525px;font-family:'Noto Sans';-inkscape-font-specification:'Noto Sans, Bold';font-variant-ligatures:normal;font-variant-caps:normal;font-variant-numeric:normal;font-variant-east-asian:normal;text-align:start;text-anchor:start;stroke-width:0.264583"
         x="11.90752"
         y="98.732437">35</tspan></text>
    <text
       xml:space="preserve"
       style="font-style:normal;font-variant:normal;font-weight:bold;font-stretch:normal;font-size:9.525px;line-height:1.25;font-family:'Noto Sans';-inkscape-font-specification:'Noto Sans, Bold';font-variant-ligatures:normal;font-variant-caps:normal;font-variant-numeric:normal;font-variant-east-asian:normal;text-align:start;letter-spacing:0px;word-spacing:0px;writing-mode:lr-tb;text-anchor:start;stroke-width:0.264583"
       x="34.498566"
       y="29.464535"
       id="text4-04-2-4"
       inkscape:transform-center-x="-0.067748057"
       inkscape:transform-center-y="-56.271569"><tspan
         sodipodi:role="line"
         id="tspan4-8-7-8"
         style="font-style:normal;font-variant:normal;font-weight:bold;font-stretch:normal;font-size:9.525px;font-family:'Noto Sans';-inkscape-font-specification:'Noto Sans, Bold';font-variant-ligatures:normal;font-variant-caps:normal;font-variant-numeric:normal;font-variant-east-asian:normal;text-align:start;text-anchor:start;stroke-width:0.264583"
         x="34.498566"
         y="29.464535">45</tspan></text>
    <path
       style="fill:none;stroke:#000000;stroke-width:0.79375;stroke-linecap:butt;stroke-linejoin:miter;stroke-dasharray:none;stroke-opacity:1"
       d="m 76.199996,73.818746 v 4.7625"
       id="path41" />
    <path
       style="fill:none;stroke:#000000;stroke-width:0.79375;stroke-linecap:butt;stroke-linejoin:miter;stroke-dasharray:none;stroke-opacity:1"
       d="m 78.581246,76.199996 h -4.7625"
       id="path42" />
  </g>
</svg>
