<?xml version="1.0" encoding="UTF-8" standalone="no"?>
<!-- Created with Inkscape (http://www.inkscape.org/) -->

<svg
   width="576"
   height="576"
   viewBox="0 0 152.4 152.4"
   version="1.1"
   id="svg5"
   inkscape:version="1.1.2 (0a00cf5339, 2022-02-04)"
   sodipodi:docname="marker-02.svg"
   xmlns:inkscape="http://www.inkscape.org/namespaces/inkscape"
   xmlns:sodipodi="http://sodipodi.sourceforge.net/DTD/sodipodi-0.dtd"
   xmlns="http://www.w3.org/2000/svg"
   xmlns:svg="http://www.w3.org/2000/svg">
  <sodipodi:namedview
     id="namedview7"
     pagecolor="#ffffff"
     bordercolor="#666666"
     borderopacity="1.0"
     inkscape:pageshadow="2"
     inkscape:pageopacity="0.0"
     inkscape:pagecheckerboard="0"
     inkscape:document-units="mm"
     showgrid="true"
     units="px"
     width="576px"
     showguides="false"
     inkscape:zoom="0.43651796"
     inkscape:cx="509.71557"
     inkscape:cy="509.71557"
     inkscape:window-width="1366"
     inkscape:window-height="707"
     inkscape:window-x="1680"
     inkscape:window-y="282"
     inkscape:window-maximized="1"
     inkscape:current-layer="layer1">
    <inkscape:grid
       type="xygrid"
       id="grid824"
       spacingx="19.05"
       spacingy="19.05" />
  </sodipodi:namedview>
  <defs
     id="defs2" />
  <g
     inkscape:label="Layer 1"
     inkscape:groupmode="layer"
     id="layer1">
    <path
       id="path1845"
       style="fill:#ffffff;stroke-width:8;stroke-linecap:round;stroke-linejoin:round"
       d="M 0,76.199997 A 76.199997,76.199997 0 0 1 76.199997,0 v 76.199997 z" />
    <path
       id="path1847"
       style="stroke-width:8;stroke-linecap:round;stroke-linejoin:round"
       transform="rotate(90)"
       d="m 0,-76.199997 a 76.199997,76.199997 0 0 1 76.199997,-76.199993 v 76.199993 z" />
    <path
       id="path1845-3"
       style="fill:#ffffff;stroke-width:8;stroke-linecap:round;stroke-linejoin:round"
       transform="scale(-1)"
       d="m -152.39999,-76.199997 a 76.199997,76.199997 0 0 1 76.199993,-76.199993 v 76.199993 z" />
    <path
       id="path1847-5"
       style="stroke-width:8;stroke-linecap:round;stroke-linejoin:round"
       transform="rotate(-90)"
       d="M -152.39999,76.199997 A 76.199997,76.199997 0 0 1 -76.199997,0 v 76.199997 z" />
    <path
       id="path1579"
       style="stroke-width:8;stroke-linecap:round;stroke-linejoin:round"
       d="M 19.049995,76.199997 A 57.150002,57.149998 0 0 1 76.199997,19.049999 v 57.149998 z" />
    <path
       id="path1579-6"
       style="fill:#ffffff;stroke-width:8;stroke-linecap:round;stroke-linejoin:round"
       transform="rotate(90)"
       d="m 19.049999,-76.199997 a 57.149998,57.149998 0 0 1 57.149998,-57.149993 v 57.149993 z" />
    <path
       id="path1579-7"
       style="stroke-width:8;stroke-linecap:round;stroke-linejoin:round"
       transform="scale(-1)"
       d="m -133.34999,-76.199997 a 57.149998,57.149998 0 0 1 57.149993,-57.149993 v 57.149993 z" />
    <path
       id="path1579-6-5"
       style="fill:#ffffff;stroke-width:8;stroke-linecap:round;stroke-linejoin:round"
       transform="rotate(-90)"
       d="M -133.34999,76.199997 A 57.149998,57.149998 0 0 1 -76.199997,19.049999 V 76.199997 Z" />
  </g>
</svg>
