<?xml version="1.0" encoding="UTF-8" standalone="no"?>
<!-- Created with Inkscape (http://www.inkscape.org/) -->

<svg
   width="576"
   height="576"
   viewBox="0 0 152.4 152.4"
   version="1.1"
   id="svg5"
   inkscape:version="1.1.2 (0a00cf5339, 2022-02-04)"
   sodipodi:docname="dial-bg-01.svg"
   xmlns:inkscape="http://www.inkscape.org/namespaces/inkscape"
   xmlns:sodipodi="http://sodipodi.sourceforge.net/DTD/sodipodi-0.dtd"
   xmlns="http://www.w3.org/2000/svg"
   xmlns:svg="http://www.w3.org/2000/svg">
  <sodipodi:namedview
     id="namedview7"
     pagecolor="#ffffff"
     bordercolor="#666666"
     borderopacity="1.0"
     inkscape:pageshadow="2"
     inkscape:pageopacity="0.0"
     inkscape:pagecheckerboard="0"
     inkscape:document-units="mm"
     showgrid="true"
     units="px"
     width="576px"
     inkscape:zoom="1.2522972"
     inkscape:cx="163.29989"
     inkscape:cy="313.82327"
     inkscape:window-width="1680"
     inkscape:window-height="1021"
     inkscape:window-x="0"
     inkscape:window-y="0"
     inkscape:window-maximized="1"
     inkscape:current-layer="layer1"
     inkscape:snap-object-midpoints="false"
     inkscape:snap-bbox="true"
     inkscape:bbox-paths="true"
     inkscape:snap-midpoints="true"
     inkscape:snap-smooth-nodes="true"
     inkscape:snap-intersection-paths="true"
     inkscape:object-paths="true">
    <inkscape:grid
       type="xygrid"
       id="grid826"
       spacingx="2.38125"
       spacingy="2.38125" />
  </sodipodi:namedview>
  <defs
     id="defs2">
    <inkscape:path-effect
       effect="copy_rotate"
       starting_point="79.771872,75.009376"
       origin="76.199997,75.009376"
       id="path-effect1183"
       is_visible="true"
       lpeversion="1"
       method="normal"
       num_copies="6"
       starting_angle="0"
       rotation_angle="60"
       gap="-0.01"
       copies_to_360="true"
       mirror_copies="false"
       split_items="true" />
    <inkscape:path-effect
       effect="copy_rotate"
       starting_point="77.2,76.2"
       origin="76.2,76.2"
       id="path-effect1845"
       is_visible="true"
       lpeversion="1"
       method="normal"
       num_copies="30"
       starting_angle="0"
       rotation_angle="60"
       gap="-0.01"
       copies_to_360="true"
       mirror_copies="false"
       split_items="false" />
    <inkscape:path-effect
       effect="copy_rotate"
       starting_point="77.2,76.2"
       origin="76.2,76.2"
       id="path-effect1671"
       is_visible="true"
       lpeversion="1"
       method="normal"
       num_copies="18"
       starting_angle="0"
       rotation_angle="60"
       gap="-0.01"
       copies_to_360="true"
       mirror_copies="false"
       split_items="false" />
    <inkscape:path-effect
       effect="copy_rotate"
       starting_point="77.2,76.2"
       origin="76.2,76.2"
       id="path-effect1567"
       is_visible="true"
       lpeversion="1"
       method="normal"
       num_copies="6"
       starting_angle="0"
       rotation_angle="60"
       gap="-0.01"
       copies_to_360="true"
       mirror_copies="false"
       split_items="false" />
    <inkscape:path-effect
       effect="copy_rotate"
       starting_point="79.771872,89.296876"
       origin="76.199997,89.296876"
       id="path-effect1183-3"
       is_visible="true"
       lpeversion="1"
       method="normal"
       num_copies="3"
       starting_angle="0"
       rotation_angle="120"
       gap="-0.01"
       copies_to_360="true"
       mirror_copies="false"
       split_items="true" />
  </defs>
  <g
     inkscape:groupmode="layer"
     id="layer2"
     inkscape:label="Alignment Circles"
     style="display:none"
     sodipodi:insensitive="true">
    <path
       style="fill:none;stroke:#cccccc;stroke-width:0.79375;stroke-linecap:round;paint-order:stroke markers fill"
       id="path1079"
       inkscape:path-effect="#path-effect1183"
       sodipodi:type="arc"
       sodipodi:cx="76.199997"
       sodipodi:cy="57.150002"
       sodipodi:rx="3.5718749"
       sodipodi:ry="3.5718749"
       d="m 79.771872,57.150002 c 0,1.972692 -1.599183,3.571874 -3.571875,3.571874 -1.972692,0 -3.571875,-1.599182 -3.571875,-3.571874 0,-1.972692 1.599183,-3.571875 3.571875,-3.571875 1.972692,0 3.571875,1.599183 3.571875,3.571875 z"
       transform="translate(3.0517578e-6,1.1906236)" />
    <path
       style="fill:none;stroke:#cccccc;stroke-width:0.79375;stroke-linecap:round;paint-order:stroke markers fill"
       id="path1079-6"
       inkscape:path-effect="#path-effect1183-3"
       sodipodi:type="arc"
       sodipodi:cx="76.199997"
       sodipodi:cy="57.150002"
       sodipodi:rx="3.5718749"
       sodipodi:ry="3.5718749"
       transform="translate(3.0517578e-6,-13.096876)"
       d="m 79.771872,57.150002 c 0,1.972692 -1.599183,3.571874 -3.571875,3.571874 -1.972692,0 -3.571875,-1.599182 -3.571875,-3.571874 0,-1.972692 1.599183,-3.571875 3.571875,-3.571875 1.972692,0 3.571875,1.599183 3.571875,3.571875 z" />
    <path
       transform="rotate(-120,72.419256,82.748437)"
       style="display:inline;fill:none;stroke:#cccccc;stroke-width:0.79375;stroke-linecap:round;paint-order:stroke markers fill"
       id="rotated-0-path-effect1183-3"
       d="m 79.771872,57.150002 c 0,1.972692 -1.599183,3.571874 -3.571875,3.571874 -1.972692,0 -3.571875,-1.599182 -3.571875,-3.571874 0,-1.972692 1.599183,-3.571875 3.571875,-3.571875 1.972692,0 3.571875,1.599183 3.571875,3.571875 z" />
    <path
       transform="rotate(120,79.980741,82.748439)"
       style="display:inline;fill:none;stroke:#cccccc;stroke-width:0.79375;stroke-linecap:round;paint-order:stroke markers fill"
       id="rotated-1-path-effect1183-3"
       d="m 79.771872,57.150002 c 0,1.972692 -1.599183,3.571874 -3.571875,3.571874 -1.972692,0 -3.571875,-1.599182 -3.571875,-3.571874 0,-1.972692 1.599183,-3.571875 3.571875,-3.571875 1.972692,0 3.571875,1.599183 3.571875,3.571875 z" />
    <path
       style="display:inline;fill:none;stroke:#cccccc;stroke-width:0.79375;stroke-linecap:round;paint-order:stroke markers fill"
       id="rotated-0-path-effect1183"
       d="m 79.771872,57.150002 c 0,1.972692 -1.599183,3.571874 -3.571875,3.571874 -1.972692,0 -3.571875,-1.599182 -3.571875,-3.571874 0,-1.972692 1.599183,-3.571875 3.571875,-3.571875 1.972692,0 3.571875,1.599183 3.571875,3.571875 z"
       transform="rotate(-60,77.231109,75.604685)" />
    <path
       style="display:inline;fill:none;stroke:#cccccc;stroke-width:0.79375;stroke-linecap:round;paint-order:stroke markers fill"
       id="rotated-1-path-effect1183"
       d="m 79.771872,57.150002 c 0,1.972692 -1.599183,3.571874 -3.571875,3.571874 -1.972692,0 -3.571875,-1.599182 -3.571875,-3.571874 0,-1.972692 1.599183,-3.571875 3.571875,-3.571875 1.972692,0 3.571875,1.599183 3.571875,3.571875 z"
       transform="rotate(-120,76.543702,75.604687)" />
    <path
       style="display:inline;fill:none;stroke:#cccccc;stroke-width:0.79375;stroke-linecap:round;paint-order:stroke markers fill"
       id="rotated-2-path-effect1183"
       d="m 79.771872,57.150002 c 0,1.972692 -1.599183,3.571874 -3.571875,3.571874 -1.972692,0 -3.571875,-1.599182 -3.571875,-3.571874 0,-1.972692 1.599183,-3.571875 3.571875,-3.571875 1.972692,0 3.571875,1.599183 3.571875,3.571875 z"
       transform="rotate(180,76.199999,75.604688)" />
    <path
       style="display:inline;fill:none;stroke:#cccccc;stroke-width:0.79375;stroke-linecap:round;paint-order:stroke markers fill"
       id="rotated-3-path-effect1183"
       d="m 79.771872,57.150002 c 0,1.972692 -1.599183,3.571874 -3.571875,3.571874 -1.972692,0 -3.571875,-1.599182 -3.571875,-3.571874 0,-1.972692 1.599183,-3.571875 3.571875,-3.571875 1.972692,0 3.571875,1.599183 3.571875,3.571875 z"
       transform="rotate(120,75.856295,75.604689)" />
    <path
       style="display:inline;fill:none;stroke:#cccccc;stroke-width:0.79375;stroke-linecap:round;paint-order:stroke markers fill"
       id="rotated-4-path-effect1183"
       d="m 79.771872,57.150002 c 0,1.972692 -1.599183,3.571874 -3.571875,3.571874 -1.972692,0 -3.571875,-1.599182 -3.571875,-3.571874 0,-1.972692 1.599183,-3.571875 3.571875,-3.571875 1.972692,0 3.571875,1.599183 3.571875,3.571875 z"
       transform="rotate(60,75.168888,75.60469)" />
  </g>
  <g
     inkscape:label="Layer 1"
     inkscape:groupmode="layer"
     id="layer1">
    <circle
       style="fill:#ffffff;stroke:none;stroke-width:1.05833;stroke-linecap:round;stroke-miterlimit:4;stroke-dasharray:none;stroke-opacity:1;paint-order:stroke markers fill;fill-opacity:1"
       id="path850-6"
       cx="76.199997"
       cy="76.199997"
       r="28.574997" />
    <path
       style="display:inline;fill:none;stroke:#000000;stroke-width:0.79375;stroke-linecap:butt;stroke-linejoin:miter;stroke-dasharray:none;stroke-opacity:1"
       d="m 76.2,73.81875 v 4.7625"
       id="path41" />
    <path
       style="display:inline;fill:none;stroke:#000000;stroke-width:0.79375;stroke-linecap:butt;stroke-linejoin:miter;stroke-dasharray:none;stroke-opacity:1"
       d="m 78.58125,76.2 h -4.7625"
       id="path42" />
  </g>
</svg>
