<svg width="576" height="576" viewBox="0 0 576 576" xmlns="http://www.w3.org/2000/svg">
    
    <style>
    .primary {
        fill: none;
        stroke-width: 2px;
        stroke: #000000;
    }
    .secondary {
        fill: none;
        stroke-width: 1px;
        stroke: #000000;
        stroke-miterlimit: 4;
        stroke-dasharray: 1, 2;
        stroke-dashoffset: 0;
    }
    </style>

    <g id="ruler">
        <circle class="secondary" cx="288" cy="288" r="288" />
        <circle class="primary" cx="288" cy="288" r="9" />
        <circle class="primary" cx="288" cy="288" r="22.5" />
        <line class="primary" x1="270" y1="288" x2="306" y2="288" />
        <line class="primary" x1="288" y1="270" x2="288" y2="306" />
        <path class="primary" d="M576 288 A 288 288 0 0 0 576 288 A 288 288 0 0 0 554.077 177.787 A 288 288 0 0 0 491.647 84.353 A 288 288 0 0 0 398.213 21.923 A 288 288 0 0 0 288 0 A 288 288 0 0 0 177.787 21.923 A 288 288 0 0 0 84.353 84.353 A 288 288 0 0 0 21.923 177.787 A 288 288 0 0 0 0 288" /><path class="secondary" d="M336 288 A 48 48 0 0 0 336 288 A 48 48 0 0 0 332.346 269.631 A 48 48 0 0 0 321.941 254.059 A 48 48 0 0 0 306.369 243.654 A 48 48 0 0 0 288 240 A 48 48 0 0 0 269.631 243.654 A 48 48 0 0 0 254.059 254.059 A 48 48 0 0 0 243.654 269.631 A 48 48 0 0 0 240 288" /><path class="secondary" d="M384 288 A 96 96 0 0 0 384 288 A 96 96 0 0 0 376.692 251.262 A 96 96 0 0 0 355.882 220.118 A 96 96 0 0 0 324.738 199.308 A 96 96 0 0 0 288 192 A 96 96 0 0 0 251.262 199.308 A 96 96 0 0 0 220.118 220.118 A 96 96 0 0 0 199.308 251.262 A 96 96 0 0 0 192 288" /><path class="secondary" d="M432 288 A 144 144 0 0 0 432 288 A 144 144 0 0 0 421.039 232.894 A 144 144 0 0 0 389.823 186.177 A 144 144 0 0 0 343.106 154.961 A 144 144 0 0 0 288 144 A 144 144 0 0 0 232.894 154.961 A 144 144 0 0 0 186.177 186.177 A 144 144 0 0 0 154.961 232.894 A 144 144 0 0 0 144 288" /><path class="secondary" d="M480 288 A 192 192 0 0 0 480 288 A 192 192 0 0 0 465.385 214.525 A 192 192 0 0 0 423.765 152.235 A 192 192 0 0 0 361.475 110.615 A 192 192 0 0 0 288 96 A 192 192 0 0 0 214.525 110.615 A 192 192 0 0 0 152.235 152.235 A 192 192 0 0 0 110.615 214.525 A 192 192 0 0 0 96 288" /><path class="secondary" d="M528 288 A 240 240 0 0 0 528 288 A 240 240 0 0 0 509.731 196.156 A 240 240 0 0 0 457.706 118.294 A 240 240 0 0 0 379.844 66.269 A 240 240 0 0 0 288 48 A 240 240 0 0 0 196.156 66.269 A 240 240 0 0 0 118.294 118.294 A 240 240 0 0 0 66.269 196.156 A 240 240 0 0 0 48 288" /><line class="primary" x1="310.5" y1="288" x2="576" y2="288" /><line class="primary" x1="308.272" y1="278.238" x2="547.479" y2="163.041" /><line class="primary" x1="302.029" y1="270.409" x2="467.565" y2="62.833" /><line class="primary" x1="293.007" y1="266.064" x2="352.086" y2="7.221" /><line class="primary" x1="282.993" y1="266.064" x2="223.914" y2="7.221" /><line class="primary" x1="273.971" y1="270.409" x2="108.435" y2="62.833" /><line class="primary" x1="267.728" y1="278.238" x2="28.521" y2="163.041" /><line class="primary" x1="265.5" y1="288" x2="0" y2="288" />
    </g>
</svg>
