<svg width="576" height="576" viewBox="0 0 576 576" xmlns="http://www.w3.org/2000/svg">
    
    <style>
    .primary {
        fill: none;
        stroke-width: 2px;
        stroke: #000000;
    }
    .secondary {
        fill: none;
        stroke-width: 1px;
        stroke: #000000;
        stroke-miterlimit: 4;
        stroke-dasharray: 1, 2;
        stroke-dashoffset: 0;
    }
    </style>

    <g id="ruler">
        <line class="secondary" x1="0" y1="0" x2="0" y2="576" />
        <line class="secondary" x1="288" y1="0" x2="288" y2="576" />
        <line class="secondary" x1="576" y1="0" x2="576" y2="576" />
        <line class="secondary" x1="0" y1="0" x2="576" y2="0" />
        <line class="secondary" x1="0" y1="288" x2="576" y2="288" />
        <line class="secondary" x1="0" y1="576" x2="576" y2="576" />
        <polyline class="primary" points="0.0,576.0 9.0,575.859375 18.0,575.4375 27.0,574.734375 36.0,573.75 45.0,572.484375 54.0,570.9375 63.0,569.109375 72.0,567.0 81.0,564.609375 90.0,561.9375 99.0,558.984375 108.0,555.75 117.0,552.234375 126.0,548.4375 135.0,544.359375 144.0,540.0 153.0,535.359375 162.0,530.4375 171.0,525.234375 180.0,519.75 189.0,513.984375 198.0,507.9375 207.0,501.609375 216.0,495.0 225.0,488.109375 234.0,480.9375 243.0,473.484375 252.0,465.75 261.0,457.734375 270.0,449.4375 279.0,440.859375 288.0,432.0 297.0,422.859375 306.0,413.4375 315.0,403.734375 324.0,393.75 333.0,383.484375 342.0,372.9375 351.0,362.109375 360.0,351.0 369.0,339.609375 378.0,327.9375 387.0,315.984375 396.0,303.75 405.0,291.234375 414.0,278.4375 423.0,265.359375 432.0,252.0 441.0,238.359375 450.0,224.4375 459.0,210.234375 468.0,195.75 477.0,180.984375 486.0,165.9375 495.0,150.609375 504.0,135.0 513.0,119.109375 522.0,102.9375 531.0,86.484375 540.0,69.75 549.0,52.734375 558.0,35.4375 567.0,17.859375 576.0,0.0 " />
    </g>
</svg>
