<svg width="576" height="576" viewBox="0 0 576 576" xmlns="http://www.w3.org/2000/svg">
    
    <style>
    .primary {
        fill: none;
        stroke-width: 2px;
        stroke: #000000;
    }
    .secondary {
        fill: none;
        stroke-width: 1px;
        stroke: #000000;
        stroke-miterlimit: 4;
        stroke-dasharray: 1, 2;
        stroke-dashoffset: 0;
    }
    </style>

    <g id="ruler">
        <line class="secondary" x1="0" y1="0" x2="0" y2="576" />
        <line class="secondary" x1="288" y1="0" x2="288" y2="576" />
        <line class="secondary" x1="576" y1="0" x2="576" y2="576" />
        <line class="secondary" x1="0" y1="0" x2="576" y2="0" />
        <line class="secondary" x1="0" y1="288" x2="576" y2="288" />
        <line class="secondary" x1="0" y1="576" x2="576" y2="576" />
        <polyline class="primary" points="0.0,576.0 9.0,558.140625 18.0,540.5625 27.0,523.265625 36.0,506.25 45.0,489.515625 54.0,473.0625 63.0,456.890625 72.0,441.0 81.0,425.390625 90.0,410.0625 99.0,395.015625 108.0,380.25 117.0,365.765625 126.0,351.5625 135.0,337.640625 144.0,324.0 153.0,310.640625 162.0,297.5625 171.0,284.765625 180.0,272.25 189.0,260.015625 198.0,248.0625 207.0,236.390625 216.0,225.0 225.0,213.890625 234.0,203.0625 243.0,192.515625 252.0,182.25 261.0,172.265625 270.0,162.5625 279.0,153.140625 288.0,144.0 297.0,135.140625 306.0,126.5625 315.0,118.265625 324.0,110.25 333.0,102.515625 342.0,95.0625 351.0,87.890625 360.0,81.0 369.0,74.390625 378.0,68.0625 387.0,62.015625 396.0,56.25 405.0,50.765625 414.0,45.5625 423.0,40.640625 432.0,36.0 441.0,31.640625 450.0,27.5625 459.0,23.765625 468.0,20.25 477.0,17.015625 486.0,14.0625 495.0,11.390625 504.0,9.0 513.0,6.890625 522.0,5.0625 531.0,3.515625 540.0,2.25 549.0,1.265625 558.0,0.5625 567.0,0.140625 576.0,0.0 " />
    </g>
</svg>
