<svg width="576" height="576" viewBox="0 0 576 576" xmlns="http://www.w3.org/2000/svg">
    
    <style>
    .primary {
        fill: none;
        stroke-width: 2px;
        stroke: #000000;
    }
    .secondary {
        fill: none;
        stroke-width: 1px;
        stroke: #000000;
        stroke-miterlimit: 4;
        stroke-dasharray: 1, 2;
        stroke-dashoffset: 0;
    }
    </style>

    <g id="ruler">
        <line class="secondary" x1="0" y1="0" x2="0" y2="576" />
        <line class="secondary" x1="288" y1="0" x2="288" y2="576" />
        <line class="secondary" x1="576" y1="0" x2="576" y2="576" />
        <line class="secondary" x1="0" y1="0" x2="576" y2="0" />
        <line class="secondary" x1="0" y1="288" x2="576" y2="288" />
        <line class="secondary" x1="0" y1="576" x2="576" y2="576" />
        <polyline class="primary" points="0,576 9,575.719 18,574.875 27,573.469 36,571.5 45,568.969 54,565.875 63,562.219 72,558 81,553.219 90,547.875 99,541.969 108,535.5 117,528.469 126,520.875 135,512.719 144,504 153,494.719 162,484.875 171,474.469 180,463.5 189,451.969 198,439.875 207,427.219 216,414 225,400.219 234,385.875 243,370.969 252,355.5 261,339.469 270,322.875 279,305.719 288,288 297,270.281 306,253.125 315,236.531 324,220.5 333,205.031 342,190.125 351,175.781 360,162 369,148.781 378,136.125 387,124.031 396,112.5 405,101.531 414,91.125 423,81.281 432,72 441,63.281 450,55.125 459,47.531 468,40.5 477,34.031 486,28.125 495,22.781 504,18 513,13.781 522,10.125 531,7.031 540,4.5 549,2.531 558,1.125 567,0.281 576,0 " />
    </g>
</svg>
