<svg width="576" height="576" viewBox="0 0 576 576" xmlns="http://www.w3.org/2000/svg">
    
    <style>
    .primary {
        fill: none;
        stroke-width: 2px;
        stroke: #000000;
    }
    .secondary {
        fill: none;
        stroke-width: 1px;
        stroke: #000000;
        stroke-miterlimit: 4;
        stroke-dasharray: 1, 2;
        stroke-dashoffset: 0;
    }
    </style>

    <g id="ruler">
        <line class="secondary" x1="0" y1="0" x2="0" y2="576" />
        <line class="secondary" x1="288" y1="0" x2="288" y2="576" />
        <line class="secondary" x1="576" y1="0" x2="576" y2="576" />
        <line class="secondary" x1="0" y1="0" x2="576" y2="0" />
        <line class="secondary" x1="0" y1="288" x2="576" y2="288" />
        <line class="secondary" x1="0" y1="576" x2="576" y2="576" />
        <polyline class="primary" points="0.0,576.0 9.0,575.71875 18.0,574.875 27.0,573.46875 36.0,571.5 45.0,568.96875 54.0,565.875 63.0,562.21875 72.0,558.0 81.0,553.21875 90.0,547.875 99.0,541.96875 108.0,535.5 117.0,528.46875 126.0,520.875 135.0,512.71875 144.0,504.0 153.0,494.71875 162.0,484.875 171.0,474.46875 180.0,463.5 189.0,451.96875 198.0,439.875 207.0,427.21875 216.0,414.0 225.0,400.21875 234.0,385.875 243.0,370.96875 252.0,355.5 261.0,339.46875 270.0,322.875 279.0,305.71875 288.0,288.0 297.0,270.28125 306.0,253.125 315.0,236.53125 324.0,220.5 333.0,205.03125 342.0,190.125 351.0,175.78125 360.0,162.0 369.0,148.78125 378.0,136.125 387.0,124.03125 396.0,112.5 405.0,101.53125 414.0,91.125 423.0,81.28125 432.0,72.0 441.0,63.28125 450.0,55.125 459.0,47.53125 468.0,40.5 477.0,34.03125 486.0,28.125 495.0,22.78125 504.0,18.0 513.0,13.78125 522.0,10.125 531.0,7.03125 540.0,4.5 549.0,2.53125 558.0,1.125 567.0,0.28125 576.0,0.0 " />
    </g>
</svg>
