<svg width="576" height="576" viewBox="0 0 576 576" xmlns="http://www.w3.org/2000/svg">
    
    <style>
    .primary {
        fill: none;
        stroke-width: 2px;
        stroke: #000000;
    }
    .secondary {
        fill: none;
        stroke-width: 1px;
        stroke: #000000;
        stroke-miterlimit: 4;
        stroke-dasharray: 1, 2;
        stroke-dashoffset: 0;
    }
    </style>

    <g id="ruler">
        <line class="secondary" x1="0" y1="0" x2="0" y2="576" />
        <line class="secondary" x1="288" y1="0" x2="288" y2="576" />
        <line class="secondary" x1="576" y1="0" x2="576" y2="576" />
        <line class="secondary" x1="0" y1="0" x2="576" y2="0" />
        <line class="secondary" x1="0" y1="288" x2="576" y2="288" />
        <line class="secondary" x1="0" y1="576" x2="576" y2="576" />
        <polyline class="primary" points="0,576 9,575.859 18,575.438 27,574.734 36,573.75 45,572.484 54,570.938 63,569.109 72,567 81,564.609 90,561.938 99,558.984 108,555.75 117,552.234 126,548.438 135,544.359 144,540 153,535.359 162,530.438 171,525.234 180,519.75 189,513.984 198,507.938 207,501.609 216,495 225,488.109 234,480.938 243,473.484 252,465.75 261,457.734 270,449.438 279,440.859 288,432 297,422.859 306,413.438 315,403.734 324,393.75 333,383.484 342,372.938 351,362.109 360,351 369,339.609 378,327.938 387,315.984 396,303.75 405,291.234 414,278.438 423,265.359 432,252 441,238.359 450,224.438 459,210.234 468,195.75 477,180.984 486,165.938 495,150.609 504,135 513,119.109 522,102.938 531,86.484 540,69.75 549,52.734 558,35.438 567,17.859 576,0 " />
    </g>
</svg>
