<svg width="576" height="576" viewBox="0 0 576 576" xmlns="http://www.w3.org/2000/svg">
    
    <style>
    .primary {
        fill: none;
        stroke-width: 2px;
        stroke: #000000;
    }
    .secondary {
        fill: none;
        stroke-width: 1px;
        stroke: #000000;
        stroke-miterlimit: 4;
        stroke-dasharray: 1, 2;
        stroke-dashoffset: 0;
    }
    </style>

    <g id="ruler">
        <line class="secondary" x1="0" y1="0" x2="0" y2="576" />
        <line class="secondary" x1="288" y1="0" x2="288" y2="576" />
        <line class="secondary" x1="576" y1="0" x2="576" y2="576" />
        <line class="secondary" x1="0" y1="0" x2="576" y2="0" />
        <line class="secondary" x1="0" y1="288" x2="576" y2="288" />
        <line class="secondary" x1="0" y1="576" x2="576" y2="576" />
        <polyline class="primary" points="0,576 9,558.141 18,540.562 27,523.266 36,506.25 45,489.516 54,473.062 63,456.891 72,441 81,425.391 90,410.062 99,395.016 108,380.25 117,365.766 126,351.562 135,337.641 144,324 153,310.641 162,297.562 171,284.766 180,272.25 189,260.016 198,248.062 207,236.391 216,225 225,213.891 234,203.062 243,192.516 252,182.25 261,172.266 270,162.562 279,153.141 288,144 297,135.141 306,126.562 315,118.266 324,110.25 333,102.516 342,95.062 351,87.891 360,81 369,74.391 378,68.062 387,62.016 396,56.25 405,50.766 414,45.562 423,40.641 432,36 441,31.641 450,27.562 459,23.766 468,20.25 477,17.016 486,14.062 495,11.391 504,9 513,6.891 522,5.062 531,3.516 540,2.25 549,1.266 558,0.562 567,0.141 576,0 " />
    </g>
</svg>
