<svg width="576" height="576" viewBox="0 0 576 576" xmlns="http://www.w3.org/2000/svg">
    
    <style>
    .primary {
        fill: none;
        stroke-width: 2px;
        stroke: #000000;
    }
    .secondary {
        fill: none;
        stroke-width: 1px;
        stroke: #000000;
        stroke-miterlimit: 4;
        stroke-dasharray: 1, 2;
        stroke-dashoffset: 0;
    }
    </style>

    <g id="ruler">
        <line class="secondary" x1="0" y1="0" x2="0" y2="576" />
        <line class="secondary" x1="288" y1="0" x2="288" y2="576" />
        <line class="secondary" x1="576" y1="0" x2="576" y2="576" />
        <line class="secondary" x1="0" y1="0" x2="576" y2="0" />
        <line class="secondary" x1="0" y1="288" x2="576" y2="288" />
        <line class="secondary" x1="0" y1="576" x2="576" y2="576" />
        <polyline class="primary" points="0,576 9,567 18,558 27,549 36,540 45,531 54,522 63,513 72,504 81,495 90,486 99,477 108,468 117,459 126,450 135,441 144,432 153,423 162,414 171,405 180,396 189,387 198,378 207,369 216,360 225,351 234,342 243,333 252,324 261,315 270,306 279,297 288,288 297,279 306,270 315,261 324,252 333,243 342,234 351,225 360,216 369,207 378,198 387,189 396,180 405,171 414,162 423,153 432,144 441,135 450,126 459,117 468,108 477,99 486,90 495,81 504,72 513,63 522,54 531,45 540,36 549,27 558,18 567,9 576,0 " />
    </g>
</svg>
