<svg width="576" height="576" viewBox="0 0 576 576" xmlns="http://www.w3.org/2000/svg">
    
    <style>
    .primary {
        fill: none;
        stroke-width: 2px;
        stroke: #000000;
    }
    .secondary {
        fill: none;
        stroke-width: 1px;
        stroke: #000000;
        stroke-miterlimit: 4;
        stroke-dasharray: 1, 2;
        stroke-dashoffset: 0;
    }
    </style>

    <g id="ruler">
        <line class="secondary" x1="0" y1="0" x2="0" y2="576" />
        <line class="secondary" x1="288" y1="0" x2="288" y2="576" />
        <line class="secondary" x1="576" y1="0" x2="576" y2="576" />
        <line class="secondary" x1="0" y1="0" x2="576" y2="0" />
        <line class="secondary" x1="0" y1="288" x2="576" y2="288" />
        <line class="secondary" x1="0" y1="576" x2="576" y2="576" />
        <polyline class="primary" points="0,576 9,575.583 18,574.348 27,572.322 36,569.531 45,566.002 54,561.762 63,556.835 72,551.25 81,545.032 90,538.207 99,530.802 108,522.844 117,514.358 126,505.371 135,495.91 144,486 153,475.668 162,464.941 171,453.845 180,442.406 189,430.651 198,418.605 207,406.296 216,393.75 225,380.993 234,368.051 243,354.951 252,341.719 261,328.381 270,314.965 279,301.496 288,288 297,274.504 306,261.035 315,247.619 324,234.281 333,221.049 342,207.949 351,195.007 360,182.25 369,169.704 378,157.395 387,145.349 396,133.594 405,122.155 414,111.059 423,100.332 432,90 441,80.09 450,70.629 459,61.642 468,53.156 477,45.198 486,37.793 495,30.968 504,24.75 513,19.165 522,14.238 531,9.998 540,6.469 549,3.678 558,1.652 567,0.417 576,0 " />
    </g>
</svg>
