<svg width="576" height="576" viewBox="0 0 576 576" xmlns="http://www.w3.org/2000/svg">
    
    <style>
    .primary {
        fill: none;
        stroke-width: 2px;
        stroke: #000000;
    }
    .secondary {
        fill: none;
        stroke-width: 1px;
        stroke: #000000;
        stroke-miterlimit: 4;
        stroke-dasharray: 1, 2;
        stroke-dashoffset: 0;
    }
    </style>

    <g id="ruler">
        <circle class="secondary" cx="288" cy="288" r="288" />
        <circle class="primary" cx="288" cy="288" r="9" />
        <circle class="primary" cx="288" cy="288" r="22.5" />
        <line class="primary" x1="270" y1="288" x2="306" y2="288" />
        <line class="primary" x1="288" y1="270" x2="288" y2="306" />
        <path class="primary" d="M576 288 A 288 288 0 0 0 576 288 A 288 288 0 0 0 566.187 213.46 A 288 288 0 0 0 537.415 144 A 288 288 0 0 0 491.647 84.353 A 288 288 0 0 0 432 38.585 A 288 288 0 0 0 362.54 9.813 A 288 288 0 0 0 288 0 A 288 288 0 0 0 213.46 9.813 A 288 288 0 0 0 144 38.585" /><path class="secondary" d="M336 288 A 48 48 0 0 0 336 288 A 48 48 0 0 0 334.364 275.577 A 48 48 0 0 0 329.569 264 A 48 48 0 0 0 321.941 254.059 A 48 48 0 0 0 312 246.431 A 48 48 0 0 0 300.423 241.636 A 48 48 0 0 0 288 240 A 48 48 0 0 0 275.577 241.636 A 48 48 0 0 0 264 246.431" /><path class="secondary" d="M384 288 A 96 96 0 0 0 384 288 A 96 96 0 0 0 380.729 263.153 A 96 96 0 0 0 371.138 240 A 96 96 0 0 0 355.882 220.118 A 96 96 0 0 0 336 204.862 A 96 96 0 0 0 312.847 195.271 A 96 96 0 0 0 288 192 A 96 96 0 0 0 263.153 195.271 A 96 96 0 0 0 240 204.862" /><path class="secondary" d="M432 288 A 144 144 0 0 0 432 288 A 144 144 0 0 0 427.093 250.73 A 144 144 0 0 0 412.708 216 A 144 144 0 0 0 389.823 186.177 A 144 144 0 0 0 360 163.292 A 144 144 0 0 0 325.27 148.907 A 144 144 0 0 0 288 144 A 144 144 0 0 0 250.73 148.907 A 144 144 0 0 0 216 163.292" /><path class="secondary" d="M480 288 A 192 192 0 0 0 480 288 A 192 192 0 0 0 473.458 238.307 A 192 192 0 0 0 454.277 192 A 192 192 0 0 0 423.765 152.235 A 192 192 0 0 0 384 121.723 A 192 192 0 0 0 337.693 102.542 A 192 192 0 0 0 288 96 A 192 192 0 0 0 238.307 102.542 A 192 192 0 0 0 192 121.723" /><path class="secondary" d="M528 288 A 240 240 0 0 0 528 288 A 240 240 0 0 0 519.822 225.883 A 240 240 0 0 0 495.846 168 A 240 240 0 0 0 457.706 118.294 A 240 240 0 0 0 408 80.154 A 240 240 0 0 0 350.117 56.178 A 240 240 0 0 0 288 48 A 240 240 0 0 0 225.883 56.178 A 240 240 0 0 0 168 80.154" /><line class="primary" x1="310.5" y1="288" x2="576" y2="288" /><line class="primary" x1="310.462" y1="286.692" x2="575.513" y2="271.254" /><line class="primary" x1="309.894" y1="282.811" x2="568.237" y2="221.583" /><line class="primary" x1="307.486" y1="276.75" x2="537.415" y2="144" /><line class="primary" x1="301.436" y1="269.952" x2="459.982" y2="56.989" /><line class="primary" x1="290.612" y1="265.652" x2="321.435" y2="1.947" /><line class="primary" x1="276.75" y1="268.514" x2="144" y2="38.585" />
    </g>
</svg>
