<svg width="576" height="576" viewBox="0 0 576 576" xmlns="http://www.w3.org/2000/svg">
    
    <style>
    .primary {
        fill: none;
        stroke-width: 2px;
        stroke: #000000;
    }
    .secondary {
        fill: none;
        stroke-width: 1px;
        stroke: #000000;
        stroke-miterlimit: 4;
        stroke-dasharray: 1, 2;
        stroke-dashoffset: 0;
    }
    </style>

    <g id="ruler">
        <circle class="secondary" cx="288" cy="288" r="288" />
        <circle class="primary" cx="288" cy="288" r="9" />
        <circle class="primary" cx="288" cy="288" r="22.5" />
        <line class="primary" x1="270" y1="288" x2="306" y2="288" />
        <line class="primary" x1="288" y1="270" x2="288" y2="306" />
        <path class="primary" d="M576.0 288.0 A 288 288 0 0 0 576.0 288.0 A 288 288 0 0 0 566.1866379712517 213.46011501047403 A 288 288 0 0 0 537.4153162899183 144.00000000000003 A 288 288 0 0 0 491.64675298172574 84.35324701827432 A 288 288 0 0 0 432.0 38.58468371008169 A 288 288 0 0 0 362.53988498952594 9.813362028748315 A 288 288 0 0 0 288.0 0.0 A 288 288 0 0 0 213.460115010474 9.813362028748315 A 288 288 0 0 0 144.00000000000006 38.58468371008166" /><path class="secondary" d="M336.0 288.0 A 48.0 48.0 0 0 0 336.0 288.0 A 48.0 48.0 0 0 0 334.3644396618753 275.576685835079 A 48.0 48.0 0 0 0 329.56921938165306 264.0 A 48.0 48.0 0 0 0 321.94112549695427 254.05887450304573 A 48.0 48.0 0 0 0 312.0 246.43078061834694 A 48.0 48.0 0 0 0 300.423314164921 241.63556033812472 A 48.0 48.0 0 0 0 288.0 240.0 A 48.0 48.0 0 0 0 275.576685835079 241.63556033812472 A 48.0 48.0 0 0 0 264.0 246.43078061834694" /><path class="secondary" d="M384.0 288.0 A 96.0 96.0 0 0 0 384.0 288.0 A 96.0 96.0 0 0 0 380.72887932375056 263.153371670158 A 96.0 96.0 0 0 0 371.1384387633061 240.0 A 96.0 96.0 0 0 0 355.88225099390854 220.11774900609146 A 96.0 96.0 0 0 0 336.0 204.8615612366939 A 96.0 96.0 0 0 0 312.846628329842 195.27112067624944 A 96.0 96.0 0 0 0 288.0 192.0 A 96.0 96.0 0 0 0 263.153371670158 195.27112067624944 A 96.0 96.0 0 0 0 240.00000000000003 204.8615612366939" /><path class="secondary" d="M432.0 288.0 A 144.0 144.0 0 0 0 432.0 288.0 A 144.0 144.0 0 0 0 427.09331898562584 250.73005750523703 A 144.0 144.0 0 0 0 412.70765814495917 216.0 A 144.0 144.0 0 0 0 389.82337649086287 186.17662350913716 A 144.0 144.0 0 0 0 360.0 163.29234185504083 A 144.0 144.0 0 0 0 325.269942494763 148.90668101437416 A 144.0 144.0 0 0 0 288.0 144.0 A 144.0 144.0 0 0 0 250.730057505237 148.90668101437416 A 144.0 144.0 0 0 0 216.00000000000003 163.29234185504083" /><path class="secondary" d="M480.0 288.0 A 192.0 192.0 0 0 0 480.0 288.0 A 192.0 192.0 0 0 0 473.4577586475011 238.30674334031602 A 192.0 192.0 0 0 0 454.2768775266122 192.0 A 192.0 192.0 0 0 0 423.76450198781714 152.2354980121829 A 192.0 192.0 0 0 0 384.0 121.72312247338778 A 192.0 192.0 0 0 0 337.693256659684 102.54224135249888 A 192.0 192.0 0 0 0 288.0 96.0 A 192.0 192.0 0 0 0 238.306743340316 102.54224135249888 A 192.0 192.0 0 0 0 192.00000000000006 121.72312247338778" /><path class="secondary" d="M528.0 288.0 A 240.0 240.0 0 0 0 528.0 288.0 A 240.0 240.0 0 0 0 519.8221983093764 225.883429175395 A 240.0 240.0 0 0 0 495.8460969082653 168.0 A 240.0 240.0 0 0 0 457.7056274847714 118.29437251522862 A 240.0 240.0 0 0 0 408.0 80.15390309173475 A 240.0 240.0 0 0 0 350.116570824605 56.177801690623596 A 240.0 240.0 0 0 0 288.0 48.0 A 240.0 240.0 0 0 0 225.883429175395 56.177801690623596 A 240.0 240.0 0 0 0 168.00000000000006 80.15390309173472" /><line class="primary" x1="310.5" y1="288.0" x2="576.0" y2="288.0" /><line class="primary" x1="310.30750938091074" y1="285.06316067504883" x2="573.5361200756574" y2="250.40845664062516" /><line class="primary" x1="307.48557158514984" y1="276.75" x2="537.4153162899183" y2="144.00000000000003" /><line class="primary" x1="296.61037722821453" y1="267.21271051849607" x2="398.21282852114587" y2="21.92269463674944" /><line class="primary" x1="276.75" y1="268.51442841485016" x2="144.00000000000006" y2="38.58468371008166" />
    </g>
</svg>
