<?xml version="1.0" encoding="UTF-8" standalone="no"?>
<!-- Created with Inkscape (http://www.inkscape.org/) -->

<svg
   width="297mm"
   height="210mm"
   viewBox="0 0 297 210"
   version="1.1"
   id="svg1"
   inkscape:version="1.3.2 (091e20e, 2023-11-25)"
   sodipodi:docname="acme-punch-router-template.svg"
   inkscape:export-filename="acme-punch.pdf"
   inkscape:export-xdpi="192"
   inkscape:export-ydpi="192"
   xmlns:inkscape="http://www.inkscape.org/namespaces/inkscape"
   xmlns:sodipodi="http://sodipodi.sourceforge.net/DTD/sodipodi-0.dtd"
   xmlns="http://www.w3.org/2000/svg"
   xmlns:svg="http://www.w3.org/2000/svg">
  <sodipodi:namedview
     id="namedview1"
     pagecolor="#ffffff"
     bordercolor="#666666"
     borderopacity="1.0"
     inkscape:showpageshadow="2"
     inkscape:pageopacity="0.0"
     inkscape:pagecheckerboard="0"
     inkscape:deskcolor="#d1d1d1"
     inkscape:document-units="mm"
     inkscape:current-layer="layer1"
     showgrid="false" />
  <defs
     id="defs1">
    <marker
       style="overflow:visible"
       id="marker7"
       refX="0"
       refY="0"
       orient="auto-start-reverse"
       inkscape:stockid="Triangle arrow"
       markerWidth="1"
       markerHeight="1"
       viewBox="0 0 1 1"
       inkscape:isstock="true"
       inkscape:collect="always"
       preserveAspectRatio="xMidYMid">
      <path
         transform="scale(0.5)"
         style="fill:context-stroke;fill-rule:evenodd;stroke:context-stroke;stroke-width:1pt"
         d="M 5.77,0 -2.88,5 V -5 Z"
         id="path7" />
    </marker>
    <marker
       style="overflow:visible"
       id="Triangle"
       refX="0"
       refY="0"
       orient="auto-start-reverse"
       inkscape:stockid="Triangle arrow"
       markerWidth="1"
       markerHeight="1"
       viewBox="0 0 1 1"
       inkscape:isstock="true"
       inkscape:collect="always"
       preserveAspectRatio="xMidYMid">
      <path
         transform="scale(0.5)"
         style="fill:context-stroke;fill-rule:evenodd;stroke:context-stroke;stroke-width:1pt"
         d="M 5.77,0 -2.88,5 V -5 Z"
         id="path135" />
    </marker>
    <rect
       x="287.98147"
       y="520.83777"
       width="265.17519"
       height="45.696566"
       id="rect2" />
    <inkscape:path-effect
       effect="tiling"
       id="path-effect3"
       is_visible="true"
       lpeversion="1"
       unit="mm"
       seed="1;1"
       lpesatellites=""
       num_rows="21"
       num_cols="1"
       gapx="0"
       gapy="5"
       offset="0"
       offset_type="false"
       scale="0"
       rotate="0"
       mirrorrowsx="false"
       mirrorrowsy="false"
       mirrorcolsx="false"
       mirrorcolsy="false"
       mirrortrans="false"
       shrink_interp="false"
       split_items="false"
       link_styles="false"
       interpolate_scalex="false"
       interpolate_scaley="true"
       interpolate_rotatex="false"
       interpolate_rotatey="true"
       random_scale="false"
       random_rotate="false"
       random_gap_y="false"
       random_gap_x="false"
       transformorigin="" />
    <inkscape:path-effect
       effect="tiling"
       id="path-effect2"
       is_visible="true"
       lpeversion="1"
       unit="mm"
       seed="1;1"
       lpesatellites=""
       num_rows="100"
       num_cols="1"
       gapx="0"
       gapy="1"
       offset="0"
       offset_type="false"
       scale="0"
       rotate="0"
       mirrorrowsx="false"
       mirrorrowsy="false"
       mirrorcolsx="false"
       mirrorcolsy="false"
       mirrortrans="false"
       shrink_interp="false"
       split_items="false"
       link_styles="false"
       interpolate_scalex="false"
       interpolate_scaley="true"
       interpolate_rotatex="false"
       interpolate_rotatey="true"
       random_scale="false"
       random_rotate="false"
       random_gap_y="false"
       random_gap_x="false"
       transformorigin="" />
    <rect
       x="287.98148"
       y="520.83777"
       width="265.1752"
       height="45.696568"
       id="rect2-7" />
    <rect
       x="287.98148"
       y="520.83777"
       width="265.1752"
       height="45.696568"
       id="rect2-2" />
    <marker
       style="overflow:visible"
       id="Triangle-3"
       refX="0"
       refY="0"
       orient="auto-start-reverse"
       inkscape:stockid="Triangle arrow"
       markerWidth="1"
       markerHeight="1"
       viewBox="0 0 1 1"
       inkscape:isstock="true"
       inkscape:collect="always"
       preserveAspectRatio="xMidYMid">
      <path
         transform="scale(0.5)"
         style="fill:context-stroke;fill-rule:evenodd;stroke:context-stroke;stroke-width:1pt"
         d="M 5.77,0 -2.88,5 V -5 Z"
         id="path135-6" />
    </marker>
    <marker
       style="overflow:visible"
       id="marker7-0"
       refX="0"
       refY="0"
       orient="auto-start-reverse"
       inkscape:stockid="Triangle arrow"
       markerWidth="1"
       markerHeight="1"
       viewBox="0 0 1 1"
       inkscape:isstock="true"
       inkscape:collect="always"
       preserveAspectRatio="xMidYMid">
      <path
         transform="scale(0.5)"
         style="fill:context-stroke;fill-rule:evenodd;stroke:context-stroke;stroke-width:1pt"
         d="M 5.77,0 -2.88,5 V -5 Z"
         id="path7-6" />
    </marker>
    <rect
       x="287.98148"
       y="520.83777"
       width="265.1752"
       height="45.696568"
       id="rect2-79" />
    <rect
       x="287.98148"
       y="520.83777"
       width="265.1752"
       height="45.696568"
       id="rect2-79-7" />
    <rect
       x="287.98148"
       y="520.83777"
       width="265.1752"
       height="45.696568"
       id="rect2-79-7-8" />
    <marker
       style="overflow:visible"
       id="marker7-2"
       refX="0"
       refY="0"
       orient="auto-start-reverse"
       inkscape:stockid="Triangle arrow"
       markerWidth="1"
       markerHeight="1"
       viewBox="0 0 1 1"
       inkscape:isstock="true"
       inkscape:collect="always"
       preserveAspectRatio="xMidYMid">
      <path
         transform="scale(0.5)"
         style="fill:context-stroke;fill-rule:evenodd;stroke:context-stroke;stroke-width:1pt"
         d="M 5.77,0 -2.88,5 V -5 Z"
         id="path7-9" />
    </marker>
    <marker
       style="overflow:visible"
       id="marker7-2-8"
       refX="0"
       refY="0"
       orient="auto-start-reverse"
       inkscape:stockid="Triangle arrow"
       markerWidth="1"
       markerHeight="1"
       viewBox="0 0 1 1"
       inkscape:isstock="true"
       inkscape:collect="always"
       preserveAspectRatio="xMidYMid">
      <path
         transform="scale(0.5)"
         style="fill:context-stroke;fill-rule:evenodd;stroke:context-stroke;stroke-width:1pt"
         d="M 5.77,0 -2.88,5 V -5 Z"
         id="path7-9-4" />
    </marker>
    <rect
       x="287.98148"
       y="520.83777"
       width="265.1752"
       height="45.696568"
       id="rect2-79-7-8-6" />
    <rect
       x="287.98148"
       y="520.83777"
       width="265.1752"
       height="45.696568"
       id="rect2-79-7-8-6-5" />
  </defs>
  <g
     inkscape:label="Layer 1"
     inkscape:groupmode="layer"
     id="layer1">
    <path
       style="fill:#ffffff;fill-rule:evenodd;stroke:#000000;stroke-width:0.1;stroke-linecap:butt;stroke-linejoin:round;stroke-miterlimit:2;stroke-dasharray:0.4,0.1;stroke-dashoffset:0"
       d="M 148.504,0 V 210"
       id="path1" />
    <path
       style="fill:#ffffff;fill-rule:evenodd;stroke:#000000;stroke-width:0.1;stroke-linecap:butt;stroke-linejoin:round;stroke-miterlimit:2;stroke-dasharray:0.4,0.1;stroke-dashoffset:0"
       d="M 250.1,0 V 210"
       id="path1-5" />
    <path
       style="fill:#ffffff;fill-rule:evenodd;stroke:#000000;stroke-width:0.1;stroke-linecap:butt;stroke-linejoin:round;stroke-miterlimit:2;stroke-dasharray:0.4,0.1;stroke-dashoffset:0"
       d="M 46.9,0 V 210"
       id="path1-5-2" />
    <rect
       style="fill:none;fill-rule:evenodd;stroke:#000000;stroke-width:0.2;stroke-linecap:butt;stroke-linejoin:round;stroke-miterlimit:2;stroke-dasharray:none"
       id="rect1"
       width="23.5"
       height="210"
       x="136.754"
       y="0" />
    <rect
       style="fill:none;fill-rule:evenodd;stroke:#000000;stroke-width:0.2;stroke-linecap:butt;stroke-linejoin:round;stroke-miterlimit:2;stroke-dasharray:none"
       id="rect1-7"
       width="26.1"
       height="210"
       x="237.05"
       y="0" />
    <rect
       style="fill:none;fill-rule:evenodd;stroke:#000000;stroke-width:0.2;stroke-linecap:butt;stroke-linejoin:round;stroke-miterlimit:2;stroke-dasharray:none"
       id="rect1-7-6"
       width="26.1"
       height="210"
       x="33.849998"
       y="0" />
    <path
       style="fill:none;fill-rule:evenodd;stroke:#000000;stroke-width:0.1;stroke-linejoin:round;stroke-miterlimit:2;stroke-dasharray:0.4,0.1;stroke-dashoffset:0"
       d="M 0,0 H 297 M 0,1 H 297 M 0,2 H 297 M 0,3 H 297 M 0,4 H 297 M 0,5 H 297 M 0,6 H 297 M 0,7 H 297 M 0,8 H 297 M 0,9 H 297 M 0,10 H 297 M 0,11 H 297 M 0,12 H 297 M 0,13 H 297 M 0,14 H 297 M 0,15 H 297 M 0,16 H 297 M 0,17 H 297 M 0,18 H 297 M 0,19 H 297 M 0,20 H 297 M 0,21 H 297 M 0,22 H 297 M 0,23 H 297 M 0,24 H 297 M 0,25 H 297 M 0,26 H 297 M 0,27 H 297 M 0,28 H 297 M 0,29 H 297 M 0,30 H 297 M 0,31 H 297 M 0,32 H 297 M 0,33 H 297 M 0,34 H 297 M 0,35 H 297 M 0,36 H 297 M 0,37 H 297 M 0,38 H 297 M 0,39 H 297 M 0,40 H 297 M 0,41 H 297 M 0,42 H 297 M 0,43 H 297 M 0,44 H 297 M 0,45 H 297 M 0,46 H 297 M 0,47 H 297 M 0,48 H 297 M 0,49 H 297 M 0,50 H 297 M 0,51 H 297 M 0,52 H 297 M 0,53 H 297 M 0,54 H 297 M 0,55 H 297 M 0,56 H 297 M 0,57 H 297 M 0,58 H 297 M 0,59 H 297 M 0,60 H 297 M 0,61 H 297 M 0,62 H 297 M 0,63 H 297 M 0,64 H 297 M 0,65 H 297 M 0,66 H 297 M 0,67 H 297 M 0,68 H 297 M 0,69 H 297 M 0,70 H 297 M 0,71 H 297 M 0,72 H 297 M 0,73 H 297 M 0,74 H 297 M 0,75 H 297 M 0,76 H 297 M 0,77 H 297 M 0,78 H 297 M 0,79 H 297 M 0,80 H 297 M 0,81 H 297 M 0,82 H 297 M 0,83 H 297 M 0,84 H 297 M 0,85 H 297 M 0,86 H 297 M 0,87 H 297 M 0,88 H 297 M 0,89 H 297 M 0,90 H 297 M 0,91 H 297 M 0,92 H 297 M 0,93 H 297 M 0,94 H 297 M 0,95 H 297 M 0,96 H 297 M 0,97 H 297 M 0,98 H 297 M 0,99 h 297"
       id="path2" />
    <path
       style="fill:none;fill-rule:evenodd;stroke:#000000;stroke-width:0.2;stroke-linejoin:round;stroke-miterlimit:2;stroke-dasharray:none;stroke-dashoffset:0"
       d="M 0,0 H 297 M 0,5 H 297 M 0,10 H 297 M 0,15 H 297 M 0,20 H 297 M 0,25 H 297 M 0,30 H 297 M 0,35 H 297 M 0,40 H 297 M 0,45 H 297 M 0,50 H 297 M 0,55 H 297 M 0,60 H 297 M 0,65 H 297 M 0,70 H 297 M 0,75 H 297 M 0,80 H 297 M 0,85 H 297 M 0,90 H 297 M 0,95 H 297 M 0,100 h 297"
       id="path3" />
    <path
       style="fill:none;fill-rule:evenodd;stroke:#000000;stroke-width:0.1;stroke-linejoin:round;stroke-miterlimit:2;stroke-dasharray:0.4, 0.1;stroke-dashoffset:0"
       d="M 199.302,210 V 0"
       id="path4" />
    <path
       style="fill:none;fill-rule:evenodd;stroke:#000000;stroke-width:0.1;stroke-linejoin:round;stroke-miterlimit:2;stroke-dasharray:0.4, 0.1;stroke-dashoffset:0"
       d="M 97.702,210 V 0"
       id="path4-4" />
    <path
       style="fill:none;fill-rule:evenodd;stroke:#000000;stroke-width:0.2;stroke-dasharray:none;marker-start:url(#Triangle);marker-end:url(#marker7)"
       d="M 48.891444,193.4023 H 146.51256"
       id="path5" />
    <path
       style="fill:none;fill-rule:evenodd;stroke:#000000;stroke-width:0.2;stroke-dasharray:none;marker-start:url(#Triangle-3);marker-end:url(#marker7-0)"
       d="m 150.49157,193.4023 h 97.62087"
       id="path5-6" />
    <path
       style="fill:none;fill-rule:evenodd;stroke:#000000;stroke-width:0.2;stroke-dasharray:none;marker-start:url(#marker7);marker-end:url(#marker7)"
       d="m 138.344,200.1174 h 20.32"
       id="path8" />
    <path
       style="fill:none;fill-rule:evenodd;stroke:#000000;stroke-width:0.2;stroke-dasharray:none;marker-start:url(#marker7-2);marker-end:url(#marker7-2)"
       d="m 238.82327,200.11741 h 22.55345"
       id="path8-9" />
    <path
       style="fill:none;fill-rule:evenodd;stroke:#000000;stroke-width:0.2;stroke-dasharray:none;marker-start:url(#marker7-2-8);marker-end:url(#marker7-2-8)"
       d="m 35.623275,200.11741 h 22.55345"
       id="path8-9-6" />
    <text
       xml:space="preserve"
       transform="matrix(0,-0.26458333,0.26458333,0,-94.950766,266.2333)"
       id="text1"
       style="font-style:normal;font-variant:normal;font-weight:bold;font-stretch:normal;font-size:8px;line-height:2;font-family:'Noto Sans';-inkscape-font-specification:'Noto Sans, Bold';font-variant-ligatures:none;font-variant-caps:normal;font-variant-numeric:normal;font-variant-east-asian:normal;text-align:center;letter-spacing:0px;word-spacing:0px;white-space:pre;shape-inside:url(#rect2);display:inline"
       x="-34.355942"
       y="0"><tspan
         x="340.11751"
         y="531.11689"
         id="tspan1">Allwin PVC Card Punch No.013 (3x15mm)
</tspan><tspan
         x="380.39342"
         y="547.11689"
         id="tspan2">EAN: 6934599400726</tspan></text>
    <text
       xml:space="preserve"
       transform="matrix(0,-0.26458333,0.26458333,0,6.8648953,266.29469)"
       id="text1-3"
       style="font-style:normal;font-variant:normal;font-weight:bold;font-stretch:normal;font-size:8px;line-height:1.9;font-family:'Noto Sans';-inkscape-font-specification:'Noto Sans, Bold';font-variant-ligatures:none;font-variant-caps:normal;font-variant-numeric:normal;font-variant-east-asian:normal;text-align:center;letter-spacing:0px;word-spacing:0px;white-space:pre;shape-inside:url(#rect2-7);display:inline"
       x="-22.217937"
       y="0"><tspan
         x="367.67743"
         y="530.71689"
         id="tspan3">Generic Hole Punch (6mm)
</tspan><tspan
         x="382.84943"
         y="545.9169"
         id="tspan4">UPC: 782913365994</tspan></text>
    <text
       xml:space="preserve"
       transform="matrix(0,-0.26458333,0.26458333,0,108.24923,266.2333)"
       id="text1-1"
       style="font-style:normal;font-variant:normal;font-weight:bold;font-stretch:normal;font-size:8px;line-height:2;font-family:'Noto Sans';-inkscape-font-specification:'Noto Sans, Bold';font-variant-ligatures:none;font-variant-caps:normal;font-variant-numeric:normal;font-variant-east-asian:normal;text-align:center;letter-spacing:0px;word-spacing:0px;white-space:pre;shape-inside:url(#rect2-2);display:inline"
       x="-34.355942"
       y="0"><tspan
         x="340.11751"
         y="531.11689"
         id="tspan5">Allwin PVC Card Punch No.013 (3x15mm)
</tspan><tspan
         x="380.39342"
         y="547.11689"
         id="tspan6">EAN: 6934599400726</tspan></text>
    <text
       xml:space="preserve"
       transform="matrix(0.26458333,0,0,0.26458333,-64.336479,58.758766)"
       id="text1-0-9-7-2"
       style="font-style:normal;font-variant:normal;font-weight:bold;font-stretch:normal;font-size:8px;line-height:2;font-family:'Noto Sans';-inkscape-font-specification:'Noto Sans, Bold';font-variant-ligatures:none;font-variant-caps:normal;font-variant-numeric:normal;font-variant-east-asian:normal;text-align:center;letter-spacing:0px;word-spacing:0px;white-space:pre;shape-inside:url(#rect2-79-7-8-6);display:inline"
       x="-34.355942"
       y="0"><tspan
         x="402.42137"
         y="531.11689"
         id="tspan7">26.10mm</tspan></text>
    <text
       xml:space="preserve"
       transform="matrix(0.26458333,0,0,0.26458333,-13.549295,51.92724)"
       id="text1-0"
       style="font-style:normal;font-variant:normal;font-weight:bold;font-stretch:normal;font-size:8px;line-height:2;font-family:'Noto Sans';-inkscape-font-specification:'Noto Sans, Bold';font-variant-ligatures:none;font-variant-caps:normal;font-variant-numeric:normal;font-variant-east-asian:normal;text-align:center;letter-spacing:0px;word-spacing:0px;white-space:pre;shape-inside:url(#rect2-79);display:inline"
       x="-34.355942"
       y="0"><tspan
         x="386.80941"
         y="531.11689"
         id="tspan8">4 inch (10.16mm)</tspan></text>
    <text
       xml:space="preserve"
       transform="matrix(0.26458333,0,0,0.26458333,37.252705,58.64234)"
       id="text1-0-9-7"
       style="font-style:normal;font-variant:normal;font-weight:bold;font-stretch:normal;font-size:8px;line-height:2;font-family:'Noto Sans';-inkscape-font-specification:'Noto Sans, Bold';font-variant-ligatures:none;font-variant-caps:normal;font-variant-numeric:normal;font-variant-east-asian:normal;text-align:center;letter-spacing:0px;word-spacing:0px;white-space:pre;shape-inside:url(#rect2-79-7-8);display:inline"
       x="-34.355942"
       y="0"><tspan
         x="402.42137"
         y="531.11689"
         id="tspan9">23.50mm</tspan></text>
    <text
       xml:space="preserve"
       transform="matrix(0.26458333,0,0,0.26458333,88.050705,51.92724)"
       id="text1-0-9"
       style="font-style:normal;font-variant:normal;font-weight:bold;font-stretch:normal;font-size:8px;line-height:2;font-family:'Noto Sans';-inkscape-font-specification:'Noto Sans, Bold';font-variant-ligatures:none;font-variant-caps:normal;font-variant-numeric:normal;font-variant-east-asian:normal;text-align:center;letter-spacing:0px;word-spacing:0px;white-space:pre;shape-inside:url(#rect2-79-7);display:inline"
       x="-34.355942"
       y="0"><tspan
         x="386.80941"
         y="531.11689"
         id="tspan10">4 inch (10.16mm)</tspan></text>
    <text
       xml:space="preserve"
       transform="matrix(0.26458333,0,0,0.26458333,138.86352,58.758766)"
       id="text1-0-9-7-2-4"
       style="font-style:normal;font-variant:normal;font-weight:bold;font-stretch:normal;font-size:8px;line-height:2;font-family:'Noto Sans';-inkscape-font-specification:'Noto Sans, Bold';font-variant-ligatures:none;font-variant-caps:normal;font-variant-numeric:normal;font-variant-east-asian:normal;text-align:center;letter-spacing:0px;word-spacing:0px;white-space:pre;shape-inside:url(#rect2-79-7-8-6-5);display:inline"
       x="-34.355942"
       y="0"><tspan
         x="402.42137"
         y="531.11689"
         id="tspan11">26.10mm</tspan></text>
  </g>
</svg>
