<svg width="576" height="576" viewBox="0 0 576 576" xmlns="http://www.w3.org/2000/svg">
    
    <style>
    .primary {
        fill: none;
        stroke-width: 2px;
        stroke: #000000;
    }
    .secondary {
        fill: none;
        stroke-width: 1px;
        stroke: #000000;
        stroke-miterlimit: 4;
        stroke-dasharray: 1, 2;
        stroke-dashoffset: 0;
    }
    </style>

    <g id="ruler">
        <circle class="secondary" cx="288" cy="288" r="288" />
        <circle class="primary" cx="288" cy="288" r="9" />
        <circle class="primary" cx="288" cy="288" r="22.5" />
        <line class="primary" x1="270" y1="288" x2="306" y2="288" />
        <line class="primary" x1="288" y1="270" x2="288" y2="306" />
        <path class="primary" d="M576.0 288.0 A 288 288 0 0 0 576.0 288.0 A 288 288 0 0 0 527.463248343133 127.99577289035457 A 288 288 0 0 0 398.21282852114587 21.92269463674944 A 288 288 0 0 0 231.8139872593551 5.533839243869636 A 288 288 0 0 0 84.35324701827432 84.35324701827429 A 288 288 0 0 0 5.533839243869636 231.8139872593551 A 288 288 0 0 0 21.922694636749384 398.2128285211458 A 288 288 0 0 0 127.99577289035457 527.463248343133 A 288 288 0 0 0 287.99999999999994 576.0" /><path class="secondary" d="M336.0 288.0 A 48.0 48.0 0 0 0 336.0 288.0 A 48.0 48.0 0 0 0 327.91054139052216 261.3326288150591 A 48.0 48.0 0 0 0 306.36880475352433 243.65378243945824 A 48.0 48.0 0 0 0 278.63566454322586 240.92230654064494 A 48.0 48.0 0 0 0 254.05887450304573 254.05887450304573 A 48.0 48.0 0 0 0 240.92230654064494 278.63566454322586 A 48.0 48.0 0 0 0 243.65378243945824 306.36880475352433 A 48.0 48.0 0 0 0 261.3326288150591 327.91054139052216 A 48.0 48.0 0 0 0 288.0 336.0" /><path class="secondary" d="M384.0 288.0 A 96.0 96.0 0 0 0 384.0 288.0 A 96.0 96.0 0 0 0 367.8210827810443 234.6652576301182 A 96.0 96.0 0 0 0 324.7376095070486 199.30756487891648 A 96.0 96.0 0 0 0 269.2713290864517 193.84461308128988 A 96.0 96.0 0 0 0 220.11774900609146 220.11774900609143 A 96.0 96.0 0 0 0 193.84461308128988 269.2713290864517 A 96.0 96.0 0 0 0 199.30756487891648 324.7376095070486 A 96.0 96.0 0 0 0 234.6652576301182 367.8210827810443 A 96.0 96.0 0 0 0 288.0 384.0" /><path class="secondary" d="M432.0 288.0 A 144.0 144.0 0 0 0 432.0 288.0 A 144.0 144.0 0 0 0 407.7316241715665 207.9978864451773 A 144.0 144.0 0 0 0 343.10641426057293 154.96134731837472 A 144.0 144.0 0 0 0 259.9069936296775 146.76691962193482 A 144.0 144.0 0 0 0 186.17662350913716 186.17662350913713 A 144.0 144.0 0 0 0 146.76691962193482 259.9069936296776 A 144.0 144.0 0 0 0 154.9613473183747 343.10641426057293 A 144.0 144.0 0 0 0 207.9978864451773 407.7316241715665 A 144.0 144.0 0 0 0 288.0 432.0" /><path class="secondary" d="M480.0 288.0 A 192.0 192.0 0 0 0 480.0 288.0 A 192.0 192.0 0 0 0 447.6421655620887 181.33051526023638 A 192.0 192.0 0 0 0 361.47521901409726 110.61512975783296 A 192.0 192.0 0 0 0 250.54265817290337 99.68922616257976 A 192.0 192.0 0 0 0 152.2354980121829 152.23549801218286 A 192.0 192.0 0 0 0 99.68922616257976 250.5426581729034 A 192.0 192.0 0 0 0 110.61512975783293 361.4752190140972 A 192.0 192.0 0 0 0 181.33051526023638 447.6421655620887 A 192.0 192.0 0 0 0 287.99999999999994 480.0" /><path class="secondary" d="M528.0 288.0 A 240.0 240.0 0 0 0 528.0 288.0 A 240.0 240.0 0 0 0 487.55270695261083 154.66314407529546 A 240.0 240.0 0 0 0 379.8440237676216 66.26891219729117 A 240.0 240.0 0 0 0 241.17832271612923 52.6115327032247 A 240.0 240.0 0 0 0 118.29437251522862 118.29437251522859 A 240.0 240.0 0 0 0 52.6115327032247 241.17832271612923 A 240.0 240.0 0 0 0 66.26891219729114 379.84402376762154 A 240.0 240.0 0 0 0 154.66314407529546 487.55270695261083 A 240.0 240.0 0 0 0 287.99999999999994 528.0" /><line class="primary" x1="310.5" y1="288.0" x2="576.0" y2="288.0" /><line class="primary" x1="301.22516817658067" y1="269.7971176265637" x2="457.28215266023227" y2="55.003105620015134" /><line class="primary" x1="281.0471176265637" y1="266.60122838335906" x2="199.00310562001516" y2="14.095723306995751" /><line class="primary" x1="266.60122838335906" y1="281.0471176265637" x2="14.095723306995808" y2="199.0031056200151" /><line class="primary" x1="269.7971176265637" y1="301.22516817658067" x2="55.003105620015106" y2="457.2821526602322" /><line class="primary" x1="288.0" y1="310.5" x2="287.99999999999994" y2="576.0" />
    </g>
</svg>
