<svg width="576" height="576" viewBox="0 0 576 576" xmlns="http://www.w3.org/2000/svg">
    
    <style>
    .primary {
        fill: none;
        stroke-width: 2px;
        stroke: #000000;
    }
    .secondary {
        fill: none;
        stroke-width: 1px;
        stroke: #000000;
        stroke-miterlimit: 4;
        stroke-dasharray: 1, 2;
        stroke-dashoffset: 0;
    }
    </style>

    <g id="ruler">
        <circle class="secondary" cx="288" cy="288" r="288" />
        <circle class="primary" cx="288" cy="288" r="9" />
        <circle class="primary" cx="288" cy="288" r="22.5" />
        <line class="primary" x1="270" y1="288" x2="306" y2="288" />
        <line class="primary" x1="288" y1="270" x2="288" y2="306" />
        <path class="primary" d="M576.0 288.0 A 288 288 0 0 0 576.0 288.0 A 288 288 0 0 0 491.64675298172574 84.35324701827432 A 288 288 0 0 0 288.0 0.0 A 288 288 0 0 0 84.35324701827432 84.35324701827429 A 288 288 0 0 0 0.0 287.99999999999994 A 288 288 0 0 0 84.35324701827426 491.6467529817257 A 288 288 0 0 0 287.99999999999994 576.0 A 288 288 0 0 0 491.6467529817256 491.64675298172574 A 288 288 0 0 0 576.0 288.00000000000006" /><path class="secondary" d="M336.0 288.0 A 48.0 48.0 0 0 0 336.0 288.0 A 48.0 48.0 0 0 0 321.94112549695427 254.05887450304573 A 48.0 48.0 0 0 0 288.0 240.0 A 48.0 48.0 0 0 0 254.05887450304573 254.05887450304573 A 48.0 48.0 0 0 0 240.0 288.0 A 48.0 48.0 0 0 0 254.05887450304573 321.94112549695427 A 48.0 48.0 0 0 0 288.0 336.0 A 48.0 48.0 0 0 0 321.94112549695427 321.94112549695427 A 48.0 48.0 0 0 0 336.0 288.0" /><path class="secondary" d="M384.0 288.0 A 96.0 96.0 0 0 0 384.0 288.0 A 96.0 96.0 0 0 0 355.88225099390854 220.11774900609146 A 96.0 96.0 0 0 0 288.0 192.0 A 96.0 96.0 0 0 0 220.11774900609146 220.11774900609143 A 96.0 96.0 0 0 0 192.0 288.0 A 96.0 96.0 0 0 0 220.11774900609143 355.88225099390854 A 96.0 96.0 0 0 0 288.0 384.0 A 96.0 96.0 0 0 0 355.88225099390854 355.88225099390854 A 96.0 96.0 0 0 0 384.0 288.0" /><path class="secondary" d="M432.0 288.0 A 144.0 144.0 0 0 0 432.0 288.0 A 144.0 144.0 0 0 0 389.82337649086287 186.17662350913716 A 144.0 144.0 0 0 0 288.0 144.0 A 144.0 144.0 0 0 0 186.17662350913716 186.17662350913713 A 144.0 144.0 0 0 0 144.0 288.0 A 144.0 144.0 0 0 0 186.17662350913713 389.82337649086287 A 144.0 144.0 0 0 0 288.0 432.0 A 144.0 144.0 0 0 0 389.8233764908628 389.82337649086287 A 144.0 144.0 0 0 0 432.0 288.00000000000006" /><path class="secondary" d="M480.0 288.0 A 192.0 192.0 0 0 0 480.0 288.0 A 192.0 192.0 0 0 0 423.76450198781714 152.2354980121829 A 192.0 192.0 0 0 0 288.0 96.0 A 192.0 192.0 0 0 0 152.2354980121829 152.23549801218286 A 192.0 192.0 0 0 0 96.0 288.0 A 192.0 192.0 0 0 0 152.23549801218286 423.7645019878171 A 192.0 192.0 0 0 0 287.99999999999994 480.0 A 192.0 192.0 0 0 0 423.7645019878171 423.76450198781714 A 192.0 192.0 0 0 0 480.0 288.00000000000006" /><path class="secondary" d="M528.0 288.0 A 240.0 240.0 0 0 0 528.0 288.0 A 240.0 240.0 0 0 0 457.7056274847714 118.29437251522862 A 240.0 240.0 0 0 0 288.0 48.0 A 240.0 240.0 0 0 0 118.29437251522862 118.29437251522859 A 240.0 240.0 0 0 0 48.0 287.99999999999994 A 240.0 240.0 0 0 0 118.29437251522856 457.7056274847714 A 240.0 240.0 0 0 0 287.99999999999994 528.0 A 240.0 240.0 0 0 0 457.70562748477136 457.7056274847714 A 240.0 240.0 0 0 0 528.0 288.00000000000006" /><line class="primary" x1="310.5" y1="288.0" x2="576.0" y2="288.0" /><line class="primary" x1="293.61242574130455" y1="266.2112258881244" x2="359.8390494886985" y2="9.103691367991871" /><line class="primary" x1="270.2161649358279" y1="274.2164877331529" x2="60.36691117859729" y2="111.57104298435763" /><line class="primary" x1="266.85691603231703" y1="295.69545322482753" x2="17.36852521365836" y2="386.5018012777924" /><line class="primary" x1="279.896001191894" y1="308.98988335647" x2="184.26881525624327" y2="556.670506962816" /><line class="primary" x1="295.28401369631223" y1="309.2883335297044" x2="381.2353753127966" y2="560.4906691802161" /><line class="primary" x1="305.235999970177" y1="302.46272121794715" x2="508.6207996182656" y2="473.12283158972343" /><line class="primary" x1="309.42557742011434" y1="294.86983494814007" x2="562.2473909774635" y2="375.93388733619264" /><line class="primary" x1="310.4323411762753" y1="289.74357946511844" x2="575.1339670563241" y2="310.31781715351616" /><line class="primary" x1="310.5" y1="288.0" x2="576.0" y2="288.00000000000006" />
    </g>
</svg>
