<?xml version="1.0" encoding="UTF-8" standalone="no"?>
<!-- Created with Inkscape (http://www.inkscape.org/) -->

<svg
   width="576"
   height="768"
   viewBox="0 0 152.4 203.20001"
   version="1.1"
   id="svg5"
   inkscape:version="1.1.2 (0a00cf5339, 2022-02-04)"
   sodipodi:docname="fieldchart-overlay-text.svg"
   xmlns:inkscape="http://www.inkscape.org/namespaces/inkscape"
   xmlns:sodipodi="http://sodipodi.sourceforge.net/DTD/sodipodi-0.dtd"
   xmlns:xlink="http://www.w3.org/1999/xlink"
   xmlns="http://www.w3.org/2000/svg"
   xmlns:svg="http://www.w3.org/2000/svg">
  <sodipodi:namedview
     id="namedview7"
     pagecolor="#ffffff"
     bordercolor="#666666"
     borderopacity="1.0"
     inkscape:pageshadow="2"
     inkscape:pageopacity="0.0"
     inkscape:pagecheckerboard="0"
     inkscape:document-units="mm"
     showgrid="true"
     units="px"
     width="576px"
     showborder="true"
     inkscape:zoom="0.6236289"
     inkscape:cx="143.51484"
     inkscape:cy="440.96738"
     inkscape:window-width="1680"
     inkscape:window-height="1021"
     inkscape:window-x="0"
     inkscape:window-y="0"
     inkscape:window-maximized="1"
     inkscape:current-layer="g1655">
    <inkscape:grid
       type="xygrid"
       id="grid824"
       spacingx="5.0800001"
       spacingy="5.0800001"
       empspacing="3" />
  </sodipodi:namedview>
  <defs
     id="defs2" />
  <g
     inkscape:label="Layer 1"
     inkscape:groupmode="layer"
     id="layer1">
    <g
       id="g1655"
       inkscape:tile-cx="7.6200004"
       inkscape:tile-cy="5.08"
       inkscape:tile-w="15.240001"
       inkscape:tile-h="10.16"
       inkscape:tile-x0="0"
       inkscape:tile-y0="0">
      <rect
         style="fill:none;stroke:#000000;stroke-width:0.264583;stroke-linejoin:round;stroke-miterlimit:4;stroke-dasharray:none"
         id="rect1151"
         width="10.16"
         height="10.16"
         x="0"
         y="0" />
      <path
         style="fill:none;stroke:#000000;stroke-width:0.264583;stroke-linecap:butt;stroke-linejoin:miter;stroke-miterlimit:4;stroke-dasharray:0.264583, 0.529166;stroke-dashoffset:0;stroke-opacity:1"
         d="M 5.0799999,0 V 10.16"
         id="path1488" />
      <path
         style="fill:none;stroke:#000000;stroke-width:0.264583;stroke-linecap:butt;stroke-linejoin:miter;stroke-miterlimit:4;stroke-dasharray:0.264583, 0.529166;stroke-dashoffset:0;stroke-opacity:1"
         d="M 0,5.0799999 H 10.16"
         id="path1490" />
    </g>
    <use
       x="0"
       y="0"
       inkscape:tiled-clone-of="#g1655"
       xlink:href="#g1655"
       transform="translate(0,10.16)"
       id="use2381"
       width="100%"
       height="100%" />
    <use
       x="0"
       y="0"
       inkscape:tiled-clone-of="#g1655"
       xlink:href="#g1655"
       transform="translate(0,20.32)"
       id="use2383"
       width="100%"
       height="100%" />
    <use
       x="0"
       y="0"
       inkscape:tiled-clone-of="#g1655"
       xlink:href="#g1655"
       transform="translate(0,30.48)"
       id="use2385"
       width="100%"
       height="100%" />
    <use
       x="0"
       y="0"
       inkscape:tiled-clone-of="#g1655"
       xlink:href="#g1655"
       transform="translate(0,40.64)"
       id="use2387"
       width="100%"
       height="100%" />
    <use
       x="0"
       y="0"
       inkscape:tiled-clone-of="#g1655"
       xlink:href="#g1655"
       transform="translate(0,50.8)"
       id="use2389"
       width="100%"
       height="100%" />
    <use
       x="0"
       y="0"
       inkscape:tiled-clone-of="#g1655"
       xlink:href="#g1655"
       transform="translate(0,60.96)"
       id="use2391"
       width="100%"
       height="100%" />
    <use
       x="0"
       y="0"
       inkscape:tiled-clone-of="#g1655"
       xlink:href="#g1655"
       transform="translate(0,71.12)"
       id="use2393"
       width="100%"
       height="100%" />
    <use
       x="0"
       y="0"
       inkscape:tiled-clone-of="#g1655"
       xlink:href="#g1655"
       transform="translate(0,81.28)"
       id="use2395"
       width="100%"
       height="100%" />
    <use
       x="0"
       y="0"
       inkscape:tiled-clone-of="#g1655"
       xlink:href="#g1655"
       transform="translate(0,91.44)"
       id="use2397"
       width="100%"
       height="100%" />
    <use
       x="0"
       y="0"
       inkscape:tiled-clone-of="#g1655"
       xlink:href="#g1655"
       transform="translate(0,101.6)"
       id="use2399"
       width="100%"
       height="100%" />
    <use
       x="0"
       y="0"
       inkscape:tiled-clone-of="#g1655"
       xlink:href="#g1655"
       transform="translate(0,111.76)"
       id="use2401"
       width="100%"
       height="100%" />
    <use
       x="0"
       y="0"
       inkscape:tiled-clone-of="#g1655"
       xlink:href="#g1655"
       transform="translate(0,121.92)"
       id="use2403"
       width="100%"
       height="100%" />
    <use
       x="0"
       y="0"
       inkscape:tiled-clone-of="#g1655"
       xlink:href="#g1655"
       transform="translate(0,132.08)"
       id="use2405"
       width="100%"
       height="100%" />
    <use
       x="0"
       y="0"
       inkscape:tiled-clone-of="#g1655"
       xlink:href="#g1655"
       transform="translate(0,142.24)"
       id="use2407"
       width="100%"
       height="100%" />
    <use
       x="0"
       y="0"
       inkscape:tiled-clone-of="#g1655"
       xlink:href="#g1655"
       transform="translate(0,152.4)"
       id="use2409"
       width="100%"
       height="100%" />
    <use
       x="0"
       y="0"
       inkscape:tiled-clone-of="#g1655"
       xlink:href="#g1655"
       transform="translate(0,162.56)"
       id="use2411"
       width="100%"
       height="100%" />
    <use
       x="0"
       y="0"
       inkscape:tiled-clone-of="#g1655"
       xlink:href="#g1655"
       transform="translate(0,172.72)"
       id="use2413"
       width="100%"
       height="100%" />
    <use
       x="0"
       y="0"
       inkscape:tiled-clone-of="#g1655"
       xlink:href="#g1655"
       transform="translate(0,182.88)"
       id="use2415"
       width="100%"
       height="100%" />
    <use
       x="0"
       y="0"
       inkscape:tiled-clone-of="#g1655"
       xlink:href="#g1655"
       transform="translate(0,193.04)"
       id="use2417"
       width="100%"
       height="100%" />
    <use
       x="0"
       y="0"
       inkscape:tiled-clone-of="#g1655"
       xlink:href="#g1655"
       transform="translate(15.240001)"
       id="use2419"
       width="100%"
       height="100%" />
    <use
       x="0"
       y="0"
       inkscape:tiled-clone-of="#g1655"
       xlink:href="#g1655"
       transform="translate(15.240001,10.16)"
       id="use2421"
       width="100%"
       height="100%" />
    <use
       x="0"
       y="0"
       inkscape:tiled-clone-of="#g1655"
       xlink:href="#g1655"
       transform="translate(15.240001,20.32)"
       id="use2423"
       width="100%"
       height="100%" />
    <use
       x="0"
       y="0"
       inkscape:tiled-clone-of="#g1655"
       xlink:href="#g1655"
       transform="translate(15.240001,30.48)"
       id="use2425"
       width="100%"
       height="100%" />
    <use
       x="0"
       y="0"
       inkscape:tiled-clone-of="#g1655"
       xlink:href="#g1655"
       transform="translate(15.240001,40.64)"
       id="use2427"
       width="100%"
       height="100%" />
    <use
       x="0"
       y="0"
       inkscape:tiled-clone-of="#g1655"
       xlink:href="#g1655"
       transform="translate(15.240001,50.8)"
       id="use2429"
       width="100%"
       height="100%" />
    <use
       x="0"
       y="0"
       inkscape:tiled-clone-of="#g1655"
       xlink:href="#g1655"
       transform="translate(15.240001,60.96)"
       id="use2431"
       width="100%"
       height="100%" />
    <use
       x="0"
       y="0"
       inkscape:tiled-clone-of="#g1655"
       xlink:href="#g1655"
       transform="translate(15.240001,71.12)"
       id="use2433"
       width="100%"
       height="100%" />
    <use
       x="0"
       y="0"
       inkscape:tiled-clone-of="#g1655"
       xlink:href="#g1655"
       transform="translate(15.240001,81.28)"
       id="use2435"
       width="100%"
       height="100%" />
    <use
       x="0"
       y="0"
       inkscape:tiled-clone-of="#g1655"
       xlink:href="#g1655"
       transform="translate(15.240001,91.44)"
       id="use2437"
       width="100%"
       height="100%" />
    <use
       x="0"
       y="0"
       inkscape:tiled-clone-of="#g1655"
       xlink:href="#g1655"
       transform="translate(15.240001,101.6)"
       id="use2439"
       width="100%"
       height="100%" />
    <use
       x="0"
       y="0"
       inkscape:tiled-clone-of="#g1655"
       xlink:href="#g1655"
       transform="translate(15.240001,111.76)"
       id="use2441"
       width="100%"
       height="100%" />
    <use
       x="0"
       y="0"
       inkscape:tiled-clone-of="#g1655"
       xlink:href="#g1655"
       transform="translate(15.240001,121.92)"
       id="use2443"
       width="100%"
       height="100%" />
    <use
       x="0"
       y="0"
       inkscape:tiled-clone-of="#g1655"
       xlink:href="#g1655"
       transform="translate(15.240001,132.08)"
       id="use2445"
       width="100%"
       height="100%" />
    <use
       x="0"
       y="0"
       inkscape:tiled-clone-of="#g1655"
       xlink:href="#g1655"
       transform="translate(15.240001,142.24)"
       id="use2447"
       width="100%"
       height="100%" />
    <use
       x="0"
       y="0"
       inkscape:tiled-clone-of="#g1655"
       xlink:href="#g1655"
       transform="translate(15.240001,152.4)"
       id="use2449"
       width="100%"
       height="100%" />
    <use
       x="0"
       y="0"
       inkscape:tiled-clone-of="#g1655"
       xlink:href="#g1655"
       transform="translate(15.240001,162.56)"
       id="use2451"
       width="100%"
       height="100%" />
    <use
       x="0"
       y="0"
       inkscape:tiled-clone-of="#g1655"
       xlink:href="#g1655"
       transform="translate(15.240001,172.72)"
       id="use2453"
       width="100%"
       height="100%" />
    <use
       x="0"
       y="0"
       inkscape:tiled-clone-of="#g1655"
       xlink:href="#g1655"
       transform="translate(15.240001,182.88)"
       id="use2455"
       width="100%"
       height="100%" />
    <use
       x="0"
       y="0"
       inkscape:tiled-clone-of="#g1655"
       xlink:href="#g1655"
       transform="translate(15.240001,193.04)"
       id="use2457"
       width="100%"
       height="100%" />
    <use
       x="0"
       y="0"
       inkscape:tiled-clone-of="#g1655"
       xlink:href="#g1655"
       transform="translate(30.480001)"
       id="use2459"
       width="100%"
       height="100%" />
    <use
       x="0"
       y="0"
       inkscape:tiled-clone-of="#g1655"
       xlink:href="#g1655"
       transform="translate(30.480001,10.16)"
       id="use2461"
       width="100%"
       height="100%" />
    <use
       x="0"
       y="0"
       inkscape:tiled-clone-of="#g1655"
       xlink:href="#g1655"
       transform="translate(30.480001,20.32)"
       id="use2463"
       width="100%"
       height="100%" />
    <use
       x="0"
       y="0"
       inkscape:tiled-clone-of="#g1655"
       xlink:href="#g1655"
       transform="translate(30.480001,30.48)"
       id="use2465"
       width="100%"
       height="100%" />
    <use
       x="0"
       y="0"
       inkscape:tiled-clone-of="#g1655"
       xlink:href="#g1655"
       transform="translate(30.480001,40.64)"
       id="use2467"
       width="100%"
       height="100%" />
    <use
       x="0"
       y="0"
       inkscape:tiled-clone-of="#g1655"
       xlink:href="#g1655"
       transform="translate(30.480001,50.8)"
       id="use2469"
       width="100%"
       height="100%" />
    <use
       x="0"
       y="0"
       inkscape:tiled-clone-of="#g1655"
       xlink:href="#g1655"
       transform="translate(30.480001,60.96)"
       id="use2471"
       width="100%"
       height="100%" />
    <use
       x="0"
       y="0"
       inkscape:tiled-clone-of="#g1655"
       xlink:href="#g1655"
       transform="translate(30.480001,71.12)"
       id="use2473"
       width="100%"
       height="100%" />
    <use
       x="0"
       y="0"
       inkscape:tiled-clone-of="#g1655"
       xlink:href="#g1655"
       transform="translate(30.480001,81.28)"
       id="use2475"
       width="100%"
       height="100%" />
    <use
       x="0"
       y="0"
       inkscape:tiled-clone-of="#g1655"
       xlink:href="#g1655"
       transform="translate(30.480001,91.44)"
       id="use2477"
       width="100%"
       height="100%" />
    <use
       x="0"
       y="0"
       inkscape:tiled-clone-of="#g1655"
       xlink:href="#g1655"
       transform="translate(30.480001,101.6)"
       id="use2479"
       width="100%"
       height="100%" />
    <use
       x="0"
       y="0"
       inkscape:tiled-clone-of="#g1655"
       xlink:href="#g1655"
       transform="translate(30.480001,111.76)"
       id="use2481"
       width="100%"
       height="100%" />
    <use
       x="0"
       y="0"
       inkscape:tiled-clone-of="#g1655"
       xlink:href="#g1655"
       transform="translate(30.480001,121.92)"
       id="use2483"
       width="100%"
       height="100%" />
    <use
       x="0"
       y="0"
       inkscape:tiled-clone-of="#g1655"
       xlink:href="#g1655"
       transform="translate(30.480001,132.08)"
       id="use2485"
       width="100%"
       height="100%" />
    <use
       x="0"
       y="0"
       inkscape:tiled-clone-of="#g1655"
       xlink:href="#g1655"
       transform="translate(30.480001,142.24)"
       id="use2487"
       width="100%"
       height="100%" />
    <use
       x="0"
       y="0"
       inkscape:tiled-clone-of="#g1655"
       xlink:href="#g1655"
       transform="translate(30.480001,152.4)"
       id="use2489"
       width="100%"
       height="100%" />
    <use
       x="0"
       y="0"
       inkscape:tiled-clone-of="#g1655"
       xlink:href="#g1655"
       transform="translate(30.480001,162.56)"
       id="use2491"
       width="100%"
       height="100%" />
    <use
       x="0"
       y="0"
       inkscape:tiled-clone-of="#g1655"
       xlink:href="#g1655"
       transform="translate(30.480001,172.72)"
       id="use2493"
       width="100%"
       height="100%" />
    <use
       x="0"
       y="0"
       inkscape:tiled-clone-of="#g1655"
       xlink:href="#g1655"
       transform="translate(30.480001,182.88)"
       id="use2495"
       width="100%"
       height="100%" />
    <use
       x="0"
       y="0"
       inkscape:tiled-clone-of="#g1655"
       xlink:href="#g1655"
       transform="translate(30.480001,193.04)"
       id="use2497"
       width="100%"
       height="100%" />
    <use
       x="0"
       y="0"
       inkscape:tiled-clone-of="#g1655"
       xlink:href="#g1655"
       transform="translate(45.720002)"
       id="use2499"
       width="100%"
       height="100%" />
    <use
       x="0"
       y="0"
       inkscape:tiled-clone-of="#g1655"
       xlink:href="#g1655"
       transform="translate(45.720002,10.16)"
       id="use2501"
       width="100%"
       height="100%" />
    <use
       x="0"
       y="0"
       inkscape:tiled-clone-of="#g1655"
       xlink:href="#g1655"
       transform="translate(45.720002,20.32)"
       id="use2503"
       width="100%"
       height="100%" />
    <use
       x="0"
       y="0"
       inkscape:tiled-clone-of="#g1655"
       xlink:href="#g1655"
       transform="translate(45.720002,30.48)"
       id="use2505"
       width="100%"
       height="100%" />
    <use
       x="0"
       y="0"
       inkscape:tiled-clone-of="#g1655"
       xlink:href="#g1655"
       transform="translate(45.720002,40.64)"
       id="use2507"
       width="100%"
       height="100%" />
    <use
       x="0"
       y="0"
       inkscape:tiled-clone-of="#g1655"
       xlink:href="#g1655"
       transform="translate(45.720002,50.8)"
       id="use2509"
       width="100%"
       height="100%" />
    <use
       x="0"
       y="0"
       inkscape:tiled-clone-of="#g1655"
       xlink:href="#g1655"
       transform="translate(45.720002,60.96)"
       id="use2511"
       width="100%"
       height="100%" />
    <use
       x="0"
       y="0"
       inkscape:tiled-clone-of="#g1655"
       xlink:href="#g1655"
       transform="translate(45.720002,71.12)"
       id="use2513"
       width="100%"
       height="100%" />
    <use
       x="0"
       y="0"
       inkscape:tiled-clone-of="#g1655"
       xlink:href="#g1655"
       transform="translate(45.720002,81.28)"
       id="use2515"
       width="100%"
       height="100%" />
    <use
       x="0"
       y="0"
       inkscape:tiled-clone-of="#g1655"
       xlink:href="#g1655"
       transform="translate(45.720002,91.44)"
       id="use2517"
       width="100%"
       height="100%" />
    <use
       x="0"
       y="0"
       inkscape:tiled-clone-of="#g1655"
       xlink:href="#g1655"
       transform="translate(45.720002,101.6)"
       id="use2519"
       width="100%"
       height="100%" />
    <use
       x="0"
       y="0"
       inkscape:tiled-clone-of="#g1655"
       xlink:href="#g1655"
       transform="translate(45.720002,111.76)"
       id="use2521"
       width="100%"
       height="100%" />
    <use
       x="0"
       y="0"
       inkscape:tiled-clone-of="#g1655"
       xlink:href="#g1655"
       transform="translate(45.720002,121.92)"
       id="use2523"
       width="100%"
       height="100%" />
    <use
       x="0"
       y="0"
       inkscape:tiled-clone-of="#g1655"
       xlink:href="#g1655"
       transform="translate(45.720002,132.08)"
       id="use2525"
       width="100%"
       height="100%" />
    <use
       x="0"
       y="0"
       inkscape:tiled-clone-of="#g1655"
       xlink:href="#g1655"
       transform="translate(45.720002,142.24)"
       id="use2527"
       width="100%"
       height="100%" />
    <use
       x="0"
       y="0"
       inkscape:tiled-clone-of="#g1655"
       xlink:href="#g1655"
       transform="translate(45.720002,152.4)"
       id="use2529"
       width="100%"
       height="100%" />
    <use
       x="0"
       y="0"
       inkscape:tiled-clone-of="#g1655"
       xlink:href="#g1655"
       transform="translate(45.720002,162.56)"
       id="use2531"
       width="100%"
       height="100%" />
    <use
       x="0"
       y="0"
       inkscape:tiled-clone-of="#g1655"
       xlink:href="#g1655"
       transform="translate(45.720002,172.72)"
       id="use2533"
       width="100%"
       height="100%" />
    <use
       x="0"
       y="0"
       inkscape:tiled-clone-of="#g1655"
       xlink:href="#g1655"
       transform="translate(45.720002,182.88)"
       id="use2535"
       width="100%"
       height="100%" />
    <use
       x="0"
       y="0"
       inkscape:tiled-clone-of="#g1655"
       xlink:href="#g1655"
       transform="translate(45.720002,193.04)"
       id="use2537"
       width="100%"
       height="100%" />
    <use
       x="0"
       y="0"
       inkscape:tiled-clone-of="#g1655"
       xlink:href="#g1655"
       transform="translate(60.960003)"
       id="use2539"
       width="100%"
       height="100%" />
    <use
       x="0"
       y="0"
       inkscape:tiled-clone-of="#g1655"
       xlink:href="#g1655"
       transform="translate(60.960003,10.16)"
       id="use2541"
       width="100%"
       height="100%" />
    <use
       x="0"
       y="0"
       inkscape:tiled-clone-of="#g1655"
       xlink:href="#g1655"
       transform="translate(60.960003,20.32)"
       id="use2543"
       width="100%"
       height="100%" />
    <use
       x="0"
       y="0"
       inkscape:tiled-clone-of="#g1655"
       xlink:href="#g1655"
       transform="translate(60.960003,30.48)"
       id="use2545"
       width="100%"
       height="100%" />
    <use
       x="0"
       y="0"
       inkscape:tiled-clone-of="#g1655"
       xlink:href="#g1655"
       transform="translate(60.960003,40.64)"
       id="use2547"
       width="100%"
       height="100%" />
    <use
       x="0"
       y="0"
       inkscape:tiled-clone-of="#g1655"
       xlink:href="#g1655"
       transform="translate(60.960003,50.8)"
       id="use2549"
       width="100%"
       height="100%" />
    <use
       x="0"
       y="0"
       inkscape:tiled-clone-of="#g1655"
       xlink:href="#g1655"
       transform="translate(60.960003,60.96)"
       id="use2551"
       width="100%"
       height="100%" />
    <use
       x="0"
       y="0"
       inkscape:tiled-clone-of="#g1655"
       xlink:href="#g1655"
       transform="translate(60.960003,71.12)"
       id="use2553"
       width="100%"
       height="100%" />
    <use
       x="0"
       y="0"
       inkscape:tiled-clone-of="#g1655"
       xlink:href="#g1655"
       transform="translate(60.960003,81.28)"
       id="use2555"
       width="100%"
       height="100%" />
    <use
       x="0"
       y="0"
       inkscape:tiled-clone-of="#g1655"
       xlink:href="#g1655"
       transform="translate(60.960003,91.44)"
       id="use2557"
       width="100%"
       height="100%" />
    <use
       x="0"
       y="0"
       inkscape:tiled-clone-of="#g1655"
       xlink:href="#g1655"
       transform="translate(60.960003,101.6)"
       id="use2559"
       width="100%"
       height="100%" />
    <use
       x="0"
       y="0"
       inkscape:tiled-clone-of="#g1655"
       xlink:href="#g1655"
       transform="translate(60.960003,111.76)"
       id="use2561"
       width="100%"
       height="100%" />
    <use
       x="0"
       y="0"
       inkscape:tiled-clone-of="#g1655"
       xlink:href="#g1655"
       transform="translate(60.960003,121.92)"
       id="use2563"
       width="100%"
       height="100%" />
    <use
       x="0"
       y="0"
       inkscape:tiled-clone-of="#g1655"
       xlink:href="#g1655"
       transform="translate(60.960003,132.08)"
       id="use2565"
       width="100%"
       height="100%" />
    <use
       x="0"
       y="0"
       inkscape:tiled-clone-of="#g1655"
       xlink:href="#g1655"
       transform="translate(60.960003,142.24)"
       id="use2567"
       width="100%"
       height="100%" />
    <use
       x="0"
       y="0"
       inkscape:tiled-clone-of="#g1655"
       xlink:href="#g1655"
       transform="translate(60.960003,152.4)"
       id="use2569"
       width="100%"
       height="100%" />
    <use
       x="0"
       y="0"
       inkscape:tiled-clone-of="#g1655"
       xlink:href="#g1655"
       transform="translate(60.960003,162.56)"
       id="use2571"
       width="100%"
       height="100%" />
    <use
       x="0"
       y="0"
       inkscape:tiled-clone-of="#g1655"
       xlink:href="#g1655"
       transform="translate(60.960003,172.72)"
       id="use2573"
       width="100%"
       height="100%" />
    <use
       x="0"
       y="0"
       inkscape:tiled-clone-of="#g1655"
       xlink:href="#g1655"
       transform="translate(60.960003,182.88)"
       id="use2575"
       width="100%"
       height="100%" />
    <use
       x="0"
       y="0"
       inkscape:tiled-clone-of="#g1655"
       xlink:href="#g1655"
       transform="translate(60.960003,193.04)"
       id="use2577"
       width="100%"
       height="100%" />
    <use
       x="0"
       y="0"
       inkscape:tiled-clone-of="#g1655"
       xlink:href="#g1655"
       transform="translate(76.200004)"
       id="use2579"
       width="100%"
       height="100%" />
    <use
       x="0"
       y="0"
       inkscape:tiled-clone-of="#g1655"
       xlink:href="#g1655"
       transform="translate(76.200004,10.16)"
       id="use2581"
       width="100%"
       height="100%" />
    <use
       x="0"
       y="0"
       inkscape:tiled-clone-of="#g1655"
       xlink:href="#g1655"
       transform="translate(76.200004,20.32)"
       id="use2583"
       width="100%"
       height="100%" />
    <use
       x="0"
       y="0"
       inkscape:tiled-clone-of="#g1655"
       xlink:href="#g1655"
       transform="translate(76.200004,30.48)"
       id="use2585"
       width="100%"
       height="100%" />
    <use
       x="0"
       y="0"
       inkscape:tiled-clone-of="#g1655"
       xlink:href="#g1655"
       transform="translate(76.200004,40.64)"
       id="use2587"
       width="100%"
       height="100%" />
    <use
       x="0"
       y="0"
       inkscape:tiled-clone-of="#g1655"
       xlink:href="#g1655"
       transform="translate(76.200004,50.8)"
       id="use2589"
       width="100%"
       height="100%" />
    <use
       x="0"
       y="0"
       inkscape:tiled-clone-of="#g1655"
       xlink:href="#g1655"
       transform="translate(76.200004,60.96)"
       id="use2591"
       width="100%"
       height="100%" />
    <use
       x="0"
       y="0"
       inkscape:tiled-clone-of="#g1655"
       xlink:href="#g1655"
       transform="translate(76.200004,71.12)"
       id="use2593"
       width="100%"
       height="100%" />
    <use
       x="0"
       y="0"
       inkscape:tiled-clone-of="#g1655"
       xlink:href="#g1655"
       transform="translate(76.200004,81.28)"
       id="use2595"
       width="100%"
       height="100%" />
    <use
       x="0"
       y="0"
       inkscape:tiled-clone-of="#g1655"
       xlink:href="#g1655"
       transform="translate(76.200004,91.44)"
       id="use2597"
       width="100%"
       height="100%" />
    <use
       x="0"
       y="0"
       inkscape:tiled-clone-of="#g1655"
       xlink:href="#g1655"
       transform="translate(76.200004,101.6)"
       id="use2599"
       width="100%"
       height="100%" />
    <use
       x="0"
       y="0"
       inkscape:tiled-clone-of="#g1655"
       xlink:href="#g1655"
       transform="translate(76.200004,111.76)"
       id="use2601"
       width="100%"
       height="100%" />
    <use
       x="0"
       y="0"
       inkscape:tiled-clone-of="#g1655"
       xlink:href="#g1655"
       transform="translate(76.200004,121.92)"
       id="use2603"
       width="100%"
       height="100%" />
    <use
       x="0"
       y="0"
       inkscape:tiled-clone-of="#g1655"
       xlink:href="#g1655"
       transform="translate(76.200004,132.08)"
       id="use2605"
       width="100%"
       height="100%" />
    <use
       x="0"
       y="0"
       inkscape:tiled-clone-of="#g1655"
       xlink:href="#g1655"
       transform="translate(76.200004,142.24)"
       id="use2607"
       width="100%"
       height="100%" />
    <use
       x="0"
       y="0"
       inkscape:tiled-clone-of="#g1655"
       xlink:href="#g1655"
       transform="translate(76.200004,152.4)"
       id="use2609"
       width="100%"
       height="100%" />
    <use
       x="0"
       y="0"
       inkscape:tiled-clone-of="#g1655"
       xlink:href="#g1655"
       transform="translate(76.200004,162.56)"
       id="use2611"
       width="100%"
       height="100%" />
    <use
       x="0"
       y="0"
       inkscape:tiled-clone-of="#g1655"
       xlink:href="#g1655"
       transform="translate(76.200004,172.72)"
       id="use2613"
       width="100%"
       height="100%" />
    <use
       x="0"
       y="0"
       inkscape:tiled-clone-of="#g1655"
       xlink:href="#g1655"
       transform="translate(76.200004,182.88)"
       id="use2615"
       width="100%"
       height="100%" />
    <use
       x="0"
       y="0"
       inkscape:tiled-clone-of="#g1655"
       xlink:href="#g1655"
       transform="translate(76.200004,193.04)"
       id="use2617"
       width="100%"
       height="100%" />
    <use
       x="0"
       y="0"
       inkscape:tiled-clone-of="#g1655"
       xlink:href="#g1655"
       transform="translate(91.440004)"
       id="use2619"
       width="100%"
       height="100%" />
    <use
       x="0"
       y="0"
       inkscape:tiled-clone-of="#g1655"
       xlink:href="#g1655"
       transform="translate(91.440004,10.16)"
       id="use2621"
       width="100%"
       height="100%" />
    <use
       x="0"
       y="0"
       inkscape:tiled-clone-of="#g1655"
       xlink:href="#g1655"
       transform="translate(91.440004,20.32)"
       id="use2623"
       width="100%"
       height="100%" />
    <use
       x="0"
       y="0"
       inkscape:tiled-clone-of="#g1655"
       xlink:href="#g1655"
       transform="translate(91.440004,30.48)"
       id="use2625"
       width="100%"
       height="100%" />
    <use
       x="0"
       y="0"
       inkscape:tiled-clone-of="#g1655"
       xlink:href="#g1655"
       transform="translate(91.440004,40.64)"
       id="use2627"
       width="100%"
       height="100%" />
    <use
       x="0"
       y="0"
       inkscape:tiled-clone-of="#g1655"
       xlink:href="#g1655"
       transform="translate(91.440004,50.8)"
       id="use2629"
       width="100%"
       height="100%" />
    <use
       x="0"
       y="0"
       inkscape:tiled-clone-of="#g1655"
       xlink:href="#g1655"
       transform="translate(91.440004,60.96)"
       id="use2631"
       width="100%"
       height="100%" />
    <use
       x="0"
       y="0"
       inkscape:tiled-clone-of="#g1655"
       xlink:href="#g1655"
       transform="translate(91.440004,71.12)"
       id="use2633"
       width="100%"
       height="100%" />
    <use
       x="0"
       y="0"
       inkscape:tiled-clone-of="#g1655"
       xlink:href="#g1655"
       transform="translate(91.440004,81.28)"
       id="use2635"
       width="100%"
       height="100%" />
    <use
       x="0"
       y="0"
       inkscape:tiled-clone-of="#g1655"
       xlink:href="#g1655"
       transform="translate(91.440004,91.44)"
       id="use2637"
       width="100%"
       height="100%" />
    <use
       x="0"
       y="0"
       inkscape:tiled-clone-of="#g1655"
       xlink:href="#g1655"
       transform="translate(91.440004,101.6)"
       id="use2639"
       width="100%"
       height="100%" />
    <use
       x="0"
       y="0"
       inkscape:tiled-clone-of="#g1655"
       xlink:href="#g1655"
       transform="translate(91.440004,111.76)"
       id="use2641"
       width="100%"
       height="100%" />
    <use
       x="0"
       y="0"
       inkscape:tiled-clone-of="#g1655"
       xlink:href="#g1655"
       transform="translate(91.440004,121.92)"
       id="use2643"
       width="100%"
       height="100%" />
    <use
       x="0"
       y="0"
       inkscape:tiled-clone-of="#g1655"
       xlink:href="#g1655"
       transform="translate(91.440004,132.08)"
       id="use2645"
       width="100%"
       height="100%" />
    <use
       x="0"
       y="0"
       inkscape:tiled-clone-of="#g1655"
       xlink:href="#g1655"
       transform="translate(91.440004,142.24)"
       id="use2647"
       width="100%"
       height="100%" />
    <use
       x="0"
       y="0"
       inkscape:tiled-clone-of="#g1655"
       xlink:href="#g1655"
       transform="translate(91.440004,152.4)"
       id="use2649"
       width="100%"
       height="100%" />
    <use
       x="0"
       y="0"
       inkscape:tiled-clone-of="#g1655"
       xlink:href="#g1655"
       transform="translate(91.440004,162.56)"
       id="use2651"
       width="100%"
       height="100%" />
    <use
       x="0"
       y="0"
       inkscape:tiled-clone-of="#g1655"
       xlink:href="#g1655"
       transform="translate(91.440004,172.72)"
       id="use2653"
       width="100%"
       height="100%" />
    <use
       x="0"
       y="0"
       inkscape:tiled-clone-of="#g1655"
       xlink:href="#g1655"
       transform="translate(91.440004,182.88)"
       id="use2655"
       width="100%"
       height="100%" />
    <use
       x="0"
       y="0"
       inkscape:tiled-clone-of="#g1655"
       xlink:href="#g1655"
       transform="translate(91.440004,193.04)"
       id="use2657"
       width="100%"
       height="100%" />
    <use
       x="0"
       y="0"
       inkscape:tiled-clone-of="#g1655"
       xlink:href="#g1655"
       transform="translate(106.68001)"
       id="use2659"
       width="100%"
       height="100%" />
    <use
       x="0"
       y="0"
       inkscape:tiled-clone-of="#g1655"
       xlink:href="#g1655"
       transform="translate(106.68001,10.16)"
       id="use2661"
       width="100%"
       height="100%" />
    <use
       x="0"
       y="0"
       inkscape:tiled-clone-of="#g1655"
       xlink:href="#g1655"
       transform="translate(106.68001,20.32)"
       id="use2663"
       width="100%"
       height="100%" />
    <use
       x="0"
       y="0"
       inkscape:tiled-clone-of="#g1655"
       xlink:href="#g1655"
       transform="translate(106.68001,30.48)"
       id="use2665"
       width="100%"
       height="100%" />
    <use
       x="0"
       y="0"
       inkscape:tiled-clone-of="#g1655"
       xlink:href="#g1655"
       transform="translate(106.68001,40.64)"
       id="use2667"
       width="100%"
       height="100%" />
    <use
       x="0"
       y="0"
       inkscape:tiled-clone-of="#g1655"
       xlink:href="#g1655"
       transform="translate(106.68001,50.8)"
       id="use2669"
       width="100%"
       height="100%" />
    <use
       x="0"
       y="0"
       inkscape:tiled-clone-of="#g1655"
       xlink:href="#g1655"
       transform="translate(106.68001,60.96)"
       id="use2671"
       width="100%"
       height="100%" />
    <use
       x="0"
       y="0"
       inkscape:tiled-clone-of="#g1655"
       xlink:href="#g1655"
       transform="translate(106.68001,71.12)"
       id="use2673"
       width="100%"
       height="100%" />
    <use
       x="0"
       y="0"
       inkscape:tiled-clone-of="#g1655"
       xlink:href="#g1655"
       transform="translate(106.68001,81.28)"
       id="use2675"
       width="100%"
       height="100%" />
    <use
       x="0"
       y="0"
       inkscape:tiled-clone-of="#g1655"
       xlink:href="#g1655"
       transform="translate(106.68001,91.44)"
       id="use2677"
       width="100%"
       height="100%" />
    <use
       x="0"
       y="0"
       inkscape:tiled-clone-of="#g1655"
       xlink:href="#g1655"
       transform="translate(106.68001,101.6)"
       id="use2679"
       width="100%"
       height="100%" />
    <use
       x="0"
       y="0"
       inkscape:tiled-clone-of="#g1655"
       xlink:href="#g1655"
       transform="translate(106.68001,111.76)"
       id="use2681"
       width="100%"
       height="100%" />
    <use
       x="0"
       y="0"
       inkscape:tiled-clone-of="#g1655"
       xlink:href="#g1655"
       transform="translate(106.68001,121.92)"
       id="use2683"
       width="100%"
       height="100%" />
    <use
       x="0"
       y="0"
       inkscape:tiled-clone-of="#g1655"
       xlink:href="#g1655"
       transform="translate(106.68001,132.08)"
       id="use2685"
       width="100%"
       height="100%" />
    <use
       x="0"
       y="0"
       inkscape:tiled-clone-of="#g1655"
       xlink:href="#g1655"
       transform="translate(106.68001,142.24)"
       id="use2687"
       width="100%"
       height="100%" />
    <use
       x="0"
       y="0"
       inkscape:tiled-clone-of="#g1655"
       xlink:href="#g1655"
       transform="translate(106.68001,152.4)"
       id="use2689"
       width="100%"
       height="100%" />
    <use
       x="0"
       y="0"
       inkscape:tiled-clone-of="#g1655"
       xlink:href="#g1655"
       transform="translate(106.68001,162.56)"
       id="use2691"
       width="100%"
       height="100%" />
    <use
       x="0"
       y="0"
       inkscape:tiled-clone-of="#g1655"
       xlink:href="#g1655"
       transform="translate(106.68001,172.72)"
       id="use2693"
       width="100%"
       height="100%" />
    <use
       x="0"
       y="0"
       inkscape:tiled-clone-of="#g1655"
       xlink:href="#g1655"
       transform="translate(106.68001,182.88)"
       id="use2695"
       width="100%"
       height="100%" />
    <use
       x="0"
       y="0"
       inkscape:tiled-clone-of="#g1655"
       xlink:href="#g1655"
       transform="translate(106.68001,193.04)"
       id="use2697"
       width="100%"
       height="100%" />
    <use
       x="0"
       y="0"
       inkscape:tiled-clone-of="#g1655"
       xlink:href="#g1655"
       transform="translate(121.92001)"
       id="use2699"
       width="100%"
       height="100%" />
    <use
       x="0"
       y="0"
       inkscape:tiled-clone-of="#g1655"
       xlink:href="#g1655"
       transform="translate(121.92001,10.16)"
       id="use2701"
       width="100%"
       height="100%" />
    <use
       x="0"
       y="0"
       inkscape:tiled-clone-of="#g1655"
       xlink:href="#g1655"
       transform="translate(121.92001,20.32)"
       id="use2703"
       width="100%"
       height="100%" />
    <use
       x="0"
       y="0"
       inkscape:tiled-clone-of="#g1655"
       xlink:href="#g1655"
       transform="translate(121.92001,30.48)"
       id="use2705"
       width="100%"
       height="100%" />
    <use
       x="0"
       y="0"
       inkscape:tiled-clone-of="#g1655"
       xlink:href="#g1655"
       transform="translate(121.92001,40.64)"
       id="use2707"
       width="100%"
       height="100%" />
    <use
       x="0"
       y="0"
       inkscape:tiled-clone-of="#g1655"
       xlink:href="#g1655"
       transform="translate(121.92001,50.8)"
       id="use2709"
       width="100%"
       height="100%" />
    <use
       x="0"
       y="0"
       inkscape:tiled-clone-of="#g1655"
       xlink:href="#g1655"
       transform="translate(121.92001,60.96)"
       id="use2711"
       width="100%"
       height="100%" />
    <use
       x="0"
       y="0"
       inkscape:tiled-clone-of="#g1655"
       xlink:href="#g1655"
       transform="translate(121.92001,71.12)"
       id="use2713"
       width="100%"
       height="100%" />
    <use
       x="0"
       y="0"
       inkscape:tiled-clone-of="#g1655"
       xlink:href="#g1655"
       transform="translate(121.92001,81.28)"
       id="use2715"
       width="100%"
       height="100%" />
    <use
       x="0"
       y="0"
       inkscape:tiled-clone-of="#g1655"
       xlink:href="#g1655"
       transform="translate(121.92001,91.44)"
       id="use2717"
       width="100%"
       height="100%" />
    <use
       x="0"
       y="0"
       inkscape:tiled-clone-of="#g1655"
       xlink:href="#g1655"
       transform="translate(121.92001,101.6)"
       id="use2719"
       width="100%"
       height="100%" />
    <use
       x="0"
       y="0"
       inkscape:tiled-clone-of="#g1655"
       xlink:href="#g1655"
       transform="translate(121.92001,111.76)"
       id="use2721"
       width="100%"
       height="100%" />
    <use
       x="0"
       y="0"
       inkscape:tiled-clone-of="#g1655"
       xlink:href="#g1655"
       transform="translate(121.92001,121.92)"
       id="use2723"
       width="100%"
       height="100%" />
    <use
       x="0"
       y="0"
       inkscape:tiled-clone-of="#g1655"
       xlink:href="#g1655"
       transform="translate(121.92001,132.08)"
       id="use2725"
       width="100%"
       height="100%" />
    <use
       x="0"
       y="0"
       inkscape:tiled-clone-of="#g1655"
       xlink:href="#g1655"
       transform="translate(121.92001,142.24)"
       id="use2727"
       width="100%"
       height="100%" />
    <use
       x="0"
       y="0"
       inkscape:tiled-clone-of="#g1655"
       xlink:href="#g1655"
       transform="translate(121.92001,152.4)"
       id="use2729"
       width="100%"
       height="100%" />
    <use
       x="0"
       y="0"
       inkscape:tiled-clone-of="#g1655"
       xlink:href="#g1655"
       transform="translate(121.92001,162.56)"
       id="use2731"
       width="100%"
       height="100%" />
    <use
       x="0"
       y="0"
       inkscape:tiled-clone-of="#g1655"
       xlink:href="#g1655"
       transform="translate(121.92001,172.72)"
       id="use2733"
       width="100%"
       height="100%" />
    <use
       x="0"
       y="0"
       inkscape:tiled-clone-of="#g1655"
       xlink:href="#g1655"
       transform="translate(121.92001,182.88)"
       id="use2735"
       width="100%"
       height="100%" />
    <use
       x="0"
       y="0"
       inkscape:tiled-clone-of="#g1655"
       xlink:href="#g1655"
       transform="translate(121.92001,193.04)"
       id="use2737"
       width="100%"
       height="100%" />
    <use
       x="0"
       y="0"
       inkscape:tiled-clone-of="#g1655"
       xlink:href="#g1655"
       transform="translate(137.16001)"
       id="use2739"
       width="100%"
       height="100%" />
    <use
       x="0"
       y="0"
       inkscape:tiled-clone-of="#g1655"
       xlink:href="#g1655"
       transform="translate(137.16001,10.16)"
       id="use2741"
       width="100%"
       height="100%" />
    <use
       x="0"
       y="0"
       inkscape:tiled-clone-of="#g1655"
       xlink:href="#g1655"
       transform="translate(137.16001,20.32)"
       id="use2743"
       width="100%"
       height="100%" />
    <use
       x="0"
       y="0"
       inkscape:tiled-clone-of="#g1655"
       xlink:href="#g1655"
       transform="translate(137.16001,30.48)"
       id="use2745"
       width="100%"
       height="100%" />
    <use
       x="0"
       y="0"
       inkscape:tiled-clone-of="#g1655"
       xlink:href="#g1655"
       transform="translate(137.16001,40.64)"
       id="use2747"
       width="100%"
       height="100%" />
    <use
       x="0"
       y="0"
       inkscape:tiled-clone-of="#g1655"
       xlink:href="#g1655"
       transform="translate(137.16001,50.8)"
       id="use2749"
       width="100%"
       height="100%" />
    <use
       x="0"
       y="0"
       inkscape:tiled-clone-of="#g1655"
       xlink:href="#g1655"
       transform="translate(137.16001,60.96)"
       id="use2751"
       width="100%"
       height="100%" />
    <use
       x="0"
       y="0"
       inkscape:tiled-clone-of="#g1655"
       xlink:href="#g1655"
       transform="translate(137.16001,71.12)"
       id="use2753"
       width="100%"
       height="100%" />
    <use
       x="0"
       y="0"
       inkscape:tiled-clone-of="#g1655"
       xlink:href="#g1655"
       transform="translate(137.16001,81.28)"
       id="use2755"
       width="100%"
       height="100%" />
    <use
       x="0"
       y="0"
       inkscape:tiled-clone-of="#g1655"
       xlink:href="#g1655"
       transform="translate(137.16001,91.44)"
       id="use2757"
       width="100%"
       height="100%" />
    <use
       x="0"
       y="0"
       inkscape:tiled-clone-of="#g1655"
       xlink:href="#g1655"
       transform="translate(137.16001,101.6)"
       id="use2759"
       width="100%"
       height="100%" />
    <use
       x="0"
       y="0"
       inkscape:tiled-clone-of="#g1655"
       xlink:href="#g1655"
       transform="translate(137.16001,111.76)"
       id="use2761"
       width="100%"
       height="100%" />
    <use
       x="0"
       y="0"
       inkscape:tiled-clone-of="#g1655"
       xlink:href="#g1655"
       transform="translate(137.16001,121.92)"
       id="use2763"
       width="100%"
       height="100%" />
    <use
       x="0"
       y="0"
       inkscape:tiled-clone-of="#g1655"
       xlink:href="#g1655"
       transform="translate(137.16001,132.08)"
       id="use2765"
       width="100%"
       height="100%" />
    <use
       x="0"
       y="0"
       inkscape:tiled-clone-of="#g1655"
       xlink:href="#g1655"
       transform="translate(137.16001,142.24)"
       id="use2767"
       width="100%"
       height="100%" />
    <use
       x="0"
       y="0"
       inkscape:tiled-clone-of="#g1655"
       xlink:href="#g1655"
       transform="translate(137.16001,152.4)"
       id="use2769"
       width="100%"
       height="100%" />
    <use
       x="0"
       y="0"
       inkscape:tiled-clone-of="#g1655"
       xlink:href="#g1655"
       transform="translate(137.16001,162.56)"
       id="use2771"
       width="100%"
       height="100%" />
    <use
       x="0"
       y="0"
       inkscape:tiled-clone-of="#g1655"
       xlink:href="#g1655"
       transform="translate(137.16001,172.72)"
       id="use2773"
       width="100%"
       height="100%" />
    <use
       x="0"
       y="0"
       inkscape:tiled-clone-of="#g1655"
       xlink:href="#g1655"
       transform="translate(137.16001,182.88)"
       id="use2775"
       width="100%"
       height="100%" />
    <use
       x="0"
       y="0"
       inkscape:tiled-clone-of="#g1655"
       xlink:href="#g1655"
       transform="translate(137.16001,193.04)"
       id="use2777"
       width="100%"
       height="100%" />
  </g>
</svg>
