<svg width="576" height="576" viewBox="0 0 576 576" xmlns="http://www.w3.org/2000/svg">
    
    <style>
    .primary {
        fill: none;
        stroke-width: 2px;
        stroke: #000000;
    }
    .secondary {
        fill: none;
        stroke-width: 1px;
        stroke: #000000;
        stroke-miterlimit: 4;
        stroke-dasharray: 1, 2;
        stroke-dashoffset: 0;
    }
    </style>

    <g id="ruler">
        <circle class="secondary" cx="288" cy="288" r="288" />
        <circle class="primary" cx="288" cy="288" r="9" />
        <circle class="primary" cx="288" cy="288" r="22.5" />
        <line class="primary" x1="270" y1="288" x2="306" y2="288" />
        <line class="primary" x1="288" y1="270" x2="288" y2="306" />
        <path class="primary" d="M576 288 A 288 288 0 0 0 576 288 A 288 288 0 0 0 537.415 144 A 288 288 0 0 0 432 38.585 A 288 288 0 0 0 288 0 A 288 288 0 0 0 144 38.585 A 288 288 0 0 0 38.585 144 A 288 288 0 0 0 0 288 A 288 288 0 0 0 38.585 432 A 288 288 0 0 0 144 537.415" /><path class="secondary" d="M336 288 A 48 48 0 0 0 336 288 A 48 48 0 0 0 329.569 264 A 48 48 0 0 0 312 246.431 A 48 48 0 0 0 288 240 A 48 48 0 0 0 264 246.431 A 48 48 0 0 0 246.431 264 A 48 48 0 0 0 240 288 A 48 48 0 0 0 246.431 312 A 48 48 0 0 0 264 329.569" /><path class="secondary" d="M384 288 A 96 96 0 0 0 384 288 A 96 96 0 0 0 371.138 240 A 96 96 0 0 0 336 204.862 A 96 96 0 0 0 288 192 A 96 96 0 0 0 240 204.862 A 96 96 0 0 0 204.862 240 A 96 96 0 0 0 192 288 A 96 96 0 0 0 204.862 336 A 96 96 0 0 0 240 371.138" /><path class="secondary" d="M432 288 A 144 144 0 0 0 432 288 A 144 144 0 0 0 412.708 216 A 144 144 0 0 0 360 163.292 A 144 144 0 0 0 288 144 A 144 144 0 0 0 216 163.292 A 144 144 0 0 0 163.292 216 A 144 144 0 0 0 144 288 A 144 144 0 0 0 163.292 360 A 144 144 0 0 0 216 412.708" /><path class="secondary" d="M480 288 A 192 192 0 0 0 480 288 A 192 192 0 0 0 454.277 192 A 192 192 0 0 0 384 121.723 A 192 192 0 0 0 288 96 A 192 192 0 0 0 192 121.723 A 192 192 0 0 0 121.723 192 A 192 192 0 0 0 96 288 A 192 192 0 0 0 121.723 384 A 192 192 0 0 0 192 454.277" /><path class="secondary" d="M528 288 A 240 240 0 0 0 528 288 A 240 240 0 0 0 495.846 168 A 240 240 0 0 0 408 80.154 A 240 240 0 0 0 288 48 A 240 240 0 0 0 168 80.154 A 240 240 0 0 0 80.154 168 A 240 240 0 0 0 48 288 A 240 240 0 0 0 80.154 408 A 240 240 0 0 0 168 495.846" /><line class="primary" x1="310.5" y1="288" x2="576" y2="288" /><line class="primary" x1="302.351" y1="270.671" x2="471.693" y2="66.187" /><line class="primary" x1="286.111" y1="265.579" x2="263.827" y2="1.016" /><line class="primary" x1="272.56" y1="271.634" x2="90.362" y2="78.516" /><line class="primary" x1="266.175" y1="282.529" x2="8.645" y2="217.965" /><line class="primary" x1="266.041" y1="292.905" x2="6.928" y2="350.789" /><line class="primary" x1="269.202" y1="300.364" x2="47.38" y2="446.259" /><line class="primary" x1="272.988" y1="304.76" x2="95.844" y2="502.523" /><line class="primary" x1="275.758" y1="306.878" x2="131.3" y2="529.638" /><line class="primary" x1="276.75" y1="307.486" x2="144" y2="537.415" />
    </g>
</svg>
