<?xml version="1.0" encoding="UTF-8" standalone="no"?>
<!-- Created with Inkscape (http://www.inkscape.org/) -->

<svg
   width="576"
   height="576"
   viewBox="0 0 152.4 152.4"
   version="1.1"
   id="svg826"
   inkscape:version="1.3.2 (091e20e, 2023-11-25)"
   sodipodi:docname="icon-server.svg"
   xmlns:inkscape="http://www.inkscape.org/namespaces/inkscape"
   xmlns:sodipodi="http://sodipodi.sourceforge.net/DTD/sodipodi-0.dtd"
   xmlns="http://www.w3.org/2000/svg"
   xmlns:svg="http://www.w3.org/2000/svg">
  <sodipodi:namedview
     id="namedview828"
     pagecolor="#ffffff"
     bordercolor="#666666"
     borderopacity="1.0"
     inkscape:pageshadow="2"
     inkscape:pageopacity="0.0"
     inkscape:pagecheckerboard="0"
     inkscape:document-units="mm"
     showgrid="true"
     units="px"
     inkscape:zoom="0.88550786"
     inkscape:cx="419.53326"
     inkscape:cy="339.91793"
     inkscape:window-width="1680"
     inkscape:window-height="1021"
     inkscape:window-x="0"
     inkscape:window-y="0"
     inkscape:window-maximized="1"
     inkscape:current-layer="g14"
     inkscape:showpageshadow="2"
     inkscape:deskcolor="#d1d1d1">
    <inkscape:grid
       type="xygrid"
       id="grid887"
       spacingx="9.525"
       spacingy="9.525"
       originx="0"
       originy="0"
       units="px"
       visible="true"
       empspacing="4" />
  </sodipodi:namedview>
  <defs
     id="defs823">
    <inkscape:path-effect
       effect="tiling"
       id="path-effect14"
       is_visible="true"
       lpeversion="1"
       unit="px"
       seed="1;1"
       lpesatellites=""
       num_rows="4"
       num_cols="1"
       gapx="0"
       gapy="0"
       offset="0"
       offset_type="false"
       scale="0"
       rotate="0"
       mirrorrowsx="false"
       mirrorrowsy="false"
       mirrorcolsx="false"
       mirrorcolsy="false"
       mirrortrans="false"
       shrink_interp="false"
       split_items="false"
       link_styles="false"
       interpolate_scalex="false"
       interpolate_scaley="true"
       interpolate_rotatex="false"
       interpolate_rotatey="true"
       random_scale="false"
       random_rotate="false"
       random_gap_y="false"
       random_gap_x="false"
       transformorigin="" />
  </defs>
  <g
     inkscape:label="Layer 1"
     inkscape:groupmode="layer"
     id="layer1">
    <g
       id="g14"
       inkscape:path-effect="#path-effect14"
       transform="translate(0,9.5249996)">
      <path
         style="fill:#ffffff;fill-rule:evenodd;stroke:#000000;stroke-width:4.23299;-inkscape-stroke:none;paint-order:markers fill stroke"
         id="rect7"
         width="133.34999"
         height="28.574997"
         x="9.5249996"
         y="9.5249996"
         sodipodi:type="rect"
         d="M 9.5249996,9.5249996 H 142.87499 V 38.099997 H 9.5249996 Z m 0,28.5749974 H 142.87499 V 66.674994 H 9.5249996 Z m 0,28.574997 H 142.87499 V 95.24999 H 9.5249996 Z m 0,28.574996 H 142.87499 v 28.575 H 9.5249996 Z" />
      <path
         style="fill:#ffffff;fill-rule:evenodd;stroke:#000000;stroke-width:4.23299;stroke-linecap:square;-inkscape-stroke:none;paint-order:markers fill stroke"
         d="M 28.574999,19.049999 V 28.575 m 0,19.049996 v 9.525001 m 0,19.049996 v 9.525001 m 0,19.049996 v 9.525"
         id="path10"
         inkscape:original-d="M 28.574999,19.049999 V 28.575" />
      <path
         style="fill:#ffffff;fill-rule:evenodd;stroke:#000000;stroke-width:4.23299;stroke-linecap:square;-inkscape-stroke:none;paint-order:markers fill stroke"
         d="M 47.624997,19.049999 V 28.575 m 0,19.049996 v 9.525001 m 0,19.049996 v 9.525001 m 0,19.049996 v 9.525"
         id="path11"
         inkscape:original-d="M 47.624997,19.049999 V 28.575" />
      <path
         style="fill:#ffffff;fill-rule:evenodd;stroke:#000000;stroke-width:4.23299;stroke-linecap:square;-inkscape-stroke:none;paint-order:markers fill stroke"
         d="M 66.674997,19.049999 V 28.575 m 0,19.049996 v 9.525001 m 0,19.049996 v 9.525001 m 0,19.049996 v 9.525"
         id="path12"
         inkscape:original-d="M 66.674997,19.049999 V 28.575" />
      <path
         style="fill:#ffffff;fill-rule:evenodd;stroke:#000000;stroke-width:4.23299;stroke-linecap:square;-inkscape-stroke:none;paint-order:markers fill stroke"
         d="M 85.724996,19.049999 V 28.575 m 0,19.049996 v 9.525001 m 0,19.049996 v 9.525001 m 0,19.049996 v 9.525"
         id="path13"
         inkscape:original-d="M 85.724996,19.049999 V 28.575" />
      <path
         style="fill:#ffffff;fill-rule:evenodd;stroke:#000000;stroke-width:4.23299;stroke-linecap:square;-inkscape-stroke:none;paint-order:markers fill stroke"
         d="M 104.775,19.049999 V 28.575 m 0,19.049996 v 9.525001 m 0,19.049996 v 9.525001 m 0,19.049996 v 9.525"
         id="path14"
         inkscape:original-d="M 104.775,19.049999 V 28.575" />
      <path
         style="fill:#ffffff;fill-rule:evenodd;stroke:#000000;stroke-width:4.23299;stroke-linecap:square;-inkscape-stroke:none;paint-order:markers fill stroke"
         d="m 114.3,19.049998 v 9.525001 m 0,19.049996 v 9.525001 m 0,19.049996 v 9.525001 m 0,19.049997 v 9.525"
         id="path14-1"
         inkscape:original-d="m 114.3,19.049998 v 9.525001" />
      <path
         style="fill:#ffffff;fill-rule:evenodd;stroke:#000000;stroke-width:4.23299;stroke-linecap:square;-inkscape-stroke:none;paint-order:markers fill stroke"
         d="m 19.050002,19.049998 v 9.525001 m 0,19.049996 v 9.525001 m 0,19.049996 v 9.525001 m 0,19.049997 v 9.525"
         id="path10-6"
         inkscape:original-d="m 19.050002,19.049998 v 9.525001" />
      <path
         style="fill:#ffffff;fill-rule:evenodd;stroke:#000000;stroke-width:4.23299;stroke-linecap:square;-inkscape-stroke:none;paint-order:markers fill stroke"
         d="m 38.1,19.049998 v 9.525001 m 0,19.049996 v 9.525001 m 0,19.049996 v 9.525001 m 0,19.049997 v 9.525"
         id="path11-0"
         inkscape:original-d="m 38.1,19.049998 v 9.525001" />
      <path
         style="fill:#ffffff;fill-rule:evenodd;stroke:#000000;stroke-width:4.23299;stroke-linecap:square;-inkscape-stroke:none;paint-order:markers fill stroke"
         d="m 57.150005,19.049998 v 9.525001 m 0,19.049996 v 9.525001 m 0,19.049996 v 9.525001 m 0,19.049997 v 9.525"
         id="path12-6"
         inkscape:original-d="m 57.150005,19.049998 v 9.525001" />
      <path
         style="fill:#ffffff;fill-rule:evenodd;stroke:#000000;stroke-width:4.23299;stroke-linecap:square;-inkscape-stroke:none;paint-order:markers fill stroke"
         d="m 76.199995,19.049998 v 9.525001 m 0,19.049996 v 9.525001 m 0,19.049996 v 9.525001 m 0,19.049997 v 9.525"
         id="path13-2"
         inkscape:original-d="m 76.199995,19.049998 v 9.525001" />
      <path
         style="fill:#ffffff;fill-rule:evenodd;stroke:#000000;stroke-width:4.23299;stroke-linecap:square;-inkscape-stroke:none;paint-order:markers fill stroke"
         d="m 95.250005,19.049998 v 9.525001 m 0,19.049996 v 9.525001 m 0,19.049996 v 9.525001 m 0,19.049997 v 9.525"
         id="path14-6"
         inkscape:original-d="m 95.250005,19.049998 v 9.525001" />
      <path
         style="font-variation-settings:normal;opacity:1;vector-effect:none;fill:#ffffff;fill-opacity:1;fill-rule:evenodd;stroke:#000000;stroke-width:4.23299;stroke-linecap:butt;stroke-linejoin:miter;stroke-miterlimit:4;stroke-dasharray:none;stroke-dashoffset:0;stroke-opacity:1;-inkscape-stroke:none;paint-order:markers fill stroke;stop-color:#000000;stop-opacity:1"
         id="rect1"
         sodipodi:type="rect"
         width="9.5249996"
         height="9.5249996"
         x="123.82499"
         y="19.049997"
         d="m 128.58749,19.049997 c 2.63842,0 4.7625,2.124075 4.7625,4.7625 0,2.638425 -2.12408,4.7625 -4.7625,4.7625 -2.63843,0 -4.7625,-2.124075 -4.7625,-4.7625 0,-2.638425 2.12407,-4.7625 4.7625,-4.7625 z m 0,28.574997 c 2.63842,0 4.7625,2.124075 4.7625,4.7625 0,2.638425 -2.12408,4.7625 -4.7625,4.7625 -2.63843,0 -4.7625,-2.124075 -4.7625,-4.7625 0,-2.638425 2.12407,-4.7625 4.7625,-4.7625 z m 0,28.574997 c 2.63842,0 4.7625,2.124075 4.7625,4.7625 0,2.638425 -2.12408,4.7625 -4.7625,4.7625 -2.63843,0 -4.7625,-2.124075 -4.7625,-4.7625 0,-2.638425 2.12407,-4.7625 4.7625,-4.7625 z m 0,28.574999 c 2.63842,0 4.7625,2.12407 4.7625,4.7625 0,2.63842 -2.12408,4.7625 -4.7625,4.7625 -2.63843,0 -4.7625,-2.12408 -4.7625,-4.7625 0,-2.63843 2.12407,-4.7625 4.7625,-4.7625 z"
         ry="4.7624998" />
    </g>
    <rect
       style="font-variation-settings:normal;opacity:1;vector-effect:none;fill:#ffffff;fill-opacity:1;fill-rule:evenodd;stroke:#000000;stroke-width:4.23299;stroke-linecap:butt;stroke-linejoin:miter;stroke-miterlimit:4;stroke-dasharray:none;stroke-dashoffset:0;stroke-opacity:1;-inkscape-stroke:none;paint-order:markers fill stroke"
       id="rect14"
       width="19.049999"
       height="9.5249996"
       x="19.049999"
       y="133.34999" />
    <rect
       style="font-variation-settings:normal;opacity:1;vector-effect:none;fill:#ffffff;fill-opacity:1;fill-rule:evenodd;stroke:#000000;stroke-width:4.23299;stroke-linecap:butt;stroke-linejoin:miter;stroke-miterlimit:4;stroke-dasharray:none;stroke-dashoffset:0;stroke-opacity:1;-inkscape-stroke:none;paint-order:markers fill stroke"
       id="rect15"
       width="19.049999"
       height="9.5249996"
       x="114.29999"
       y="133.34999" />
  </g>
</svg>
