<svg width="576" height="576" viewBox="0 0 576 576" xmlns="http://www.w3.org/2000/svg">
    
    <style>
    .primary {
        fill: none;
        stroke-width: 2px;
        stroke: #000000;
    }
    .secondary {
        fill: none;
        stroke-width: 1px;
        stroke: #000000;
        stroke-miterlimit: 4;
        stroke-dasharray: 1, 2;
        stroke-dashoffset: 0;
    }
    </style>

    <g id="ruler">
        <circle class="secondary" cx="288" cy="288" r="288" />
        <circle class="primary" cx="288" cy="288" r="9" />
        <circle class="primary" cx="288" cy="288" r="22.5" />
        <line class="primary" x1="270" y1="288" x2="306" y2="288" />
        <line class="primary" x1="288" y1="270" x2="288" y2="306" />
        <path class="primary" d="M576.0 288.0 A 288 288 0 0 0 576.0 288.0 A 288 288 0 0 0 491.64675298172574 84.35324701827432 A 288 288 0 0 0 288.0 0.0 A 288 288 0 0 0 84.35324701827432 84.35324701827429 A 288 288 0 0 0 0.0 287.99999999999994 A 288 288 0 0 0 84.35324701827426 491.6467529817257 A 288 288 0 0 0 287.99999999999994 576.0 A 288 288 0 0 0 491.6467529817256 491.64675298172574 A 288 288 0 0 0 576.0 288.00000000000006" /><path class="secondary" d="M336.0 288.0 A 48.0 48.0 0 0 0 336.0 288.0 A 48.0 48.0 0 0 0 321.94112549695427 254.05887450304573 A 48.0 48.0 0 0 0 288.0 240.0 A 48.0 48.0 0 0 0 254.05887450304573 254.05887450304573 A 48.0 48.0 0 0 0 240.0 288.0 A 48.0 48.0 0 0 0 254.05887450304573 321.94112549695427 A 48.0 48.0 0 0 0 288.0 336.0 A 48.0 48.0 0 0 0 321.94112549695427 321.94112549695427 A 48.0 48.0 0 0 0 336.0 288.0" /><path class="secondary" d="M384.0 288.0 A 96.0 96.0 0 0 0 384.0 288.0 A 96.0 96.0 0 0 0 355.88225099390854 220.11774900609146 A 96.0 96.0 0 0 0 288.0 192.0 A 96.0 96.0 0 0 0 220.11774900609146 220.11774900609143 A 96.0 96.0 0 0 0 192.0 288.0 A 96.0 96.0 0 0 0 220.11774900609143 355.88225099390854 A 96.0 96.0 0 0 0 288.0 384.0 A 96.0 96.0 0 0 0 355.88225099390854 355.88225099390854 A 96.0 96.0 0 0 0 384.0 288.0" /><path class="secondary" d="M432.0 288.0 A 144.0 144.0 0 0 0 432.0 288.0 A 144.0 144.0 0 0 0 389.82337649086287 186.17662350913716 A 144.0 144.0 0 0 0 288.0 144.0 A 144.0 144.0 0 0 0 186.17662350913716 186.17662350913713 A 144.0 144.0 0 0 0 144.0 288.0 A 144.0 144.0 0 0 0 186.17662350913713 389.82337649086287 A 144.0 144.0 0 0 0 288.0 432.0 A 144.0 144.0 0 0 0 389.8233764908628 389.82337649086287 A 144.0 144.0 0 0 0 432.0 288.00000000000006" /><path class="secondary" d="M480.0 288.0 A 192.0 192.0 0 0 0 480.0 288.0 A 192.0 192.0 0 0 0 423.76450198781714 152.2354980121829 A 192.0 192.0 0 0 0 288.0 96.0 A 192.0 192.0 0 0 0 152.2354980121829 152.23549801218286 A 192.0 192.0 0 0 0 96.0 288.0 A 192.0 192.0 0 0 0 152.23549801218286 423.7645019878171 A 192.0 192.0 0 0 0 287.99999999999994 480.0 A 192.0 192.0 0 0 0 423.7645019878171 423.76450198781714 A 192.0 192.0 0 0 0 480.0 288.00000000000006" /><path class="secondary" d="M528.0 288.0 A 240.0 240.0 0 0 0 528.0 288.0 A 240.0 240.0 0 0 0 457.7056274847714 118.29437251522862 A 240.0 240.0 0 0 0 288.0 48.0 A 240.0 240.0 0 0 0 118.29437251522862 118.29437251522859 A 240.0 240.0 0 0 0 48.0 287.99999999999994 A 240.0 240.0 0 0 0 118.29437251522856 457.7056274847714 A 240.0 240.0 0 0 0 287.99999999999994 528.0 A 240.0 240.0 0 0 0 457.70562748477136 457.7056274847714 A 240.0 240.0 0 0 0 528.0 288.00000000000006" /><line class="primary" x1="310.5" y1="288.0" x2="576.0" y2="288.0" /><line class="primary" x1="310.0676688090727" y1="283.6104677546371" x2="570.4661607561304" y2="231.81398725935506" /><line class="primary" x1="303.90990257669733" y1="272.09009742330267" x2="491.64675298172574" y2="84.35324701827432" /><line class="primary" x1="283.6104677546371" y1="265.9323311909273" x2="231.8139872593551" y2="5.533839243869636" /><line class="primary" x1="265.5" y1="288.0" x2="0.0" y2="287.99999999999994" /><line class="primary" x1="283.6104677546371" y1="310.0676688090727" x2="231.81398725935495" y2="570.4661607561303" /><line class="primary" x1="303.90990257669733" y1="303.90990257669733" x2="491.6467529817256" y2="491.64675298172574" /><line class="primary" x1="310.0676688090727" y1="292.3895322453629" x2="570.4661607561303" y2="344.1860127406451" /><line class="primary" x1="310.5" y1="288.0" x2="576.0" y2="288.00000000000006" />
    </g>
</svg>
