<svg width="576" height="576" viewBox="0 0 576 576" xmlns="http://www.w3.org/2000/svg">
    
    <style>
    .primary {
        fill: none;
        stroke-width: 2px;
        stroke: #000000;
    }
    .secondary {
        fill: none;
        stroke-width: 1px;
        stroke: #000000;
        stroke-miterlimit: 4;
        stroke-dasharray: 1, 2;
        stroke-dashoffset: 0;
    }
    </style>

    <g id="ruler">
        <circle class="secondary" cx="288" cy="288" r="288" />
        <circle class="primary" cx="288" cy="288" r="9" />
        <circle class="primary" cx="288" cy="288" r="22.5" />
        <line class="primary" x1="270" y1="288" x2="306" y2="288" />
        <line class="primary" x1="288" y1="270" x2="288" y2="306" />
        <path class="primary" d="M576 288 A 288 288 0 0 0 576 288 A 288 288 0 0 0 491.647 84.353 A 288 288 0 0 0 288 0 A 288 288 0 0 0 84.353 84.353 A 288 288 0 0 0 0 288 A 288 288 0 0 0 84.353 491.647 A 288 288 0 0 0 288 576 A 288 288 0 0 0 491.647 491.647 A 288 288 0 0 0 576 288" /><path class="secondary" d="M336 288 A 48 48 0 0 0 336 288 A 48 48 0 0 0 321.941 254.059 A 48 48 0 0 0 288 240 A 48 48 0 0 0 254.059 254.059 A 48 48 0 0 0 240 288 A 48 48 0 0 0 254.059 321.941 A 48 48 0 0 0 288 336 A 48 48 0 0 0 321.941 321.941 A 48 48 0 0 0 336 288" /><path class="secondary" d="M384 288 A 96 96 0 0 0 384 288 A 96 96 0 0 0 355.882 220.118 A 96 96 0 0 0 288 192 A 96 96 0 0 0 220.118 220.118 A 96 96 0 0 0 192 288 A 96 96 0 0 0 220.118 355.882 A 96 96 0 0 0 288 384 A 96 96 0 0 0 355.882 355.882 A 96 96 0 0 0 384 288" /><path class="secondary" d="M432 288 A 144 144 0 0 0 432 288 A 144 144 0 0 0 389.823 186.177 A 144 144 0 0 0 288 144 A 144 144 0 0 0 186.177 186.177 A 144 144 0 0 0 144 288 A 144 144 0 0 0 186.177 389.823 A 144 144 0 0 0 288 432 A 144 144 0 0 0 389.823 389.823 A 144 144 0 0 0 432 288" /><path class="secondary" d="M480 288 A 192 192 0 0 0 480 288 A 192 192 0 0 0 423.765 152.235 A 192 192 0 0 0 288 96 A 192 192 0 0 0 152.235 152.235 A 192 192 0 0 0 96 288 A 192 192 0 0 0 152.235 423.765 A 192 192 0 0 0 288 480 A 192 192 0 0 0 423.765 423.765 A 192 192 0 0 0 480 288" /><path class="secondary" d="M528 288 A 240 240 0 0 0 528 288 A 240 240 0 0 0 457.706 118.294 A 240 240 0 0 0 288 48 A 240 240 0 0 0 118.294 118.294 A 240 240 0 0 0 48 288 A 240 240 0 0 0 118.294 457.706 A 240 240 0 0 0 288 528 A 240 240 0 0 0 457.706 457.706 A 240 240 0 0 0 528 288" /><line class="primary" x1="310.5" y1="288" x2="576" y2="288" /><line class="primary" x1="309.793" y1="282.404" x2="566.952" y2="216.377" /><line class="primary" x1="300.056" y1="269.003" x2="442.318" y2="44.834" /><line class="primary" x1="273.658" y1="270.663" x2="104.422" y2="66.092" /><line class="primary" x1="273.658" y1="305.337" x2="104.422" y2="509.908" /><line class="primary" x1="310.5" y1="288" x2="576" y2="288" />
    </g>
</svg>
