<svg width="576" height="576" viewBox="0 0 576 576" xmlns="http://www.w3.org/2000/svg">
    
    <style>
    .primary {
        fill: none;
        stroke-width: 2px;
        stroke: #000000;
    }
    .secondary {
        fill: none;
        stroke-width: 1px;
        stroke: #000000;
        stroke-miterlimit: 4;
        stroke-dasharray: 1, 2;
        stroke-dashoffset: 0;
    }
    </style>

    <g id="ruler">
        <circle class="secondary" cx="288" cy="288" r="288" />
        <circle class="primary" cx="288" cy="288" r="9" />
        <circle class="primary" cx="288" cy="288" r="22.5" />
        <line class="primary" x1="270" y1="288" x2="306" y2="288" />
        <line class="primary" x1="288" y1="270" x2="288" y2="306" />
        <path class="primary" d="M576 288 A 288 288 0 0 0 576 288 A 288 288 0 0 0 570.466 231.814 A 288 288 0 0 0 554.077 177.787 A 288 288 0 0 0 527.463 127.996 A 288 288 0 0 0 491.647 84.353 A 288 288 0 0 0 448.004 48.537 A 288 288 0 0 0 398.213 21.923 A 288 288 0 0 0 344.186 5.534 A 288 288 0 0 0 288 0" /><path class="secondary" d="M336 288 A 48 48 0 0 0 336 288 A 48 48 0 0 0 335.078 278.636 A 48 48 0 0 0 332.346 269.631 A 48 48 0 0 0 327.911 261.333 A 48 48 0 0 0 321.941 254.059 A 48 48 0 0 0 314.667 248.089 A 48 48 0 0 0 306.369 243.654 A 48 48 0 0 0 297.364 240.922 A 48 48 0 0 0 288 240" /><path class="secondary" d="M384 288 A 96 96 0 0 0 384 288 A 96 96 0 0 0 382.155 269.271 A 96 96 0 0 0 376.692 251.262 A 96 96 0 0 0 367.821 234.665 A 96 96 0 0 0 355.882 220.118 A 96 96 0 0 0 341.335 208.179 A 96 96 0 0 0 324.738 199.308 A 96 96 0 0 0 306.729 193.845 A 96 96 0 0 0 288 192" /><path class="secondary" d="M432 288 A 144 144 0 0 0 432 288 A 144 144 0 0 0 429.233 259.907 A 144 144 0 0 0 421.039 232.894 A 144 144 0 0 0 407.732 207.998 A 144 144 0 0 0 389.823 186.177 A 144 144 0 0 0 368.002 168.268 A 144 144 0 0 0 343.106 154.961 A 144 144 0 0 0 316.093 146.767 A 144 144 0 0 0 288 144" /><path class="secondary" d="M480 288 A 192 192 0 0 0 480 288 A 192 192 0 0 0 476.311 250.543 A 192 192 0 0 0 465.385 214.525 A 192 192 0 0 0 447.642 181.331 A 192 192 0 0 0 423.765 152.235 A 192 192 0 0 0 394.669 128.358 A 192 192 0 0 0 361.475 110.615 A 192 192 0 0 0 325.457 99.689 A 192 192 0 0 0 288 96" /><path class="secondary" d="M528 288 A 240 240 0 0 0 528 288 A 240 240 0 0 0 523.388 241.178 A 240 240 0 0 0 509.731 196.156 A 240 240 0 0 0 487.553 154.663 A 240 240 0 0 0 457.706 118.294 A 240 240 0 0 0 421.337 88.447 A 240 240 0 0 0 379.844 66.269 A 240 240 0 0 0 334.822 52.612 A 240 240 0 0 0 288 48" /><line class="primary" x1="310.5" y1="288" x2="576" y2="288" /><line class="primary" x1="309.143" y1="280.305" x2="558.631" y2="189.498" /><line class="primary" x1="295.695" y1="266.857" x2="386.502" y2="17.369" /><line class="primary" x1="288" y1="265.5" x2="288" y2="0" />
    </g>
</svg>
