<svg width="576" height="384" viewBox="0 0 576 384" xmlns="http://www.w3.org/2000/svg">
    <style>
    .primary {
        fill: none;
        stroke-width: 2px;
        stroke: #000000;
    }
    .secondary {
        fill: none;
        stroke-width: 1px;
        stroke: #000000;
        stroke-miterlimit: 4;
        stroke-dasharray: 1, 2;
        stroke-dashoffset: 0;
    }
    </style>
    <g id="ruler">
        <polygon class="primary" points="0,0 576,0 288,384" />
        <line class="primary" x1="149.33333333333331" y1="0" x2="288" y2="384" /><line class="primary" x1="426.66666666666663" y1="0" x2="288" y2="384" />
        <line class="secondary" x1="24.0" y1="32.0" x2="552.0" y2="32.0" /><line class="secondary" x1="48.0" y1="64.0" x2="528.0" y2="64.0" /><line class="secondary" x1="72.0" y1="96.0" x2="504.0" y2="96.0" /><line class="secondary" x1="96.0" y1="128.0" x2="480.0" y2="128.0" /><line class="secondary" x1="120.0" y1="160.0" x2="456.0" y2="160.0" /><line class="secondary" x1="144.0" y1="192.0" x2="432.0" y2="192.0" /><line class="secondary" x1="168.0" y1="224.0" x2="408.0" y2="224.0" /><line class="secondary" x1="192.0" y1="256.0" x2="384.0" y2="256.0" /><line class="secondary" x1="216.0" y1="288.0" x2="360.0" y2="288.0" /><line class="secondary" x1="240.0" y1="320.0" x2="336.0" y2="320.0" /><line class="secondary" x1="264.0" y1="352.0" x2="312.0" y2="352.0" /><line class="secondary" x1="288" y1="0" x2="288" y2="384" />
    </g>
</svg>
