<svg width="576" height="576" viewBox="0 0 576 576" xmlns="http://www.w3.org/2000/svg">
    
    <style>
    .primary {
        fill: none;
        stroke-width: 2px;
        stroke: #000000;
    }
    .secondary {
        fill: none;
        stroke-width: 1px;
        stroke: #000000;
        stroke-miterlimit: 4;
        stroke-dasharray: 1, 2;
        stroke-dashoffset: 0;
    }
    </style>

    <g id="ruler">
        <circle class="secondary" cx="288" cy="288" r="288" />
        <circle class="primary" cx="288" cy="288" r="9" />
        <circle class="primary" cx="288" cy="288" r="22.5" />
        <line class="primary" x1="270" y1="288" x2="306" y2="288" />
        <line class="primary" x1="288" y1="270" x2="288" y2="306" />
        <path class="primary" d="M576 288 A 288 288 0 0 0 576 288 A 288 288 0 0 0 527.463 127.996 A 288 288 0 0 0 398.213 21.923 A 288 288 0 0 0 231.814 5.534 A 288 288 0 0 0 84.353 84.353 A 288 288 0 0 0 5.534 231.814 A 288 288 0 0 0 21.923 398.213 A 288 288 0 0 0 127.996 527.463 A 288 288 0 0 0 288 576" /><path class="secondary" d="M336 288 A 48 48 0 0 0 336 288 A 48 48 0 0 0 327.911 261.333 A 48 48 0 0 0 306.369 243.654 A 48 48 0 0 0 278.636 240.922 A 48 48 0 0 0 254.059 254.059 A 48 48 0 0 0 240.922 278.636 A 48 48 0 0 0 243.654 306.369 A 48 48 0 0 0 261.333 327.911 A 48 48 0 0 0 288 336" /><path class="secondary" d="M384 288 A 96 96 0 0 0 384 288 A 96 96 0 0 0 367.821 234.665 A 96 96 0 0 0 324.738 199.308 A 96 96 0 0 0 269.271 193.845 A 96 96 0 0 0 220.118 220.118 A 96 96 0 0 0 193.845 269.271 A 96 96 0 0 0 199.308 324.738 A 96 96 0 0 0 234.665 367.821 A 96 96 0 0 0 288 384" /><path class="secondary" d="M432 288 A 144 144 0 0 0 432 288 A 144 144 0 0 0 407.732 207.998 A 144 144 0 0 0 343.106 154.961 A 144 144 0 0 0 259.907 146.767 A 144 144 0 0 0 186.177 186.177 A 144 144 0 0 0 146.767 259.907 A 144 144 0 0 0 154.961 343.106 A 144 144 0 0 0 207.998 407.732 A 144 144 0 0 0 288 432" /><path class="secondary" d="M480 288 A 192 192 0 0 0 480 288 A 192 192 0 0 0 447.642 181.331 A 192 192 0 0 0 361.475 110.615 A 192 192 0 0 0 250.543 99.689 A 192 192 0 0 0 152.235 152.235 A 192 192 0 0 0 99.689 250.543 A 192 192 0 0 0 110.615 361.475 A 192 192 0 0 0 181.331 447.642 A 192 192 0 0 0 288 480" /><path class="secondary" d="M528 288 A 240 240 0 0 0 528 288 A 240 240 0 0 0 487.553 154.663 A 240 240 0 0 0 379.844 66.269 A 240 240 0 0 0 241.178 52.612 A 240 240 0 0 0 118.294 118.294 A 240 240 0 0 0 52.612 241.178 A 240 240 0 0 0 66.269 379.844 A 240 240 0 0 0 154.663 487.553 A 240 240 0 0 0 288 528" /><line class="primary" x1="310.5" y1="288" x2="576" y2="288" /><line class="primary" x1="309.733" y1="282.177" x2="566.187" y2="213.46" /><line class="primary" x1="299.25" y1="268.514" x2="432" y2="38.585" /><line class="primary" x1="272.09" y1="272.09" x2="84.353" y2="84.353" /><line class="primary" x1="268.514" y1="299.25" x2="38.585" y2="432" /><line class="primary" x1="282.177" y1="309.733" x2="213.46" y2="566.187" /><line class="primary" x1="288" y1="310.5" x2="288" y2="576" />
    </g>
</svg>
