<svg width="576" height="384" viewBox="0 0 576 384" xmlns="http://www.w3.org/2000/svg">
    
    <style>
    .primary {
        fill: none;
        stroke-width: 2px;
        stroke: #000000;
    }
    .secondary {
        fill: none;
        stroke-width: 1px;
        stroke: #000000;
        stroke-miterlimit: 4;
        stroke-dasharray: 1, 2;
        stroke-dashoffset: 0;
    }
    </style>

    <g id="ruler">
        <polygon class="primary" points="0,0 576,0 288,384" />
        <line class="primary" x1="14.222" y1="0" x2="288" y2="384" /><line class="primary" x1="56.889" y1="0" x2="288" y2="384" /><line class="primary" x1="128" y1="0" x2="288" y2="384" /><line class="primary" x1="227.556" y1="0" x2="288" y2="384" /><line class="primary" x1="348.444" y1="0" x2="288" y2="384" /><line class="primary" x1="448" y1="0" x2="288" y2="384" /><line class="primary" x1="519.111" y1="0" x2="288" y2="384" /><line class="primary" x1="561.778" y1="0" x2="288" y2="384" /><line class="secondary" x1="24" y1="32" x2="552" y2="32" /><line class="secondary" x1="48" y1="64" x2="528" y2="64" /><line class="secondary" x1="72" y1="96" x2="504" y2="96" /><line class="secondary" x1="96" y1="128" x2="480" y2="128" /><line class="secondary" x1="120" y1="160" x2="456" y2="160" /><line class="secondary" x1="144" y1="192" x2="432" y2="192" /><line class="secondary" x1="168" y1="224" x2="408" y2="224" /><line class="secondary" x1="192" y1="256" x2="384" y2="256" /><line class="secondary" x1="216" y1="288" x2="360" y2="288" /><line class="secondary" x1="240" y1="320" x2="336" y2="320" /><line class="secondary" x1="264" y1="352" x2="312" y2="352" /><line class="secondary" x1="288" y1="0" x2="288" y2="384" />
    </g>
</svg>
