<?xml version="1.0" encoding="UTF-8" standalone="no"?>
<!-- Created with Inkscape (http://www.inkscape.org/) -->

<svg
   width="576"
   height="576"
   viewBox="0 0 152.4 152.4"
   version="1.1"
   id="svg863"
   inkscape:version="1.1.2 (0a00cf5339, 2022-02-04)"
   sodipodi:docname="focus-chart-72.svg"
   xmlns:inkscape="http://www.inkscape.org/namespaces/inkscape"
   xmlns:sodipodi="http://sodipodi.sourceforge.net/DTD/sodipodi-0.dtd"
   xmlns="http://www.w3.org/2000/svg"
   xmlns:svg="http://www.w3.org/2000/svg">
  <sodipodi:namedview
     id="namedview865"
     pagecolor="#ffffff"
     bordercolor="#666666"
     borderopacity="1.0"
     inkscape:pageshadow="2"
     inkscape:pageopacity="0.0"
     inkscape:pagecheckerboard="0"
     inkscape:document-units="mm"
     showgrid="true"
     units="px"
     inkscape:snap-grids="false"
     inkscape:snap-intersection-paths="true"
     inkscape:snap-midpoints="true"
     inkscape:snap-smooth-nodes="true"
     inkscape:snap-page="true"
     inkscape:snap-nodes="true"
     inkscape:zoom="0.61732962"
     inkscape:cx="245.41185"
     inkscape:cy="358.80346"
     inkscape:window-width="1680"
     inkscape:window-height="1021"
     inkscape:window-x="0"
     inkscape:window-y="0"
     inkscape:window-maximized="1"
     inkscape:current-layer="layer1">
    <inkscape:grid
       type="xygrid"
       id="grid924"
       spacingx="76.2"
       spacingy="76.2"
       empspacing="2" />
  </sodipodi:namedview>
  <defs
     id="defs860">
    <inkscape:path-effect
       effect="copy_rotate"
       starting_point="77.2,76.2"
       id="path-effect1216"
       is_visible="true"
       lpeversion="1"
       method="normal"
       num_copies="144"
       starting_angle="0"
       rotation_angle="60"
       gap="-0.01"
       origin="76.2,76.2"
       copies_to_360="true"
       mirror_copies="false"
       split_items="true" />
  </defs>
  <g
     inkscape:label="Layer 1"
     inkscape:groupmode="layer"
     id="layer1">
    <circle
       style="fill:#ffffff;stroke:none;stroke-width:1.05833;stroke-linecap:round;stroke-linejoin:round"
       id="path9365"
       cx="76.199997"
       cy="76.199997"
       r="76.199997" />
    <path
       id="rotated-0-path-effect1216"
       style="display:inline;fill:#000000;stroke:none;stroke-width:0.264582px;stroke-linecap:butt;stroke-linejoin:miter;stroke-opacity:1"
       d="M 76.199999,0 A 76.199996,76.199996 0 0 0 72.878237,0.12402344 L 76.199999,76.199999 Z" />
    <path
       id="rotated-2-path-effect1216"
       style="display:inline;fill:#000000;stroke:none;stroke-width:0.264582px;stroke-linecap:butt;stroke-linejoin:miter;stroke-opacity:1"
       d="M 69.561127,0.31936033 A 76.199996,76.199996 0 0 0 66.259003,0.69143064 L 76.199999,76.199999 Z" />
    <path
       id="rotated-4-path-effect1216"
       style="display:inline;fill:#000000;stroke:none;stroke-width:0.264582px;stroke-linecap:butt;stroke-linejoin:miter;stroke-opacity:1"
       d="M 62.976,1.2040608 A 76.199996,76.199996 0 0 0 59.711084,1.822111 l 16.488915,74.377888 z" />
    <path
       id="rotated-6-path-effect1216"
       style="display:inline;fill:#000000;stroke:none;stroke-width:0.264582px;stroke-linecap:butt;stroke-linejoin:miter;stroke-opacity:1"
       d="M 56.492158,2.6479002 A 76.199996,76.199996 0 0 0 53.290803,3.5424194 L 76.199999,76.199999 Z" />
    <path
       id="rotated-8-path-effect1216"
       style="display:inline;fill:#000000;stroke:none;stroke-width:0.264582px;stroke-linecap:butt;stroke-linejoin:miter;stroke-opacity:1"
       d="m 50.154043,4.6400267 a 76.199996,76.199996 0 0 0 -3.099551,1.197343 L 76.199999,76.199999 Z" />
    <path
       id="rotated-10-path-effect1216"
       style="display:inline;fill:#000000;stroke:none;stroke-width:0.264582px;stroke-linecap:butt;stroke-linejoin:miter;stroke-opacity:1"
       d="M 44.008682,7.1664877 A 76.199996,76.199996 0 0 0 41.038838,8.6558024 L 76.199999,76.199999 Z" />
    <path
       id="rotated-12-path-effect1216"
       style="display:inline;fill:#000000;stroke:none;stroke-width:0.264582px;stroke-linecap:butt;stroke-linejoin:miter;stroke-opacity:1"
       d="m 38.1,10.208679 a 76.199996,76.199996 0 0 0 -2.814299,1.768368 l 40.914298,64.222952 z" />
    <path
       id="rotated-14-path-effect1216"
       style="display:inline;fill:#000000;stroke:none;stroke-width:0.264582px;stroke-linecap:butt;stroke-linejoin:miter;stroke-opacity:1"
       d="m 32.510161,13.804842 a 76.199996,76.199996 0 0 0 -2.673223,1.973523 l 46.363061,60.421634 z" />
    <path
       id="rotated-16-path-effect1216"
       style="display:inline;fill:#000000;stroke:none;stroke-width:0.264582px;stroke-linecap:butt;stroke-linejoin:miter;stroke-opacity:1"
       d="M 27.250017,17.863509 A 76.199996,76.199996 0 0 0 24.73079,20.031335 L 76.199999,76.199999 Z" />
    <path
       id="rotated-18-path-effect1216"
       style="display:inline;fill:#000000;stroke:none;stroke-width:0.264582px;stroke-linecap:butt;stroke-linejoin:miter;stroke-opacity:1"
       d="M 22.356258,22.356258 A 76.199996,76.199996 0 0 0 20.031335,24.73079 L 76.199999,76.199999 Z" />
    <path
       id="rotated-20-path-effect1216"
       style="display:inline;fill:#000000;stroke:none;stroke-width:0.264582px;stroke-linecap:butt;stroke-linejoin:miter;stroke-opacity:1"
       d="m 17.863509,27.250017 a 76.199996,76.199996 0 0 0 -2.085144,2.586921 l 60.421634,46.363061 z" />
    <path
       id="rotated-22-path-effect1216"
       style="display:inline;fill:#000000;stroke:none;stroke-width:0.264582px;stroke-linecap:butt;stroke-linejoin:miter;stroke-opacity:1"
       d="m 13.804842,32.510161 a 76.199996,76.199996 0 0 0 -1.827795,2.77554 l 64.222952,40.914298 z" />
    <path
       id="rotated-24-path-effect1216"
       style="display:inline;fill:#000000;stroke:none;stroke-width:0.264582px;stroke-linecap:butt;stroke-linejoin:miter;stroke-opacity:1"
       d="M 10.208679,38.1 A 76.199996,76.199996 0 0 0 8.6558024,41.038838 L 76.199999,76.199999 Z" />
    <path
       id="rotated-26-path-effect1216"
       style="display:inline;fill:#000000;stroke:none;stroke-width:0.264582px;stroke-linecap:butt;stroke-linejoin:miter;stroke-opacity:1"
       d="m 7.1664877,44.008682 a 76.199996,76.199996 0 0 0 -1.329118,3.04581 L 76.199999,76.199999 Z" />
    <path
       id="rotated-28-path-effect1216"
       style="display:inline;fill:#000000;stroke:none;stroke-width:0.264582px;stroke-linecap:butt;stroke-linejoin:miter;stroke-opacity:1"
       d="m 4.6400267,50.154043 a 76.199996,76.199996 0 0 0 -1.0976073,3.13676 L 76.199999,76.199999 Z" />
    <path
       id="rotated-30-path-effect1216"
       style="display:inline;fill:#000000;stroke:none;stroke-width:0.264582px;stroke-linecap:butt;stroke-linejoin:miter;stroke-opacity:1"
       d="M 2.6479002,56.492158 A 76.199996,76.199996 0 0 0 1.822111,59.711084 l 74.377888,16.488915 z" />
    <path
       id="rotated-32-path-effect1216"
       style="display:inline;fill:#000000;stroke:none;stroke-width:0.264582px;stroke-linecap:butt;stroke-linejoin:miter;stroke-opacity:1"
       d="M 1.2040608,62.976 A 76.199996,76.199996 0 0 0 0.69143064,66.259003 L 76.199999,76.199999 Z" />
    <path
       id="rotated-34-path-effect1216"
       style="display:inline;fill:#000000;stroke:none;stroke-width:0.264582px;stroke-linecap:butt;stroke-linejoin:miter;stroke-opacity:1"
       d="m 0.31936033,69.561127 a 76.199996,76.199996 0 0 0 -0.19533689,3.31711 L 76.199999,76.199999 Z" />
    <path
       id="rotated-36-path-effect1216"
       style="display:inline;fill:#000000;stroke:none;stroke-width:0.264582px;stroke-linecap:butt;stroke-linejoin:miter;stroke-opacity:1"
       d="m 0,76.199999 a 76.199996,76.199996 0 0 0 0.12402344,3.321762 L 76.199999,76.199999 Z" />
    <path
       id="rotated-38-path-effect1216"
       style="display:inline;fill:#000000;stroke:none;stroke-width:0.264582px;stroke-linecap:butt;stroke-linejoin:miter;stroke-opacity:1"
       d="M 76.199999,76.199999 0.31936033,82.838871 a 76.199996,76.199996 0 0 0 0.37207031,3.302124 z" />
    <path
       id="rotated-40-path-effect1216"
       style="display:inline;fill:#000000;stroke:none;stroke-width:0.264582px;stroke-linecap:butt;stroke-linejoin:miter;stroke-opacity:1"
       d="M 76.199999,76.199999 1.2040608,89.423998 a 76.199996,76.199996 0 0 0 0.6180502,3.264916 z" />
    <path
       id="rotated-42-path-effect1216"
       style="display:inline;fill:#000000;stroke:none;stroke-width:0.264582px;stroke-linecap:butt;stroke-linejoin:miter;stroke-opacity:1"
       d="M 76.199999,76.199999 2.6479002,95.90784 a 76.199996,76.199996 0 0 0 0.8945192,3.201355 z" />
    <path
       id="rotated-44-path-effect1216"
       style="display:inline;fill:#000000;stroke:none;stroke-width:0.264582px;stroke-linecap:butt;stroke-linejoin:miter;stroke-opacity:1"
       d="M 76.199999,76.199999 4.6400267,102.24596 a 76.199996,76.199996 0 0 0 1.197343,3.09955 z" />
    <path
       id="rotated-46-path-effect1216"
       style="display:inline;fill:#000000;stroke:none;stroke-width:0.264582px;stroke-linecap:butt;stroke-linejoin:miter;stroke-opacity:1"
       d="M 76.199999,76.199999 7.1664877,108.39132 a 76.199996,76.199996 0 0 0 1.4893147,2.96984 z" />
    <path
       id="rotated-48-path-effect1216"
       style="display:inline;fill:#000000;stroke:none;stroke-width:0.264582px;stroke-linecap:butt;stroke-linejoin:miter;stroke-opacity:1"
       d="M 76.199999,76.199999 10.208679,114.3 a 76.199996,76.199996 0 0 0 1.768368,2.8143 z" />
    <path
       id="rotated-50-path-effect1216"
       style="display:inline;fill:#000000;stroke:none;stroke-width:0.264582px;stroke-linecap:butt;stroke-linejoin:miter;stroke-opacity:1"
       d="M 76.199999,76.199999 13.804842,119.88984 a 76.199996,76.199996 0 0 0 1.973523,2.67322 z" />
    <path
       id="rotated-52-path-effect1216"
       style="display:inline;fill:#000000;stroke:none;stroke-width:0.264582px;stroke-linecap:butt;stroke-linejoin:miter;stroke-opacity:1"
       d="m 76.199999,76.199999 -58.33649,48.949981 a 76.199996,76.199996 0 0 0 2.167826,2.51923 z" />
    <path
       id="rotated-54-path-effect1216"
       style="display:inline;fill:#000000;stroke:none;stroke-width:0.264582px;stroke-linecap:butt;stroke-linejoin:miter;stroke-opacity:1"
       d="M 76.199999,76.199999 22.356258,130.04374 a 76.199996,76.199996 0 0 0 2.374532,2.32492 z" />
    <path
       id="rotated-56-path-effect1216"
       style="display:inline;fill:#000000;stroke:none;stroke-width:0.264582px;stroke-linecap:butt;stroke-linejoin:miter;stroke-opacity:1"
       d="M 76.199999,76.199999 27.250017,134.53649 a 76.199996,76.199996 0 0 0 2.586921,2.08514 z" />
    <path
       id="rotated-58-path-effect1216"
       style="display:inline;fill:#000000;stroke:none;stroke-width:0.264582px;stroke-linecap:butt;stroke-linejoin:miter;stroke-opacity:1"
       d="M 76.199999,76.199999 32.510161,138.59516 a 76.199996,76.199996 0 0 0 2.77554,1.82779 z" />
    <path
       id="rotated-60-path-effect1216"
       style="display:inline;fill:#000000;stroke:none;stroke-width:0.264582px;stroke-linecap:butt;stroke-linejoin:miter;stroke-opacity:1"
       d="M 76.199999,76.199999 38.1,142.19132 a 76.199996,76.199996 0 0 0 2.938838,1.55288 z" />
    <path
       id="rotated-62-path-effect1216"
       style="display:inline;fill:#000000;stroke:none;stroke-width:0.264582px;stroke-linecap:butt;stroke-linejoin:miter;stroke-opacity:1"
       d="M 76.199999,76.199999 44.008682,145.23351 a 76.199996,76.199996 0 0 0 3.04581,1.32912 z" />
    <path
       id="rotated-64-path-effect1216"
       style="display:inline;fill:#000000;stroke:none;stroke-width:0.264582px;stroke-linecap:butt;stroke-linejoin:miter;stroke-opacity:1"
       d="M 76.199999,76.199999 50.154043,147.75997 a 76.199996,76.199996 0 0 0 3.13676,1.09761 z" />
    <path
       id="rotated-66-path-effect1216"
       style="display:inline;fill:#000000;stroke:none;stroke-width:0.264582px;stroke-linecap:butt;stroke-linejoin:miter;stroke-opacity:1"
       d="M 76.199999,76.199999 56.492158,149.7521 a 76.199996,76.199996 0 0 0 3.218926,0.82579 z" />
    <path
       id="rotated-68-path-effect1216"
       style="display:inline;fill:#000000;stroke:none;stroke-width:0.264582px;stroke-linecap:butt;stroke-linejoin:miter;stroke-opacity:1"
       d="M 76.199999,76.199999 62.976,151.19594 a 76.199996,76.199996 0 0 0 3.283003,0.51263 z" />
    <path
       id="rotated-70-path-effect1216"
       style="display:inline;fill:#000000;stroke:none;stroke-width:0.264582px;stroke-linecap:butt;stroke-linejoin:miter;stroke-opacity:1"
       d="m 76.199999,76.199999 -6.638872,75.880641 a 76.199996,76.199996 0 0 0 3.31711,0.19533 z" />
    <path
       id="rotated-72-path-effect1216"
       style="display:inline;fill:#000000;stroke:none;stroke-width:0.264582px;stroke-linecap:butt;stroke-linejoin:miter;stroke-opacity:1"
       d="M 76.199999,76.199999 V 152.4 a 76.199996,76.199996 0 0 0 3.321762,-0.12403 z" />
    <path
       id="rotated-74-path-effect1216"
       style="display:inline;fill:#000000;stroke:none;stroke-width:0.264582px;stroke-linecap:butt;stroke-linejoin:miter;stroke-opacity:1"
       d="m 76.199999,76.199999 6.638872,75.880641 a 76.199996,76.199996 0 0 0 3.302124,-0.37207 z" />
    <path
       id="rotated-76-path-effect1216"
       style="display:inline;fill:#000000;stroke:none;stroke-width:0.264582px;stroke-linecap:butt;stroke-linejoin:miter;stroke-opacity:1"
       d="m 76.199999,76.199999 13.223999,74.995941 a 76.199996,76.199996 0 0 0 3.264916,-0.61805 z" />
    <path
       id="rotated-78-path-effect1216"
       style="display:inline;fill:#000000;stroke:none;stroke-width:0.264582px;stroke-linecap:butt;stroke-linejoin:miter;stroke-opacity:1"
       d="M 76.199999,76.199999 95.90784,149.7521 a 76.199996,76.199996 0 0 0 3.201355,-0.89452 z" />
    <path
       id="rotated-80-path-effect1216"
       style="display:inline;fill:#000000;stroke:none;stroke-width:0.264582px;stroke-linecap:butt;stroke-linejoin:miter;stroke-opacity:1"
       d="m 76.199999,76.199999 26.045961,71.559971 a 76.199996,76.199996 0 0 0 3.09955,-1.19734 z" />
    <path
       id="rotated-82-path-effect1216"
       style="display:inline;fill:#000000;stroke:none;stroke-width:0.264582px;stroke-linecap:butt;stroke-linejoin:miter;stroke-opacity:1"
       d="m 76.199999,76.199999 32.191321,69.033511 a 76.199996,76.199996 0 0 0 2.96984,-1.48931 z" />
    <path
       id="rotated-84-path-effect1216"
       style="display:inline;fill:#000000;stroke:none;stroke-width:0.264582px;stroke-linecap:butt;stroke-linejoin:miter;stroke-opacity:1"
       d="M 76.199999,76.199999 114.3,142.19132 a 76.199996,76.199996 0 0 0 2.8143,-1.76837 z" />
    <path
       id="rotated-86-path-effect1216"
       style="display:inline;fill:#000000;stroke:none;stroke-width:0.264582px;stroke-linecap:butt;stroke-linejoin:miter;stroke-opacity:1"
       d="m 76.199999,76.199999 43.689841,62.395161 a 76.199996,76.199996 0 0 0 2.67322,-1.97353 z" />
    <path
       id="rotated-88-path-effect1216"
       style="display:inline;fill:#000000;stroke:none;stroke-width:0.264582px;stroke-linecap:butt;stroke-linejoin:miter;stroke-opacity:1"
       d="m 76.199999,76.199999 48.949981,58.336491 a 76.199996,76.199996 0 0 0 2.51923,-2.16783 z" />
    <path
       id="rotated-90-path-effect1216"
       style="display:inline;fill:#000000;stroke:none;stroke-width:0.264582px;stroke-linecap:butt;stroke-linejoin:miter;stroke-opacity:1"
       d="m 76.199999,76.199999 53.843741,53.843741 a 76.199996,76.199996 0 0 0 2.32492,-2.37453 z" />
    <path
       id="rotated-92-path-effect1216"
       style="display:inline;fill:#000000;stroke:none;stroke-width:0.264582px;stroke-linecap:butt;stroke-linejoin:miter;stroke-opacity:1"
       d="m 76.199999,76.199999 58.336491,48.949981 a 76.199996,76.199996 0 0 0 2.08514,-2.58692 z" />
    <path
       id="rotated-94-path-effect1216"
       style="display:inline;fill:#000000;stroke:none;stroke-width:0.264582px;stroke-linecap:butt;stroke-linejoin:miter;stroke-opacity:1"
       d="m 76.199999,76.199999 62.395161,43.689841 a 76.199996,76.199996 0 0 0 1.82779,-2.77554 z" />
    <path
       id="rotated-96-path-effect1216"
       style="display:inline;fill:#000000;stroke:none;stroke-width:0.264582px;stroke-linecap:butt;stroke-linejoin:miter;stroke-opacity:1"
       d="M 76.199999,76.199999 142.19132,114.3 a 76.199996,76.199996 0 0 0 1.55288,-2.93884 z" />
    <path
       id="rotated-98-path-effect1216"
       style="display:inline;fill:#000000;stroke:none;stroke-width:0.264582px;stroke-linecap:butt;stroke-linejoin:miter;stroke-opacity:1"
       d="m 76.199999,76.199999 69.033511,32.191321 a 76.199996,76.199996 0 0 0 1.32912,-3.04581 z" />
    <path
       id="rotated-100-path-effect1216"
       style="display:inline;fill:#000000;stroke:none;stroke-width:0.264582px;stroke-linecap:butt;stroke-linejoin:miter;stroke-opacity:1"
       d="m 76.199999,76.199999 71.559971,26.045961 a 76.199996,76.199996 0 0 0 1.09761,-3.136765 z" />
    <path
       id="rotated-102-path-effect1216"
       style="display:inline;fill:#000000;stroke:none;stroke-width:0.264582px;stroke-linecap:butt;stroke-linejoin:miter;stroke-opacity:1"
       d="M 76.199999,76.199999 149.7521,95.90784 a 76.199996,76.199996 0 0 0 0.82579,-3.218926 z" />
    <path
       id="rotated-104-path-effect1216"
       style="display:inline;fill:#000000;stroke:none;stroke-width:0.264582px;stroke-linecap:butt;stroke-linejoin:miter;stroke-opacity:1"
       d="m 76.199999,76.199999 74.995941,13.223999 a 76.199996,76.199996 0 0 0 0.51263,-3.283003 z" />
    <path
       id="rotated-106-path-effect1216"
       style="display:inline;fill:#000000;stroke:none;stroke-width:0.264582px;stroke-linecap:butt;stroke-linejoin:miter;stroke-opacity:1"
       d="m 76.199999,76.199999 75.880641,6.638872 a 76.199996,76.199996 0 0 0 0.19533,-3.31711 z" />
    <path
       id="rotated-108-path-effect1216"
       style="display:inline;fill:#000000;stroke:none;stroke-width:0.264582px;stroke-linecap:butt;stroke-linejoin:miter;stroke-opacity:1"
       d="M 152.32197,72.876171 76.199999,76.199999 H 152.4 a 76.199996,76.199996 0 0 0 -0.078,-3.323828 z" />
    <path
       id="rotated-110-path-effect1216"
       style="display:inline;fill:#000000;stroke:none;stroke-width:0.264582px;stroke-linecap:butt;stroke-linejoin:miter;stroke-opacity:1"
       d="m 151.74577,66.254354 -75.545771,9.945645 75.903891,-6.640938 a 76.199996,76.199996 0 0 0 -0.35812,-3.304707 z" />
    <path
       id="rotated-112-path-effect1216"
       style="display:inline;fill:#000000;stroke:none;stroke-width:0.264582px;stroke-linecap:butt;stroke-linejoin:miter;stroke-opacity:1"
       d="M 150.58771,59.709017 76.199999,76.199999 151.23779,62.968766 a 76.199996,76.199996 0 0 0 -0.65008,-3.259749 z" />
    <path
       id="rotated-114-path-effect1216"
       style="display:inline;fill:#000000;stroke:none;stroke-width:0.264582px;stroke-linecap:butt;stroke-linejoin:miter;stroke-opacity:1"
       d="M 148.8705,53.287186 76.199999,76.199999 149.80016,56.479238 a 76.199996,76.199996 0 0 0 -0.92966,-3.192052 z" />
    <path
       id="rotated-116-path-effect1216"
       style="display:inline;fill:#000000;stroke:none;stroke-width:0.264582px;stroke-linecap:butt;stroke-linejoin:miter;stroke-opacity:1"
       d="M 146.59519,47.041056 76.199999,76.199999 147.79873,50.140091 a 76.199996,76.199996 0 0 0 -1.20354,-3.099035 z" />
    <path
       id="rotated-118-path-effect1216"
       style="display:inline;fill:#000000;stroke:none;stroke-width:0.264582px;stroke-linecap:butt;stroke-linejoin:miter;stroke-opacity:1"
       d="M 143.78502,41.01765 76.199999,76.199999 145.25935,43.996797 a 76.199996,76.199996 0 0 0 -1.47433,-2.979147 z" />
    <path
       id="rotated-120-path-effect1216"
       style="display:inline;fill:#000000;stroke:none;stroke-width:0.264582px;stroke-linecap:butt;stroke-linejoin:miter;stroke-opacity:1"
       d="M 140.46584,35.258314 76.199999,76.199999 142.18615,38.1031 a 76.199996,76.199996 0 0 0 -1.72031,-2.844786 z" />
    <path
       id="rotated-122-path-effect1216"
       style="display:inline;fill:#000000;stroke:none;stroke-width:0.264582px;stroke-linecap:butt;stroke-linejoin:miter;stroke-opacity:1"
       d="M 136.64851,29.816269 76.199999,76.199999 138.61531,32.496207 a 76.199996,76.199996 0 0 0 -1.9668,-2.679938 z" />
    <path
       id="rotated-124-path-effect1216"
       style="display:inline;fill:#000000;stroke:none;stroke-width:0.264582px;stroke-linecap:butt;stroke-linejoin:miter;stroke-opacity:1"
       d="M 132.37745,24.722522 76.199999,76.199999 134.5706,27.221076 a 76.199996,76.199996 0 0 0 -2.19315,-2.498554 z" />
    <path
       id="rotated-126-path-effect1216"
       style="display:inline;fill:#000000;stroke:none;stroke-width:0.264582px;stroke-linecap:butt;stroke-linejoin:miter;stroke-opacity:1"
       d="M 127.67748,20.02255 76.199999,76.199999 130.07681,22.323185 a 76.199996,76.199996 0 0 0 -2.39933,-2.300635 z" />
    <path
       id="rotated-128-path-effect1216"
       style="display:inline;fill:#000000;stroke:none;stroke-width:0.264582px;stroke-linecap:butt;stroke-linejoin:miter;stroke-opacity:1"
       d="M 122.58373,15.751493 76.199999,76.199999 125.17892,17.829403 a 76.199996,76.199996 0 0 0 -2.59519,-2.07791 z" />
    <path
       id="rotated-130-path-effect1216"
       style="display:inline;fill:#000000;stroke:none;stroke-width:0.264582px;stroke-linecap:butt;stroke-linejoin:miter;stroke-opacity:1"
       d="M 117.14168,11.934155 76.199999,76.199999 119.90379,13.784688 a 76.199996,76.199996 0 0 0 -2.76211,-1.850533 z" />
    <path
       id="rotated-132-path-effect1216"
       style="display:inline;fill:#000000;stroke:none;stroke-width:0.264582px;stroke-linecap:butt;stroke-linejoin:miter;stroke-opacity:1"
       d="M 111.38235,8.614978 76.199999,76.199999 114.2969,10.213847 a 76.199996,76.199996 0 0 0 -2.91455,-1.598869 z" />
    <path
       id="rotated-134-path-effect1216"
       style="display:inline;fill:#000000;stroke:none;stroke-width:0.264582px;stroke-linecap:butt;stroke-linejoin:miter;stroke-opacity:1"
       d="M 105.35894,5.8048135 76.199999,76.199999 108.4032,7.1406493 a 76.199996,76.199996 0 0 0 -3.04426,-1.3358358 z" />
    <path
       id="rotated-136-path-effect1216"
       style="display:inline;fill:#000000;stroke:none;stroke-width:0.264582px;stroke-linecap:butt;stroke-linejoin:miter;stroke-opacity:1"
       d="M 99.112812,3.5295003 76.199999,76.199999 102.25991,4.6012695 A 76.199996,76.199996 0 0 0 99.112812,3.5295003 Z" />
    <path
       id="rotated-138-path-effect1216"
       style="display:inline;fill:#000000;stroke:none;stroke-width:0.264582px;stroke-linecap:butt;stroke-linejoin:miter;stroke-opacity:1"
       d="M 92.690981,1.8122925 76.199999,76.199999 95.92076,2.5998413 A 76.199996,76.199996 0 0 0 92.690981,1.8122925 Z" />
    <path
       id="rotated-140-path-effect1216"
       style="display:inline;fill:#000000;stroke:none;stroke-width:0.264582px;stroke-linecap:butt;stroke-linejoin:miter;stroke-opacity:1"
       d="M 86.145644,0.65422361 76.199999,76.199999 89.431232,1.1622029 A 76.199996,76.199996 0 0 0 86.145644,0.65422361 Z" />
    <path
       id="rotated-142-path-effect1216"
       style="display:inline;fill:#000000;stroke:none;stroke-width:0.264582px;stroke-linecap:butt;stroke-linejoin:miter;stroke-opacity:1"
       d="M 79.523827,0.07803141 76.199999,76.199999 82.840937,0.29610595 a 76.199996,76.199996 0 0 0 -3.31711,-0.21807454 z" />
  </g>
</svg>
