<svg width="576" height="576" viewBox="0 0 576 576" xmlns="http://www.w3.org/2000/svg">
    
    <style>
    .primary {
        fill: none;
        stroke-width: 2px;
        stroke: #000000;
    }
    .secondary {
        fill: none;
        stroke-width: 1px;
        stroke: #000000;
        stroke-miterlimit: 4;
        stroke-dasharray: 1, 2;
        stroke-dashoffset: 0;
    }
    </style>

    <g id="ruler">
        <circle class="secondary" cx="288" cy="288" r="288" />
        <circle class="primary" cx="288" cy="288" r="9" />
        <circle class="primary" cx="288" cy="288" r="22.5" />
        <line class="primary" x1="270" y1="288" x2="306" y2="288" />
        <line class="primary" x1="288" y1="270" x2="288" y2="306" />
        <path class="primary" d="M576.0 288.0 A 288 288 0 0 0 576.0 288.0 A 288 288 0 0 0 554.0773053632506 177.78717147885413 A 288 288 0 0 0 491.64675298172574 84.35324701827432 A 288 288 0 0 0 398.21282852114587 21.92269463674944 A 288 288 0 0 0 288.0 0.0 A 288 288 0 0 0 177.78717147885416 21.92269463674944 A 288 288 0 0 0 84.35324701827432 84.35324701827429 A 288 288 0 0 0 21.92269463674944 177.7871714788541 A 288 288 0 0 0 0.0 287.99999999999994" /><path class="secondary" d="M336.0 288.0 A 48.0 48.0 0 0 0 336.0 288.0 A 48.0 48.0 0 0 0 332.34621756054173 269.63119524647567 A 48.0 48.0 0 0 0 321.94112549695427 254.05887450304573 A 48.0 48.0 0 0 0 306.36880475352433 243.65378243945824 A 48.0 48.0 0 0 0 288.0 240.0 A 48.0 48.0 0 0 0 269.63119524647567 243.65378243945824 A 48.0 48.0 0 0 0 254.05887450304573 254.05887450304573 A 48.0 48.0 0 0 0 243.65378243945824 269.63119524647567 A 48.0 48.0 0 0 0 240.0 288.0" /><path class="secondary" d="M384.0 288.0 A 96.0 96.0 0 0 0 384.0 288.0 A 96.0 96.0 0 0 0 376.6924351210835 251.2623904929514 A 96.0 96.0 0 0 0 355.88225099390854 220.11774900609146 A 96.0 96.0 0 0 0 324.7376095070486 199.30756487891648 A 96.0 96.0 0 0 0 288.0 192.0 A 96.0 96.0 0 0 0 251.2623904929514 199.30756487891648 A 96.0 96.0 0 0 0 220.11774900609146 220.11774900609143 A 96.0 96.0 0 0 0 199.30756487891648 251.26239049295137 A 96.0 96.0 0 0 0 192.0 288.0" /><path class="secondary" d="M432.0 288.0 A 144.0 144.0 0 0 0 432.0 288.0 A 144.0 144.0 0 0 0 421.0386526816253 232.89358573942707 A 144.0 144.0 0 0 0 389.82337649086287 186.17662350913716 A 144.0 144.0 0 0 0 343.10641426057293 154.96134731837472 A 144.0 144.0 0 0 0 288.0 144.0 A 144.0 144.0 0 0 0 232.89358573942707 154.96134731837472 A 144.0 144.0 0 0 0 186.17662350913716 186.17662350913713 A 144.0 144.0 0 0 0 154.96134731837472 232.89358573942707 A 144.0 144.0 0 0 0 144.0 288.0" /><path class="secondary" d="M480.0 288.0 A 192.0 192.0 0 0 0 480.0 288.0 A 192.0 192.0 0 0 0 465.38487024216704 214.52478098590277 A 192.0 192.0 0 0 0 423.76450198781714 152.2354980121829 A 192.0 192.0 0 0 0 361.47521901409726 110.61512975783296 A 192.0 192.0 0 0 0 288.0 96.0 A 192.0 192.0 0 0 0 214.52478098590277 110.61512975783296 A 192.0 192.0 0 0 0 152.2354980121829 152.23549801218286 A 192.0 192.0 0 0 0 110.61512975783296 214.52478098590274 A 192.0 192.0 0 0 0 96.0 288.0" /><path class="secondary" d="M528.0 288.0 A 240.0 240.0 0 0 0 528.0 288.0 A 240.0 240.0 0 0 0 509.7310878027088 196.15597623237846 A 240.0 240.0 0 0 0 457.7056274847714 118.29437251522862 A 240.0 240.0 0 0 0 379.8440237676216 66.26891219729117 A 240.0 240.0 0 0 0 288.0 48.0 A 240.0 240.0 0 0 0 196.15597623237846 66.26891219729117 A 240.0 240.0 0 0 0 118.29437251522862 118.29437251522859 A 240.0 240.0 0 0 0 66.26891219729117 196.1559762323784 A 240.0 240.0 0 0 0 48.0 287.99999999999994" /><line class="primary" x1="310.5" y1="288.0" x2="576.0" y2="288.0" /><line class="primary" x1="297.58003406021413" y1="267.6413913195146" x2="410.624435970741" y2="27.409808889786405" /><line class="primary" x1="278.41996593978587" y1="267.6413913195146" x2="165.37556402925907" y2="27.409808889786405" /><line class="primary" x1="268.28309969901306" y1="277.1605423327114" x2="35.62367614736735" y2="149.2549418587059" /><line class="primary" x1="265.67741922042427" y1="285.1800022448031" x2="2.270966021430411" y2="251.9040287334803" /><line class="primary" x1="265.5" y1="288.0" x2="0.0" y2="287.99999999999994" />
    </g>
</svg>
